<svg width="64" height="64" viewBox="0 0 64 64" fill="none" xmlns="http://www.w3.org/2000/svg">
<path d="M11.9513 22.9687L15.8282 23.6769C16.2358 25.3078 16.9146 26.8662 17.8391 28.2929L15.617 31.4062C15.4639 31.621 15.3949 31.8801 15.422 32.1383C15.4491 32.3966 15.5707 32.6376 15.7654 32.8191L18.5583 35.4787C18.7502 35.6622 19.0036 35.7758 19.2743 35.7998C19.5451 35.8238 19.8161 35.7567 20.0403 35.61L23.2957 33.484C24.7934 34.3659 26.43 35.013 28.1432 35.4006L28.8798 39.0957C28.9309 39.3499 29.0733 39.5791 29.2826 39.7441C29.4919 39.9091 29.7549 39.9996 30.0266 40H33.9734C34.2451 39.9999 34.5084 39.9096 34.7177 39.7445C34.9271 39.5794 35.0694 39.35 35.1202 39.0957L35.8568 35.4006C37.5697 35.0139 39.2059 34.3667 40.7025 33.484L43.9719 35.6017C44.196 35.7487 44.4671 35.816 44.7379 35.792C45.0088 35.768 45.2622 35.6542 45.4539 35.4704L48.2468 32.8108C48.4392 32.6279 48.5583 32.3867 48.5835 32.1289C48.6087 31.8712 48.5384 31.6132 48.3847 31.3996L46.1609 28.2862C47.0851 26.8618 47.764 25.3056 48.1718 23.6769L52.0504 22.9754C52.3176 22.9273 52.5587 22.7919 52.7321 22.5925C52.9055 22.3931 53.0002 22.1422 53 21.8833V18.1183C52.9999 17.8595 52.905 17.6089 52.7317 17.4095C52.5583 17.2102 52.3174 17.0746 52.0504 17.0263L48.1718 16.3265C47.7645 14.6947 47.085 13.1356 46.1591 11.7088L48.383 8.59874C48.5368 8.38492 48.6071 8.12662 48.582 7.86857C48.5568 7.61053 48.4376 7.36901 48.2451 7.18584L45.4522 4.52626C45.2605 4.34252 45.0072 4.22859 44.7365 4.20429C44.4657 4.17999 44.1945 4.24687 43.9702 4.39328L40.7008 6.51097C39.2044 5.63013 37.5688 4.98466 35.8568 4.5994L35.1202 0.904256C35.0694 0.649997 34.9271 0.420569 34.7177 0.255506C34.5084 0.0904433 34.2451 8.44877e-05 33.9734 0H30.0266C29.7549 0.000403832 29.4919 0.0908782 29.2826 0.255887C29.0733 0.420895 28.9309 0.650141 28.8798 0.904256L28.1432 4.5994C26.4301 4.98643 24.7935 5.63296 23.2957 6.5143L20.0263 4.39495C19.8016 4.24948 19.5307 4.18317 19.2602 4.20744C18.9897 4.23171 18.7365 4.34505 18.5443 4.52793L15.7514 7.1875C15.5583 7.3703 15.4386 7.61175 15.4131 7.86989C15.3876 8.12802 15.4579 8.38651 15.6118 8.6004L17.8391 11.7088C16.9146 13.1361 16.2357 14.695 15.8282 16.3265L11.9513 17.0279C11.684 17.0759 11.4427 17.2113 11.269 17.4107C11.0953 17.6101 11.0002 17.861 11 18.12V21.8783C11.0002 22.1372 11.0954 22.3878 11.2691 22.5869C11.4429 22.786 11.6841 22.9211 11.9513 22.9687ZM13.3338 19.0392L17.0257 18.3743C17.2567 18.3331 17.4693 18.2263 17.6353 18.0678C17.8014 17.9094 17.9132 17.7068 17.9561 17.4867C18.3185 15.6348 19.0851 13.8759 20.2061 12.3238C20.3392 12.1397 20.4104 11.9215 20.4104 11.698C20.4104 11.4745 20.3392 11.2562 20.2061 11.0721L18.0905 8.10838L19.5114 6.75366L22.6237 8.76995C22.8176 8.89616 23.0469 8.96368 23.2818 8.96368C23.5166 8.96368 23.746 8.89616 23.9399 8.76995C25.5701 7.70323 27.417 6.97389 29.3616 6.62899C29.5923 6.58732 29.8046 6.48056 29.9708 6.32258C30.137 6.16459 30.2495 5.96266 30.2937 5.74302L30.9919 2.22739H33.0046L33.7028 5.74302C33.7471 5.96289 33.8599 6.16498 34.0264 6.32299C34.193 6.481 34.4056 6.58762 34.6367 6.62899C36.5778 6.97451 38.4212 7.70386 40.0479 8.76995C40.2418 8.89616 40.4712 8.96368 40.706 8.96368C40.9408 8.96368 41.1702 8.89616 41.3641 8.76995L44.4764 6.75366L45.899 8.10838L43.7817 11.0705C43.6483 11.2551 43.5769 11.4739 43.5769 11.698C43.5769 11.9221 43.6483 12.1409 43.7817 12.3255C44.9017 13.8775 45.6682 15.6356 46.0317 17.4867C46.075 17.7066 46.187 17.909 46.353 18.0673C46.519 18.2257 46.7312 18.3327 46.9621 18.3743L50.654 19.0392V20.9558L46.9621 21.6207C46.7314 21.6628 46.5194 21.7699 46.3535 21.9282C46.1876 22.0865 46.0755 22.2886 46.0317 22.5083C45.6709 24.3572 44.9087 26.114 43.7939 27.6662C43.6604 27.8505 43.589 28.069 43.589 28.2929C43.589 28.5167 43.6604 28.7353 43.7939 28.9195L45.9113 31.8816L44.4886 33.238L41.3763 31.2201C41.1823 31.0941 40.953 31.0267 40.7182 31.0267C40.4834 31.0267 40.2541 31.0941 40.0601 31.2201C38.4335 32.2867 36.5901 33.0166 34.6489 33.3627C34.4176 33.4036 34.2048 33.5101 34.0381 33.6682C33.8715 33.8263 33.7589 34.0286 33.715 34.2487L33.0168 37.7643H30.9937L30.2955 34.2487C30.2517 34.0288 30.1394 33.8267 29.9731 33.6686C29.8068 33.5106 29.5943 33.4039 29.3633 33.3627C27.4187 33.0172 25.5717 32.2873 23.9416 31.2201C23.7476 31.0941 23.5183 31.0267 23.2835 31.0267C23.0487 31.0267 22.8194 31.0941 22.6255 31.2201L19.5131 33.2364L18.0922 31.8816L20.2078 28.9195C20.3408 28.7351 20.412 28.5166 20.412 28.2929C20.412 28.0691 20.3408 27.8507 20.2078 27.6662C19.0874 26.1174 18.3209 24.362 17.9578 22.5133C17.9151 22.293 17.8033 22.0902 17.6373 21.9314C17.4712 21.7727 17.2586 21.6655 17.0274 21.624L13.3356 20.9591L13.3338 19.0392Z" fill="#FFAA03"/>
<path d="M31.9954 28C33.8464 28.0011 35.6406 27.3202 37.0721 26.0732C38.5036 24.8263 39.4838 23.0905 39.8456 21.1617C40.2075 19.2329 39.9286 17.2304 39.0566 15.4956C38.1845 13.7608 36.7733 12.4009 35.0633 11.6478C33.3533 10.8947 31.4504 10.795 29.679 11.3656C27.9075 11.9362 26.3771 13.1419 25.3486 14.7771C24.3201 16.4123 23.8571 18.3759 24.0385 20.3332C24.22 22.2905 25.0346 24.1204 26.3437 25.5109C27.0843 26.3018 27.9651 26.929 28.9352 27.3562C29.9052 27.7834 30.9453 28.0022 31.9954 28ZM27.6761 14.9122C28.8268 13.7219 30.3725 13.061 31.9785 13.0724C33.5845 13.0838 35.1216 13.7666 36.2574 14.9731C37.3931 16.1797 38.036 17.8128 38.047 19.5192C38.058 21.2255 37.4362 22.8679 36.3161 24.0908C34.0088 26.5423 29.9834 26.5423 27.6761 24.0908C27.1085 23.4883 26.6582 22.7729 26.351 21.9855C26.0437 21.198 25.8856 20.3539 25.8856 19.5015C25.8856 18.6491 26.0437 17.805 26.351 17.0175C26.6582 16.2301 27.1085 15.5147 27.6761 14.9122Z" fill="#FFAA03"/>
<path d="M54.1756 51.8326C54.1972 51.7596 54.2114 51.6845 54.2179 51.6085V48.4968C54.2162 47.038 53.659 45.6397 52.6687 44.609C51.6784 43.5783 50.3361 42.9995 48.9367 43H15.0641C13.6661 43.0018 12.3259 43.5815 11.3374 44.612C10.3489 45.6424 9.79276 47.0395 9.79104 48.4968V51.6085C9.79735 51.6847 9.8121 51.7599 9.835 51.8326C8.38966 52.1048 7.09436 52.9309 6.20392 54.1485C5.31349 55.3662 4.89239 56.887 5.02348 58.412C5.15457 59.9369 5.82835 61.3556 6.91226 62.3887C7.99618 63.4219 9.41175 63.9949 10.8805 63.9949C12.3492 63.9949 13.7648 63.4219 14.8487 62.3887C15.9326 61.3556 16.6064 59.9369 16.7375 58.412C16.8686 56.887 16.4475 55.3662 15.5571 54.1485C14.6666 52.9309 13.3713 52.1048 11.926 51.8326C11.9481 51.7597 11.9629 51.6846 11.97 51.6085V48.4968C11.97 47.6414 12.2959 46.821 12.8762 46.2161C13.4565 45.6112 14.2435 45.2714 15.0641 45.2714H30.9175V51.6102C30.9246 51.6863 30.9393 51.7614 30.9614 51.8343C29.5156 52.1065 28.2199 52.9328 27.3292 54.1508C26.4384 55.3687 26.0172 56.89 26.1483 58.4154C26.2794 59.9408 26.9533 61.3599 28.0375 62.3934C29.1218 63.4269 30.5377 64 32.0069 64C33.4761 64 34.8921 63.4269 35.9763 62.3934C37.0605 61.3599 37.7345 59.9408 37.8656 58.4154C37.9967 56.89 37.5754 55.3687 36.6847 54.1508C35.7939 52.9328 34.4982 52.1065 33.0524 51.8343C33.0745 51.7614 33.0893 51.6863 33.0964 51.6102V45.2697H48.9367C49.7573 45.2697 50.5443 45.6095 51.1246 46.2144C51.7049 46.8193 52.0309 47.6397 52.0309 48.4951V51.6068C52.0374 51.6828 52.0516 51.7579 52.0732 51.8309C50.628 52.1033 49.3328 52.9296 48.4426 54.1472C47.5523 55.3649 47.1313 56.8857 47.2625 58.4106C47.3937 59.9354 48.0675 61.3539 49.1514 62.387C50.2353 63.4201 51.6508 63.993 53.1195 63.993C54.5882 63.993 56.0037 63.4201 57.0876 62.387C58.1715 61.3539 58.8453 59.9354 58.9765 58.4106C59.1077 56.8857 58.6867 55.3649 57.7965 54.1472C56.9062 52.9296 55.611 52.1033 54.1658 51.8309L54.1756 51.8326ZM14.5755 57.8522C14.5755 58.6157 14.3584 59.3621 13.9514 59.9969C13.5445 60.6317 12.9662 61.1265 12.2895 61.4187C11.6128 61.7108 10.8682 61.7873 10.1499 61.6383C9.43155 61.4894 8.7717 61.1217 8.2538 60.5819C7.7359 60.042 7.38321 59.3541 7.24032 58.6053C7.09743 57.8565 7.17077 57.0803 7.45105 56.3749C7.73134 55.6695 8.20599 55.0666 8.81497 54.6425C9.42396 54.2183 10.1399 53.9919 10.8724 53.9919C11.8541 53.9932 12.7953 54.4004 13.4895 55.124C14.1837 55.8477 14.5743 56.8288 14.5755 57.8522ZM35.702 57.8522C35.702 58.6158 35.4847 59.3622 35.0778 59.9971C34.6708 60.6319 34.0923 61.1267 33.4156 61.4188C32.7388 61.711 31.9941 61.7873 31.2757 61.6382C30.5573 61.4891 29.8975 61.1213 29.3797 60.5813C28.8618 60.0412 28.5093 59.3532 28.3665 58.6043C28.2238 57.8553 28.2974 57.0791 28.5779 56.3737C28.8585 55.6684 29.3334 55.0656 29.9426 54.6416C30.5518 54.2177 31.2679 53.9915 32.0004 53.9919C32.9822 53.9932 33.9233 54.4004 34.6175 55.124C35.3117 55.8477 35.7023 56.8288 35.7036 57.8522H35.702ZM53.1268 61.7142C52.3939 61.7152 51.6771 61.4896 51.0672 61.0658C50.4573 60.6421 49.9817 60.0393 49.7005 59.3337C49.4194 58.6281 49.3453 57.8514 49.4877 57.1019C49.6301 56.3524 49.9826 55.6638 50.5005 55.1232C51.0185 54.5825 51.6786 54.2142 52.3974 54.0648C53.1162 53.9153 53.8613 53.9915 54.5386 54.2837C55.2158 54.5758 55.7947 55.0708 56.202 55.7061C56.6094 56.3413 56.8268 57.0882 56.8268 57.8522C56.8255 58.8746 56.4359 59.8548 55.7431 60.5786C55.0504 61.3023 54.1109 61.7106 53.1301 61.7142H53.1268Z" fill="#FFAA03"/>
</svg>
