<svg width="64" height="64" viewBox="0 0 64 64" fill="none" xmlns="http://www.w3.org/2000/svg">
<path d="M45.1642 4.87865C40.1853 0.788661 33.631 -0.838855 27.1851 0.412124C18.5073 2.09594 11.5378 9.39782 10.2366 18.1693C9.17522 25.3271 11.7263 32.4755 17.0609 37.2922C19.4645 39.4623 20.9146 42.5879 21.1449 46.0944C21.1493 46.158 21.1618 46.2194 21.1757 46.2801V57.2757C21.1757 57.8811 21.6679 58.3724 22.2759 58.3724H23.3725C23.8192 61.5595 26.1693 64 28.9998 64H33.9948C36.8253 64 39.1746 61.5595 39.6213 58.3724H40.7179C41.3252 58.3724 41.8181 57.8811 41.8181 57.2757V46.1046C41.8181 46.1025 41.8188 46.1003 41.8188 46.0973C41.8188 42.835 43.3048 39.6845 46.0041 37.2264C50.4504 33.1774 53 27.4182 53 21.4265C53.0007 15.0013 50.1446 8.96937 45.1642 4.87865ZM27.6069 25.6927H25.9162C24.9839 25.6927 24.2255 24.9367 24.2255 24.0074C24.2255 23.0782 24.9839 22.3222 25.9162 22.3222C26.8485 22.3222 27.6069 23.0782 27.6069 24.0074V25.6927ZM35.3884 24.0074C35.3884 23.0782 36.1468 22.3222 37.0798 22.3222C38.012 22.3222 38.7705 23.0782 38.7705 24.0074C38.7705 24.9367 38.012 25.6927 37.0798 25.6927H35.3906L35.3884 24.0074ZM34.726 47.1158H39.6184V56.179H38.6113C38.6091 56.179 38.6069 56.1783 38.604 56.1783C38.601 56.1783 38.5996 56.179 38.5966 56.179H24.3979C24.3957 56.179 24.3935 56.1783 24.3906 56.1783C24.3876 56.1783 24.3862 56.179 24.3832 56.179H23.3769V47.1158H33.9141M29.8073 44.9224V27.8861H33.1938L33.2187 44.9224H29.8073ZM33.9948 61.8066H28.9998C27.3582 61.8066 25.98 60.3414 25.5986 58.3724H37.3952C37.0145 60.3414 35.6363 61.8066 33.9948 61.8066ZM44.5202 35.6077C41.6802 38.1937 39.999 41.4663 39.6844 44.9224H35.4185L35.3942 27.8861H37.0798C39.2252 27.8861 40.9709 26.146 40.9709 24.0074C40.9709 21.8689 39.2252 20.1287 37.0798 20.1287C34.9336 20.1287 33.1879 21.8689 33.1879 24.0089L33.1901 25.6927H29.8073V24.0074C29.8073 21.8689 28.0616 20.1287 25.9162 20.1287C23.7708 20.1287 22.0251 21.8689 22.0251 24.0074C22.0251 26.146 23.7708 27.8861 25.9162 27.8861H27.6069V44.9224H23.2265C22.76 41.263 21.1258 38.0022 18.5374 35.6662C13.7492 31.3422 11.4593 24.9214 12.4128 18.4895C13.5798 10.6225 19.8268 4.0744 27.6047 2.5646C33.405 1.44011 39.2949 2.89946 43.7633 6.57124C48.2346 10.2437 50.7988 15.6586 50.7988 21.4272C50.8003 26.804 48.5111 31.9732 44.5202 35.6077Z" fill="#FFAA03"/>
</svg>
