<svg width="64" height="64" viewBox="0 0 64 64" fill="none" xmlns="http://www.w3.org/2000/svg">
<path d="M2.35539 6.82816H61.6446C62.507 6.82816 63.2055 7.52737 63.2055 8.38911V46.6911C63.2055 47.5529 62.507 48.2521 61.6446 48.2521H36.5778V54.0499H41.6741C43.7272 54.0499 43.7272 57.1719 41.6741 57.1719C35.2247 57.1719 28.7753 57.1719 22.3258 57.1719C20.2728 57.1719 20.2728 54.0499 22.3258 54.0499H27.4222V48.2521H2.35539C1.49365 48.2521 0.794434 47.5529 0.794434 46.6911V8.38911C0.794434 7.52737 1.49365 6.82816 2.35539 6.82816ZM51.662 24.4598C51.662 22.4067 54.7847 22.4067 54.7847 24.4598V35.8688C54.7847 37.9226 51.662 37.9226 51.662 35.8688V24.4598ZM44.4748 19.2115C44.4748 17.1577 47.5967 17.1577 47.5967 19.2115V35.8688C47.5967 37.9226 44.4748 37.9226 44.4748 35.8688V19.2115ZM37.2868 27.5401C37.2868 25.4871 40.4087 25.4871 40.4087 27.5401V35.8688C40.4087 37.9226 37.2868 37.9226 37.2868 35.8688V27.5401ZM26.9883 32.9887H31.6538C33.7068 32.9887 33.7068 36.1107 31.6538 36.1107H26.9883C25.992 37.3549 24.0795 37.3549 23.0832 36.1107H10.2811C8.22807 36.1107 8.22807 32.9887 10.2811 32.9887H23.0832C24.0788 31.7445 25.9927 31.7445 26.9883 32.9887ZM14.9466 25.9792H10.2811C8.22807 25.9792 8.22807 29.1011 10.2811 29.1011H14.9466C15.9421 30.3453 17.8554 30.3453 18.8509 29.1011H31.6538C33.7068 29.1011 33.7068 25.9792 31.6538 25.9792H18.8516C17.8554 24.7349 15.9421 24.7349 14.9466 25.9792ZM26.9883 18.9688H31.6538C33.7068 18.9688 33.7068 22.0915 31.6538 22.0915H26.9883C25.992 23.335 24.0795 23.335 23.0832 22.0915H10.2811C8.22807 22.0915 8.22807 18.9688 10.2811 18.9688H23.0832C24.0788 17.7254 25.9927 17.7254 26.9883 18.9688ZM33.4559 48.2521H30.5441V54.0499H33.4559V48.2521ZM60.0836 9.95007H3.91635V45.1302C22.6388 45.1302 41.3612 45.1302 60.0836 45.1302V9.95007Z" fill="#FFAA03"/>
</svg>
