<svg width="64" height="64" viewBox="0 0 64 64" fill="none" xmlns="http://www.w3.org/2000/svg">
<path d="M32 41C36.962 41 41 36.963 41 32C41 27.037 36.962 23 32 23C27.038 23 23 27.037 23 32C23 36.963 27.038 41 32 41ZM31 32C31 31.448 31.449 31 32 31C32.551 31 33 31.448 33 32C33 32.552 32.551 33 32 33C31.449 33 31 32.552 31 32ZM32 25C35.86 25 39 28.141 39 32C39 35.519 36.387 38.432 33 38.92V34.816C34.161 34.402 35 33.302 35 32C35 30.346 33.654 29 32 29C30.346 29 29 30.346 29 32C29 33.302 29.839 34.402 31 34.816V38.92C27.613 38.432 25 35.519 25 32C25 28.141 28.14 25 32 25Z" fill="#FFAA03"/>
<path d="M43.607 26.167L41.821 27.067C42.069 27.558 42.277 28.056 42.438 28.545L42.627 29.118L47 29.848V34.153L42.627 34.882L42.438 35.455C42.277 35.943 42.069 36.441 41.821 36.933L41.549 37.473L44.129 41.084L41.085 44.129L37.473 41.549L36.934 41.82C36.441 42.068 35.943 42.276 35.455 42.437L34.882 42.626L34.153 47H29.847L29.118 42.627L28.545 42.438C28.057 42.277 27.559 42.069 27.066 41.821L26.527 41.55L22.915 44.13L19.271 40.486L17.857 41.9L22.7 46.74L26.72 43.869C26.927 43.962 27.135 44.049 27.342 44.129L28.153 49H35.847L36.659 44.129C36.866 44.049 37.074 43.962 37.281 43.869L41.301 46.74L46.742 41.301L43.87 37.28C43.963 37.073 44.05 36.866 44.13 36.658L49 35.848V28.153L44.13 27.342C43.978 26.949 43.803 26.556 43.607 26.167Z" fill="#FFAA03"/>
<path d="M15 28.152V35.847L19.87 36.658C20.022 37.051 20.197 37.444 20.393 37.833L22.179 36.933C21.931 36.442 21.723 35.944 21.562 35.455L21.373 34.882L17 34.152V29.847L21.373 29.118L21.562 28.545C21.723 28.057 21.931 27.559 22.179 27.067L22.451 26.527L19.871 22.916L22.915 19.871L26.527 22.451L27.067 22.179C27.554 21.933 28.051 21.726 28.545 21.563L29.118 21.374L29.847 17H34.153L34.882 21.373L35.455 21.562C35.949 21.725 36.446 21.932 36.933 22.178L37.473 22.45L41.085 19.87L44.729 23.514L46.143 22.1L41.3 17.258L37.28 20.13C37.073 20.037 36.866 19.951 36.658 19.87L35.847 15H28.153L27.341 19.87C27.133 19.951 26.925 20.037 26.719 20.13L22.699 17.258L17.258 22.699L20.13 26.72C20.037 26.927 19.95 27.134 19.87 27.342L15 28.152Z" fill="#FFAA03"/>
<path d="M33 19H31V21H33V19Z" fill="#FFAA03"/>
<path d="M23.5148 22.1004L22.1006 23.5146L23.5148 24.9288L24.929 23.5146L23.5148 22.1004Z" fill="#FFAA03"/>
<path d="M21 31H19V33H21V31Z" fill="#FFAA03"/>
<path d="M23.5142 39.0706L22.1 40.4848L23.5142 41.899L24.9284 40.4848L23.5142 39.0706Z" fill="#FFAA03"/>
<path d="M33 43H31V45H33V43Z" fill="#FFAA03"/>
<path d="M40.4843 39.0712L39.0701 40.4854L40.4843 41.8996L41.8985 40.4854L40.4843 39.0712Z" fill="#FFAA03"/>
<path d="M45 31H43V33H45V31Z" fill="#FFAA03"/>
<path d="M40.4849 22.101L39.0707 23.5152L40.4849 24.9294L41.8991 23.5152L40.4849 22.101Z" fill="#FFAA03"/>
<path d="M62.97 31.758C62.918 31.55 57.486 11 32 11C6.51399 11 1.08199 31.55 1.02999 31.758L0.968994 32L1.02999 32.242C1.08199 32.45 6.51399 53 32 53C57.486 53 62.918 32.45 62.97 32.242L63.031 32L62.97 31.758ZM3.03799 32.005C3.55999 30.272 7.25799 19.559 19.687 15.025C14.435 18.846 11 25.022 11 32C11 39.025 14.479 45.239 19.793 49.054C7.17599 44.594 3.57199 33.859 3.03799 32.005ZM32 13C42.477 13 51 21.523 51 32C51 42.477 42.477 51 32 51C21.523 51 13 42.477 13 32C13 21.523 21.523 13 32 13ZM44.313 48.975C49.565 45.154 53 38.978 53 32C53 24.975 49.521 18.761 44.207 14.946C56.824 19.406 60.427 30.141 60.961 31.995C60.44 33.729 56.742 44.441 44.313 48.975Z" fill="#FFAA03"/>
<path d="M31 58C31 58.552 30.551 59 30 59H13.816C13.402 57.839 12.302 57 11 57C9.346 57 8 58.346 8 60C8 61.654 9.346 63 11 63C12.302 63 13.402 62.161 13.816 61H30C31.654 61 33 59.654 33 58V55H31V58ZM11 61C10.449 61 10 60.552 10 60C10 59.448 10.449 59 11 59C11.551 59 12 59.448 12 60C12 60.552 11.551 61 11 61Z" fill="#FFAA03"/>
<path d="M11 54C12.654 54 14 52.654 14 51V50H12V51C12 51.552 11.551 52 11 52H6.816C6.402 50.839 5.302 50 4 50C2.346 50 1 51.346 1 53C1 54.654 2.346 56 4 56C5.302 56 6.402 55.161 6.816 54H11ZM4 54C3.449 54 3 53.552 3 53C3 52.448 3.449 52 4 52C4.551 52 5 52.448 5 53C5 53.552 4.551 54 4 54Z" fill="#FFAA03"/>
<path d="M60 8C58.698 8 57.598 8.839 57.184 10H53C51.346 10 50 11.346 50 13V14H52V13C52 12.448 52.449 12 53 12H57.184C57.598 13.161 58.698 14 60 14C61.654 14 63 12.654 63 11C63 9.346 61.654 8 60 8ZM60 12C59.449 12 59 11.552 59 11C59 10.448 59.449 10 60 10C60.551 10 61 10.448 61 11C61 11.552 60.551 12 60 12Z" fill="#FFAA03"/>
<path d="M53 7C54.654 7 56 5.654 56 4C56 2.346 54.654 1 53 1C51.698 1 50.598 1.839 50.184 3H34C32.346 3 31 4.346 31 6V9H33V6C33 5.448 33.449 5 34 5H50.184C50.598 6.161 51.698 7 53 7ZM53 3C53.551 3 54 3.448 54 4C54 4.552 53.551 5 53 5C52.449 5 52 4.552 52 4C52 3.448 52.449 3 53 3Z" fill="#FFAA03"/>
</svg>
