<svg width="1233" height="637" viewBox="0 0 1233 637" fill="none" xmlns="http://www.w3.org/2000/svg">
<g clip-path="url(#clip0_23_301)">
<path d="M93.5 109.937C65.4703 109.937 35.3125 118.387 35.3125 136.953V215.921C35.3125 234.479 65.4703 242.937 93.5 242.937C121.526 242.937 151.688 234.479 151.688 215.921V136.953C151.688 118.387 121.521 109.937 93.5 109.937ZM143.375 215.921C143.375 226.246 121.043 234.625 93.5 234.625C65.9524 234.625 43.625 226.246 43.625 215.921V200.394C52.2118 209.242 72.9266 213.843 93.5 213.843C114.073 213.843 134.788 209.242 143.375 200.394V215.921ZM143.375 190.984H143.358C143.358 191.025 143.375 191.071 143.375 191.113C143.375 201.375 121.043 209.687 93.5 209.687C65.9565 209.687 43.625 201.375 43.625 191.113C43.625 191.071 43.6416 191.025 43.6416 190.984H43.625V175.456C52.2118 184.305 72.9266 188.906 93.5 188.906C114.073 188.906 134.788 184.305 143.375 175.456V190.984ZM143.375 166.046H143.358C143.358 166.088 143.375 166.134 143.375 166.175C143.375 176.437 121.043 184.75 93.5 184.75C65.9565 184.75 43.625 176.437 43.625 166.175C43.625 166.134 43.6416 166.088 43.6416 166.046H43.625V151.766C54.5185 160.066 74.4852 163.968 93.5 163.968C112.515 163.968 132.481 160.066 143.375 151.766V166.046ZM93.5 155.656C65.9524 155.656 43.625 147.277 43.625 136.953C43.625 126.62 65.9524 118.25 93.5 118.25C121.043 118.25 143.375 126.62 143.375 136.953C143.375 147.277 121.043 155.656 93.5 155.656Z" fill="#FFAA03"/>
<path d="M130.906 222.156C133.202 222.156 135.062 220.295 135.062 218C135.062 215.704 133.202 213.843 130.906 213.843C128.611 213.843 126.75 215.704 126.75 218C126.75 220.295 128.611 222.156 130.906 222.156Z" fill="#FFAA03"/>
<path d="M130.906 197.218C133.202 197.218 135.062 195.357 135.062 193.062C135.062 190.767 133.202 188.906 130.906 188.906C128.611 188.906 126.75 190.767 126.75 193.062C126.75 195.357 128.611 197.218 130.906 197.218Z" fill="#FFAA03"/>
<path d="M130.906 172.281C133.202 172.281 135.062 170.42 135.062 168.125C135.062 165.829 133.202 163.968 130.906 163.968C128.611 163.968 126.75 165.829 126.75 168.125C126.75 170.42 128.611 172.281 130.906 172.281Z" fill="#FFAA03"/>
</g>
<path d="M674.788 67.762L641.524 71.931L640.336 77.453L646.881 78.641C651.138 79.664 651.985 81.193 651.061 85.45L640.336 135.797C637.531 148.81 641.876 154.937 652.073 154.937C659.993 154.937 669.167 151.285 673.336 146.258L674.612 140.219C671.719 142.771 667.462 143.794 664.657 143.794C660.664 143.794 659.223 140.989 660.235 136.05L674.788 67.762ZM675.789 37.457C675.789 41.308 674.259 45.0012 671.536 47.7242C668.813 50.4472 665.12 51.977 661.269 51.977C657.418 51.977 653.725 50.4472 651.002 47.7242C648.279 45.0012 646.749 41.308 646.749 37.457C646.749 33.6061 648.279 29.9128 651.002 27.1898C653.725 24.4668 657.418 22.937 661.269 22.937C665.12 22.937 668.813 24.4668 671.536 27.1898C674.259 29.9128 675.789 33.6061 675.789 37.457Z" fill="#FFAA03"/>
<g clip-path="url(#clip1_23_301)">
<path d="M958.736 349.727C958.736 347.207 958.239 344.711 957.275 342.383C956.31 340.055 954.897 337.939 953.115 336.157C951.333 334.375 949.217 332.961 946.889 331.997C944.56 331.032 942.065 330.536 939.544 330.536C937.024 330.536 934.529 331.032 932.2 331.997C929.872 332.961 927.756 334.375 925.974 336.157C924.192 337.939 922.779 340.055 921.814 342.383C920.85 344.711 920.353 347.207 920.353 349.727C920.372 352.718 921.098 355.661 922.47 358.319C918.067 359.642 914.286 362.506 911.821 366.387C909.356 370.269 908.371 374.908 909.046 379.457C909.721 384.005 912.011 388.158 915.497 391.157C918.983 394.155 923.432 395.799 928.03 395.786" stroke="#FFAA03" stroke-width="6" stroke-linecap="round" stroke-linejoin="round"/>
<path d="M908.984 387.102C905.855 389.689 903.392 392.989 901.803 396.726C900.213 400.462 899.544 404.526 899.85 408.575C900.157 412.624 901.43 416.54 903.564 419.994C905.698 423.449 908.63 426.341 912.113 428.428C915.596 430.515 919.529 431.735 923.582 431.987C927.634 432.239 931.688 431.514 935.403 429.874C939.118 428.235 942.385 425.727 944.929 422.563C947.474 419.399 949.222 415.671 950.028 411.691V410.437" stroke="#FFAA03" stroke-width="6" stroke-miterlimit="10" stroke-linecap="round"/>
<path d="M926.562 462.378C922.926 460.466 919.883 457.597 917.76 454.081C915.637 450.564 914.515 446.535 914.516 442.427C914.539 438.916 915.391 435.459 917.002 432.338" stroke="#FFAA03" stroke-width="6" stroke-linecap="round" stroke-linejoin="round"/>
<path d="M964.875 366.937C964.875 371.744 962.965 376.354 959.566 379.753C956.167 383.152 951.557 385.062 946.75 385.062" stroke="#FFAA03" stroke-width="6" stroke-miterlimit="10" stroke-linecap="round"/>
<path d="M964.875 366.973H1006.56L1013.89 359.651" stroke="#FFAA03" stroke-width="6" stroke-miterlimit="10" stroke-linecap="round"/>
<path d="M988.438 381.473H1010.19L1017.51 374.151H1037.38" stroke="#FFAA03" stroke-width="6" stroke-miterlimit="10" stroke-linecap="round"/>
<path d="M986.324 424.901H1006.56L1013.89 432.223" stroke="#FFAA03" stroke-width="6" stroke-miterlimit="10" stroke-linecap="round"/>
<path d="M986.324 410.401H1010.19L1017.51 417.723H1037.37" stroke="#FFAA03" stroke-width="6" stroke-miterlimit="10" stroke-linecap="round"/>
<path d="M1037.37 446.724H1010.26L1004.75 439.399L986.776 439.4V461.338C986.776 466.145 984.866 470.756 981.467 474.155C978.068 477.554 973.458 479.463 968.651 479.463C963.844 479.463 959.234 477.554 955.835 474.155C952.436 470.756 950.526 466.145 950.526 461.338" stroke="#FFAA03" stroke-width="6" stroke-miterlimit="10" stroke-linecap="round"/>
<path d="M957.776 323.922C958.594 320.41 960.674 317.322 963.622 315.245C966.569 313.167 970.178 312.247 973.76 312.658C977.343 313.069 980.649 314.783 983.049 317.475C985.449 320.166 986.776 323.645 986.776 327.251V352.473L1002.94 352.474L1010.26 345.149H1037.37" stroke="#FFAA03" stroke-width="6" stroke-miterlimit="10" stroke-linecap="round"/>
<path d="M1026.5 395.937H986.776" stroke="#FFAA03" stroke-width="6" stroke-miterlimit="10" stroke-linecap="round"/>
<path d="M935.875 385.062C937.877 385.062 939.5 383.439 939.5 381.437C939.5 379.435 937.877 377.812 935.875 377.812C933.873 377.812 932.25 379.435 932.25 381.437C932.25 383.439 933.873 385.062 935.875 385.062Z" fill="#FFAA03"/>
<path d="M938.745 470.25C940.747 470.25 942.37 468.627 942.37 466.625C942.37 464.622 940.747 463 938.745 463C936.743 463 935.12 464.622 935.12 466.625C935.12 468.627 936.743 470.25 938.745 470.25Z" fill="#FFAA03"/>
<path d="M1046.36 352.437C1050.37 352.437 1053.61 349.191 1053.61 345.187C1053.61 341.183 1050.37 337.937 1046.36 337.937C1042.36 337.937 1039.11 341.183 1039.11 345.187C1039.11 349.191 1042.36 352.437 1046.36 352.437Z" stroke="#FFAA03" stroke-width="6" stroke-miterlimit="10" stroke-linecap="round"/>
<path d="M1046.36 381.437C1050.37 381.437 1053.61 378.191 1053.61 374.187C1053.61 370.183 1050.37 366.937 1046.36 366.937C1042.36 366.937 1039.11 370.183 1039.11 374.187C1039.11 378.191 1042.36 381.437 1046.36 381.437Z" stroke="#FFAA03" stroke-width="6" stroke-miterlimit="10" stroke-linecap="round"/>
<path d="M1046.36 424.937C1050.37 424.937 1053.61 421.691 1053.61 417.687C1053.61 413.683 1050.37 410.437 1046.36 410.437C1042.36 410.437 1039.11 413.683 1039.11 417.687C1039.11 421.691 1042.36 424.937 1046.36 424.937Z" stroke="#FFAA03" stroke-width="6" stroke-miterlimit="10" stroke-linecap="round"/>
<path d="M1046.36 453.937C1050.37 453.937 1053.61 450.691 1053.61 446.687C1053.61 442.683 1050.37 439.437 1046.36 439.437C1042.36 439.437 1039.11 442.683 1039.11 446.687C1039.11 450.691 1042.36 453.937 1046.36 453.937Z" stroke="#FFAA03" stroke-width="6" stroke-miterlimit="10" stroke-linecap="round"/>
</g>
<path d="M467.281 463.999C468.125 463.999 468.969 463.648 469.672 463.015C476.914 455.843 486.406 452.539 499.414 452.539C499.484 452.539 499.625 452.539 499.695 452.539C502.227 452.539 504.898 452.679 507.57 452.749C519.523 453.242 533.023 453.734 543.5 445.789L548 450.078C548.633 450.71 549.477 450.992 550.32 450.992C550.672 450.992 550.953 450.921 551.305 450.851C552.43 450.499 553.344 449.585 553.625 448.39L558.195 428.914C558.477 427.718 558.125 426.523 557.211 425.679C556.297 424.835 555.102 424.554 553.906 424.906L534.781 430.671C533.656 431.023 532.742 431.937 532.461 433.132C532.18 434.328 532.531 435.523 533.445 436.367L538.438 441.078C530 446.843 518.75 446.421 507.852 445.999C505.109 445.859 502.367 445.789 499.766 445.789C499.695 445.789 499.555 445.789 499.484 445.789C484.578 445.789 473.609 449.726 465.031 458.234C463.695 459.57 463.695 461.679 464.961 463.015C465.523 463.648 466.438 463.999 467.281 463.999ZM550.25 433.062L548.352 441.148L542.305 435.453L550.25 433.062Z" fill="#FFAA03"/>
<path d="M497.164 428.773C497.586 428.773 497.938 428.703 498.359 428.562L501.945 427.226L503.281 430.812C503.773 432.148 505.109 432.992 506.445 432.992C506.867 432.992 507.219 432.921 507.641 432.781C509.398 432.148 510.313 430.179 509.609 428.421L508.273 424.835L511.859 423.499C513.617 422.867 514.531 420.898 513.828 419.14C513.195 417.382 511.227 416.539 509.469 417.171L505.883 418.507L504.547 414.921C503.914 413.164 501.945 412.32 500.188 412.953C498.43 413.585 497.516 415.554 498.219 417.312L499.555 420.898L495.969 422.234C494.211 422.867 493.297 424.835 494 426.593C494.492 427.929 495.758 428.773 497.164 428.773Z" fill="#FFAA03"/>
<path d="M508.766 464.351C503.352 461.89 496.883 464.281 494.422 469.695C493.227 472.296 493.156 475.25 494.141 477.992C495.125 480.734 497.164 482.843 499.766 484.039C501.172 484.671 502.719 485.023 504.266 485.023C505.531 485.023 506.867 484.812 508.062 484.32C510.805 483.335 512.914 481.296 514.109 478.695C515.305 476.093 515.375 473.14 514.391 470.398C513.406 467.726 511.437 465.546 508.766 464.351ZM507.992 475.882C507.57 476.867 506.727 477.64 505.742 477.992C504.758 478.343 503.633 478.343 502.648 477.851C501.664 477.429 500.891 476.585 500.539 475.601C500.187 474.617 500.187 473.492 500.68 472.507C501.383 471.031 502.859 470.117 504.406 470.117C504.969 470.117 505.531 470.257 506.094 470.468C507.078 470.89 507.852 471.734 508.203 472.718C508.484 473.843 508.414 474.898 507.992 475.882Z" fill="#FFAA03"/>
<path d="M552.992 418.578C553.695 419.421 554.609 419.843 555.664 419.843C556.367 419.843 557.141 419.632 557.773 419.14L575.562 405.007C577.039 403.812 577.25 401.703 576.125 400.226C575 398.75 572.82 398.539 571.344 399.664L556.156 411.757L551.094 405.5C549.898 404.023 547.789 403.812 546.312 405.007C544.836 406.203 544.625 408.312 545.82 409.789L552.992 418.578Z" fill="#FFAA03"/>
<path d="M603.828 386.304H438.172C436.273 386.304 434.797 387.851 434.797 389.679C434.797 391.507 436.344 393.054 438.172 393.054H446.258V495.851C446.258 497.75 447.805 499.226 449.633 499.226H487.18L472.906 545.14C472.344 546.898 473.328 548.796 475.156 549.359C475.508 549.5 475.859 549.5 476.141 549.5C477.617 549.5 478.953 548.585 479.375 547.109L494.281 499.296H547.719L562.625 547.179C563.047 548.656 564.383 549.57 565.859 549.57C566.211 549.57 566.563 549.5 566.844 549.429C568.602 548.867 569.656 546.968 569.094 545.21L554.82 499.296H592.367C594.266 499.296 595.742 497.75 595.742 495.921V393.125H603.828C605.727 393.125 607.203 391.578 607.203 389.75C607.203 387.921 605.656 386.304 603.828 386.304ZM588.992 492.476H453.008V393.125H588.992V492.476Z" fill="#FFAA03"/>
<g clip-path="url(#clip2_23_301)">
<path d="M155.4 402.937H145C136.384 402.937 129.4 409.921 129.4 418.537V543.337C129.4 551.953 136.384 558.937 145 558.937H155.4C164.016 558.937 171 551.953 171 543.337V418.537C171 409.921 164.016 402.937 155.4 402.937Z" fill="#FFAA03"/>
<path d="M98.2 465.337H87.8C79.1844 465.337 72.2 472.321 72.2 480.937V543.337C72.2 551.953 79.1844 558.937 87.8 558.937H98.2C106.816 558.937 113.8 551.953 113.8 543.337V480.937C113.8 472.321 106.816 465.337 98.2 465.337Z" fill="#FFAA03"/>
<path d="M41 506.937H30.6C21.9844 506.937 15 513.921 15 522.537V543.337C15 551.953 21.9844 558.937 30.6 558.937H41C49.6156 558.937 56.6 551.953 56.6 543.337V522.537C56.6 513.921 49.6156 506.937 41 506.937Z" fill="#FFAA03"/>
</g>
<path d="M26.905 299.937V275.437H38.035C40.695 275.437 43.04 275.95 45.07 276.977C47.1 277.98 48.6867 279.392 49.83 281.212C50.9733 283.032 51.545 285.19 51.545 287.687C51.545 290.16 50.9733 292.319 49.83 294.162C48.6867 295.982 47.1 297.405 45.07 298.432C43.04 299.435 40.695 299.937 38.035 299.937H26.905ZM32.575 295.282H37.755C39.3883 295.282 40.8 294.979 41.99 294.372C43.2033 293.742 44.1367 292.855 44.79 291.712C45.4667 290.569 45.805 289.227 45.805 287.687C45.805 286.124 45.4667 284.782 44.79 283.662C44.1367 282.519 43.2033 281.644 41.99 281.037C40.8 280.407 39.3883 280.092 37.755 280.092H32.575V295.282ZM52.2592 299.937L63.1792 275.437H68.7792L79.7342 299.937H73.7842L64.8242 278.307H67.0642L58.0692 299.937H52.2592ZM57.7192 294.687L59.2242 290.382H71.8242L73.3642 294.687H57.7192ZM82.2761 299.937V275.437H93.4061C96.0661 275.437 98.4111 275.95 100.441 276.977C102.471 277.98 104.058 279.392 105.201 281.212C106.344 283.032 106.916 285.19 106.916 287.687C106.916 290.16 106.344 292.319 105.201 294.162C104.058 295.982 102.471 297.405 100.441 298.432C98.4111 299.435 96.0661 299.937 93.4061 299.937H82.2761ZM87.9461 295.282H93.1261C94.7594 295.282 96.1711 294.979 97.3611 294.372C98.5744 293.742 99.5078 292.855 100.161 291.712C100.838 290.569 101.176 289.227 101.176 287.687C101.176 286.124 100.838 284.782 100.161 283.662C99.5078 282.519 98.5744 281.644 97.3611 281.037C96.1711 280.407 94.7594 280.092 93.1261 280.092H87.9461V295.282ZM123.092 300.357C121.155 300.357 119.359 300.042 117.702 299.412C116.069 298.782 114.645 297.895 113.432 296.752C112.242 295.609 111.309 294.267 110.632 292.727C109.979 291.187 109.652 289.507 109.652 287.687C109.652 285.867 109.979 284.187 110.632 282.647C111.309 281.107 112.254 279.765 113.467 278.622C114.68 277.479 116.104 276.592 117.737 275.962C119.37 275.332 121.144 275.017 123.057 275.017C124.994 275.017 126.767 275.332 128.377 275.962C130.01 276.592 131.422 277.479 132.612 278.622C133.825 279.765 134.77 281.107 135.447 282.647C136.124 284.164 136.462 285.844 136.462 287.687C136.462 289.507 136.124 291.199 135.447 292.762C134.77 294.302 133.825 295.644 132.612 296.787C131.422 297.907 130.01 298.782 128.377 299.412C126.767 300.042 125.005 300.357 123.092 300.357ZM123.057 295.527C124.154 295.527 125.157 295.34 126.067 294.967C127 294.594 127.817 294.057 128.517 293.357C129.217 292.657 129.754 291.829 130.127 290.872C130.524 289.915 130.722 288.854 130.722 287.687C130.722 286.52 130.524 285.459 130.127 284.502C129.754 283.545 129.217 282.717 128.517 282.017C127.84 281.317 127.035 280.78 126.102 280.407C125.169 280.034 124.154 279.847 123.057 279.847C121.96 279.847 120.945 280.034 120.012 280.407C119.102 280.78 118.297 281.317 117.597 282.017C116.897 282.717 116.349 283.545 115.952 284.502C115.579 285.459 115.392 286.52 115.392 287.687C115.392 288.83 115.579 289.892 115.952 290.872C116.349 291.829 116.885 292.657 117.562 293.357C118.262 294.057 119.079 294.594 120.012 294.967C120.945 295.34 121.96 295.527 123.057 295.527ZM148.773 300.357C146.813 300.357 144.935 300.1 143.138 299.587C141.342 299.05 139.895 298.362 138.798 297.522L140.723 293.252C141.773 293.999 143.01 294.617 144.433 295.107C145.88 295.574 147.338 295.807 148.808 295.807C149.928 295.807 150.827 295.702 151.503 295.492C152.203 295.259 152.717 294.944 153.043 294.547C153.37 294.15 153.533 293.695 153.533 293.182C153.533 292.529 153.277 292.015 152.763 291.642C152.25 291.245 151.573 290.93 150.733 290.697C149.893 290.44 148.96 290.207 147.933 289.997C146.93 289.764 145.915 289.484 144.888 289.157C143.885 288.83 142.963 288.41 142.123 287.897C141.283 287.384 140.595 286.707 140.058 285.867C139.545 285.027 139.288 283.954 139.288 282.647C139.288 281.247 139.662 279.975 140.408 278.832C141.178 277.665 142.322 276.744 143.838 276.067C145.378 275.367 147.303 275.017 149.613 275.017C151.153 275.017 152.67 275.204 154.163 275.577C155.657 275.927 156.975 276.464 158.118 277.187L156.368 281.492C155.225 280.839 154.082 280.36 152.938 280.057C151.795 279.73 150.675 279.567 149.578 279.567C148.482 279.567 147.583 279.695 146.883 279.952C146.183 280.209 145.682 280.547 145.378 280.967C145.075 281.364 144.923 281.83 144.923 282.367C144.923 282.997 145.18 283.51 145.693 283.907C146.207 284.28 146.883 284.584 147.723 284.817C148.563 285.05 149.485 285.284 150.488 285.517C151.515 285.75 152.53 286.019 153.533 286.322C154.56 286.625 155.493 287.034 156.333 287.547C157.173 288.06 157.85 288.737 158.363 289.577C158.9 290.417 159.168 291.479 159.168 292.762C159.168 294.139 158.783 295.399 158.013 296.542C157.243 297.685 156.088 298.607 154.548 299.307C153.032 300.007 151.107 300.357 148.773 300.357Z" fill="black"/>
<path d="M529.63 223.357C527.74 223.357 525.978 223.054 524.345 222.447C522.735 221.817 521.335 220.93 520.145 219.787C518.955 218.644 518.022 217.302 517.345 215.762C516.692 214.222 516.365 212.53 516.365 210.687C516.365 208.844 516.692 207.152 517.345 205.612C518.022 204.072 518.955 202.73 520.145 201.587C521.358 200.444 522.77 199.569 524.38 198.962C525.99 198.332 527.752 198.017 529.665 198.017C531.788 198.017 533.702 198.39 535.405 199.137C537.132 199.86 538.578 200.934 539.745 202.357L536.105 205.717C535.265 204.76 534.332 204.049 533.305 203.582C532.278 203.092 531.158 202.847 529.945 202.847C528.802 202.847 527.752 203.034 526.795 203.407C525.838 203.78 525.01 204.317 524.31 205.017C523.61 205.717 523.062 206.545 522.665 207.502C522.292 208.459 522.105 209.52 522.105 210.687C522.105 211.854 522.292 212.915 522.665 213.872C523.062 214.829 523.61 215.657 524.31 216.357C525.01 217.057 525.838 217.594 526.795 217.967C527.752 218.34 528.802 218.527 529.945 218.527C531.158 218.527 532.278 218.294 533.305 217.827C534.332 217.337 535.265 216.602 536.105 215.622L539.745 218.982C538.578 220.405 537.132 221.49 535.405 222.237C533.702 222.984 531.777 223.357 529.63 223.357ZM551.5 223.217C549.493 223.217 547.708 222.797 546.145 221.957C544.605 221.117 543.38 219.974 542.47 218.527C541.583 217.057 541.14 215.389 541.14 213.522C541.14 211.632 541.583 209.964 542.47 208.517C543.38 207.047 544.605 205.904 546.145 205.087C547.708 204.247 549.493 203.827 551.5 203.827C553.483 203.827 555.256 204.247 556.82 205.087C558.383 205.904 559.608 207.035 560.495 208.482C561.381 209.929 561.825 211.609 561.825 213.522C561.825 215.389 561.381 217.057 560.495 218.527C559.608 219.974 558.383 221.117 556.82 221.957C555.256 222.797 553.483 223.217 551.5 223.217ZM551.5 218.737C552.41 218.737 553.226 218.527 553.95 218.107C554.673 217.687 555.245 217.092 555.665 216.322C556.085 215.529 556.295 214.595 556.295 213.522C556.295 212.425 556.085 211.492 555.665 210.722C555.245 209.952 554.673 209.357 553.95 208.937C553.226 208.517 552.41 208.307 551.5 208.307C550.59 208.307 549.773 208.517 549.05 208.937C548.326 209.357 547.743 209.952 547.3 210.722C546.88 211.492 546.67 212.425 546.67 213.522C546.67 214.595 546.88 215.529 547.3 216.322C547.743 217.092 548.326 217.687 549.05 218.107C549.773 218.527 550.59 218.737 551.5 218.737ZM576.919 203.827C578.412 203.827 579.742 204.13 580.909 204.737C582.099 205.32 583.032 206.23 583.709 207.467C584.386 208.68 584.724 210.244 584.724 212.157V222.937H579.264V212.997C579.264 211.48 578.926 210.36 578.249 209.637C577.596 208.914 576.662 208.552 575.449 208.552C574.586 208.552 573.804 208.739 573.104 209.112C572.427 209.462 571.891 210.01 571.494 210.757C571.121 211.504 570.934 212.46 570.934 213.627V222.937H565.474V204.107H570.689V209.322L569.709 207.747C570.386 206.487 571.354 205.519 572.614 204.842C573.874 204.165 575.309 203.827 576.919 203.827ZM601.118 203.827C602.612 203.827 603.942 204.13 605.108 204.737C606.298 205.32 607.232 206.23 607.908 207.467C608.585 208.68 608.923 210.244 608.923 212.157V222.937H603.463V212.997C603.463 211.48 603.125 210.36 602.448 209.637C601.795 208.914 600.862 208.552 599.648 208.552C598.785 208.552 598.003 208.739 597.303 209.112C596.627 209.462 596.09 210.01 595.693 210.757C595.32 211.504 595.133 212.46 595.133 213.627V222.937H589.673V196.967H595.133V209.322L593.908 207.747C594.585 206.487 595.553 205.519 596.813 204.842C598.073 204.165 599.508 203.827 601.118 203.827ZM623.354 223.217C621.208 223.217 619.318 222.797 617.684 221.957C616.074 221.117 614.826 219.974 613.939 218.527C613.053 217.057 612.609 215.389 612.609 213.522C612.609 211.632 613.041 209.964 613.904 208.517C614.791 207.047 615.993 205.904 617.509 205.087C619.026 204.247 620.741 203.827 622.654 203.827C624.498 203.827 626.154 204.224 627.624 205.017C629.118 205.787 630.296 206.907 631.159 208.377C632.023 209.824 632.454 211.562 632.454 213.592C632.454 213.802 632.443 214.047 632.419 214.327C632.396 214.584 632.373 214.829 632.349 215.062H617.054V211.877H629.479L627.379 212.822C627.379 211.842 627.181 210.99 626.784 210.267C626.388 209.544 625.839 208.984 625.139 208.587C624.439 208.167 623.623 207.957 622.689 207.957C621.756 207.957 620.928 208.167 620.204 208.587C619.504 208.984 618.956 209.555 618.559 210.302C618.163 211.025 617.964 211.889 617.964 212.892V213.732C617.964 214.759 618.186 215.669 618.629 216.462C619.096 217.232 619.738 217.827 620.554 218.247C621.394 218.644 622.374 218.842 623.494 218.842C624.498 218.842 625.373 218.69 626.119 218.387C626.889 218.084 627.589 217.629 628.219 217.022L631.124 220.172C630.261 221.152 629.176 221.91 627.869 222.447C626.563 222.96 625.058 223.217 623.354 223.217ZM645.189 223.217C643.159 223.217 641.351 222.809 639.764 221.992C638.178 221.152 636.929 219.997 636.019 218.527C635.133 217.057 634.689 215.389 634.689 213.522C634.689 211.632 635.133 209.964 636.019 208.517C636.929 207.047 638.178 205.904 639.764 205.087C641.351 204.247 643.159 203.827 645.189 203.827C647.173 203.827 648.899 204.247 650.369 205.087C651.839 205.904 652.924 207.082 653.624 208.622L649.389 210.897C648.899 210.01 648.281 209.357 647.534 208.937C646.811 208.517 646.018 208.307 645.154 208.307C644.221 208.307 643.381 208.517 642.634 208.937C641.888 209.357 641.293 209.952 640.849 210.722C640.429 211.492 640.219 212.425 640.219 213.522C640.219 214.619 640.429 215.552 640.849 216.322C641.293 217.092 641.888 217.687 642.634 218.107C643.381 218.527 644.221 218.737 645.154 218.737C646.018 218.737 646.811 218.539 647.534 218.142C648.281 217.722 648.899 217.057 649.389 216.147L653.624 218.457C652.924 219.974 651.839 221.152 650.369 221.992C648.899 222.809 647.173 223.217 645.189 223.217ZM656.666 222.937V204.107H662.126V222.937H656.666ZM659.396 201.482C658.392 201.482 657.576 201.19 656.946 200.607C656.316 200.024 656.001 199.3 656.001 198.437C656.001 197.574 656.316 196.85 656.946 196.267C657.576 195.684 658.392 195.392 659.396 195.392C660.399 195.392 661.216 195.672 661.846 196.232C662.476 196.769 662.791 197.469 662.791 198.332C662.791 199.242 662.476 200 661.846 200.607C661.239 201.19 660.422 201.482 659.396 201.482ZM691.308 203.827C692.801 203.827 694.12 204.13 695.263 204.737C696.43 205.32 697.34 206.23 697.993 207.467C698.67 208.68 699.008 210.244 699.008 212.157V222.937H693.548V212.997C693.548 211.48 693.233 210.36 692.603 209.637C691.973 208.914 691.086 208.552 689.943 208.552C689.15 208.552 688.438 208.739 687.808 209.112C687.178 209.462 686.688 209.999 686.338 210.722C685.988 211.445 685.813 212.367 685.813 213.487V222.937H680.353V212.997C680.353 211.48 680.038 210.36 679.408 209.637C678.801 208.914 677.926 208.552 676.783 208.552C675.99 208.552 675.278 208.739 674.648 209.112C674.018 209.462 673.528 209.999 673.178 210.722C672.828 211.445 672.653 212.367 672.653 213.487V222.937H667.193V204.107H672.408V209.252L671.428 207.747C672.081 206.464 673.003 205.495 674.193 204.842C675.406 204.165 676.783 203.827 678.323 203.827C680.05 203.827 681.555 204.27 682.838 205.157C684.145 206.02 685.008 207.35 685.428 209.147L683.503 208.622C684.133 207.152 685.136 205.985 686.513 205.122C687.913 204.259 689.511 203.827 691.308 203.827ZM713.384 223.217C711.237 223.217 709.347 222.797 707.714 221.957C706.104 221.117 704.855 219.974 703.969 218.527C703.082 217.057 702.639 215.389 702.639 213.522C702.639 211.632 703.07 209.964 703.934 208.517C704.82 207.047 706.022 205.904 707.539 205.087C709.055 204.247 710.77 203.827 712.684 203.827C714.527 203.827 716.184 204.224 717.654 205.017C719.147 205.787 720.325 206.907 721.189 208.377C722.052 209.824 722.484 211.562 722.484 213.592C722.484 213.802 722.472 214.047 722.449 214.327C722.425 214.584 722.402 214.829 722.379 215.062H707.084V211.877H719.509L717.409 212.822C717.409 211.842 717.21 210.99 716.814 210.267C716.417 209.544 715.869 208.984 715.169 208.587C714.469 208.167 713.652 207.957 712.719 207.957C711.785 207.957 710.957 208.167 710.234 208.587C709.534 208.984 708.985 209.555 708.589 210.302C708.192 211.025 707.994 211.889 707.994 212.892V213.732C707.994 214.759 708.215 215.669 708.659 216.462C709.125 217.232 709.767 217.827 710.584 218.247C711.424 218.644 712.404 218.842 713.524 218.842C714.527 218.842 715.402 218.69 716.149 218.387C716.919 218.084 717.619 217.629 718.249 217.022L721.154 220.172C720.29 221.152 719.205 221.91 717.899 222.447C716.592 222.96 715.087 223.217 713.384 223.217ZM737.564 203.827C739.057 203.827 740.387 204.13 741.554 204.737C742.744 205.32 743.677 206.23 744.354 207.467C745.03 208.68 745.369 210.244 745.369 212.157V222.937H739.909V212.997C739.909 211.48 739.57 210.36 738.894 209.637C738.24 208.914 737.307 208.552 736.094 208.552C735.23 208.552 734.449 208.739 733.749 209.112C733.072 209.462 732.535 210.01 732.139 210.757C731.765 211.504 731.579 212.46 731.579 213.627V222.937H726.119V204.107H731.334V209.322L730.354 207.747C731.03 206.487 731.999 205.519 733.259 204.842C734.519 204.165 735.954 203.827 737.564 203.827ZM758.018 223.217C755.801 223.217 754.075 222.657 752.838 221.537C751.601 220.394 750.983 218.702 750.983 216.462V199.942H756.443V216.392C756.443 217.185 756.653 217.804 757.073 218.247C757.493 218.667 758.065 218.877 758.788 218.877C759.651 218.877 760.386 218.644 760.993 218.177L762.463 222.027C761.903 222.424 761.226 222.727 760.433 222.937C759.663 223.124 758.858 223.217 758.018 223.217ZM748.078 208.727V204.527H761.133V208.727H748.078ZM773.907 223.217C771.9 223.217 770.115 222.797 768.552 221.957C767.012 221.117 765.787 219.974 764.877 218.527C763.99 217.057 763.547 215.389 763.547 213.522C763.547 211.632 763.99 209.964 764.877 208.517C765.787 207.047 767.012 205.904 768.552 205.087C770.115 204.247 771.9 203.827 773.907 203.827C775.89 203.827 777.663 204.247 779.227 205.087C780.79 205.904 782.015 207.035 782.902 208.482C783.788 209.929 784.232 211.609 784.232 213.522C784.232 215.389 783.788 217.057 782.902 218.527C782.015 219.974 780.79 221.117 779.227 221.957C777.663 222.797 775.89 223.217 773.907 223.217ZM773.907 218.737C774.817 218.737 775.633 218.527 776.357 218.107C777.08 217.687 777.652 217.092 778.072 216.322C778.492 215.529 778.702 214.595 778.702 213.522C778.702 212.425 778.492 211.492 778.072 210.722C777.652 209.952 777.08 209.357 776.357 208.937C775.633 208.517 774.817 208.307 773.907 208.307C772.997 208.307 772.18 208.517 771.457 208.937C770.733 209.357 770.15 209.952 769.707 210.722C769.287 211.492 769.077 212.425 769.077 213.522C769.077 214.595 769.287 215.529 769.707 216.322C770.15 217.092 770.733 217.687 771.457 218.107C772.18 218.527 772.997 218.737 773.907 218.737Z" fill="black"/>
<path d="M876.905 548.937V524.437H882.575V548.937H876.905ZM899.449 529.827C900.943 529.827 902.273 530.13 903.439 530.737C904.629 531.32 905.563 532.23 906.239 533.467C906.916 534.68 907.254 536.244 907.254 538.157V548.937H901.794V538.997C901.794 537.48 901.456 536.36 900.779 535.637C900.126 534.914 899.193 534.552 897.979 534.552C897.116 534.552 896.334 534.739 895.634 535.112C894.958 535.462 894.421 536.01 894.024 536.757C893.651 537.504 893.464 538.46 893.464 539.627V548.937H888.004V530.107H893.219V535.322L892.239 533.747C892.916 532.487 893.884 531.519 895.144 530.842C896.404 530.165 897.839 529.827 899.449 529.827ZM919.904 549.217C917.687 549.217 915.96 548.657 914.724 547.537C913.487 546.394 912.869 544.702 912.869 542.462V525.942H918.329V542.392C918.329 543.185 918.539 543.804 918.959 544.247C919.379 544.667 919.95 544.877 920.674 544.877C921.537 544.877 922.272 544.644 922.879 544.177L924.349 548.027C923.789 548.424 923.112 548.727 922.319 548.937C921.549 549.124 920.744 549.217 919.904 549.217ZM909.964 534.727V530.527H923.019V534.727H909.964ZM936.178 549.217C934.031 549.217 932.141 548.797 930.508 547.957C928.898 547.117 927.649 545.974 926.763 544.527C925.876 543.057 925.433 541.389 925.433 539.522C925.433 537.632 925.864 535.964 926.728 534.517C927.614 533.047 928.816 531.904 930.333 531.087C931.849 530.247 933.564 529.827 935.478 529.827C937.321 529.827 938.978 530.224 940.448 531.017C941.941 531.787 943.119 532.907 943.983 534.377C944.846 535.824 945.278 537.562 945.278 539.592C945.278 539.802 945.266 540.047 945.243 540.327C945.219 540.584 945.196 540.829 945.173 541.062H929.878V537.877H942.302L940.203 538.822C940.203 537.842 940.004 536.99 939.608 536.267C939.211 535.544 938.663 534.984 937.963 534.587C937.263 534.167 936.446 533.957 935.513 533.957C934.579 533.957 933.751 534.167 933.028 534.587C932.328 534.984 931.779 535.555 931.383 536.302C930.986 537.025 930.788 537.889 930.788 538.892V539.732C930.788 540.759 931.009 541.669 931.453 542.462C931.919 543.232 932.561 543.827 933.378 544.247C934.218 544.644 935.198 544.842 936.318 544.842C937.321 544.842 938.196 544.69 938.943 544.387C939.713 544.084 940.413 543.629 941.043 543.022L943.948 546.172C943.084 547.152 941.999 547.91 940.693 548.447C939.386 548.96 937.881 549.217 936.178 549.217ZM948.913 548.937V522.967H954.373V548.937H948.913ZM959.44 548.937V530.107H964.9V548.937H959.44ZM962.17 527.482C961.167 527.482 960.35 527.19 959.72 526.607C959.09 526.024 958.775 525.3 958.775 524.437C958.775 523.574 959.09 522.85 959.72 522.267C960.35 521.684 961.167 521.392 962.17 521.392C963.173 521.392 963.99 521.672 964.62 522.232C965.25 522.769 965.565 523.469 965.565 524.332C965.565 525.242 965.25 526 964.62 526.607C964.013 527.19 963.197 527.482 962.17 527.482ZM978.822 556.007C977.049 556.007 975.334 555.785 973.677 555.342C972.044 554.922 970.679 554.28 969.582 553.417L971.752 549.497C972.546 550.15 973.549 550.664 974.762 551.037C975.999 551.434 977.212 551.632 978.402 551.632C980.339 551.632 981.739 551.2 982.602 550.337C983.489 549.474 983.932 548.19 983.932 546.487V543.652L984.282 538.927L984.212 534.167V530.107H989.392V545.787C989.392 549.287 988.482 551.865 986.662 553.522C984.842 555.179 982.229 556.007 978.822 556.007ZM977.982 548.027C976.232 548.027 974.646 547.654 973.222 546.907C971.822 546.137 970.691 545.075 969.827 543.722C968.987 542.345 968.567 540.747 968.567 538.927C968.567 537.084 968.987 535.485 969.827 534.132C970.691 532.755 971.822 531.694 973.222 530.947C974.646 530.2 976.232 529.827 977.982 529.827C979.569 529.827 980.969 530.154 982.182 530.807C983.396 531.437 984.341 532.429 985.017 533.782C985.694 535.112 986.032 536.827 986.032 538.927C986.032 541.004 985.694 542.719 985.017 544.072C984.341 545.402 983.396 546.394 982.182 547.047C980.969 547.7 979.569 548.027 977.982 548.027ZM979.067 543.547C980.024 543.547 980.876 543.36 981.622 542.987C982.369 542.59 982.952 542.042 983.372 541.342C983.792 540.642 984.002 539.837 984.002 538.927C984.002 537.994 983.792 537.189 983.372 536.512C982.952 535.812 982.369 535.275 981.622 534.902C980.876 534.505 980.024 534.307 979.067 534.307C978.111 534.307 977.259 534.505 976.512 534.902C975.766 535.275 975.171 535.812 974.727 536.512C974.307 537.189 974.097 537.994 974.097 538.927C974.097 539.837 974.307 540.642 974.727 541.342C975.171 542.042 975.766 542.59 976.512 542.987C977.259 543.36 978.111 543.547 979.067 543.547ZM1003.82 549.217C1001.67 549.217 999.782 548.797 998.149 547.957C996.539 547.117 995.291 545.974 994.404 544.527C993.517 543.057 993.074 541.389 993.074 539.522C993.074 537.632 993.506 535.964 994.369 534.517C995.256 533.047 996.457 531.904 997.974 531.087C999.491 530.247 1001.21 529.827 1003.12 529.827C1004.96 529.827 1006.62 530.224 1008.09 531.017C1009.58 531.787 1010.76 532.907 1011.62 534.377C1012.49 535.824 1012.92 537.562 1012.92 539.592C1012.92 539.802 1012.91 540.047 1012.88 540.327C1012.86 540.584 1012.84 540.829 1012.81 541.062H997.519V537.877H1009.94L1007.84 538.822C1007.84 537.842 1007.65 536.99 1007.25 536.267C1006.85 535.544 1006.3 534.984 1005.6 534.587C1004.9 534.167 1004.09 533.957 1003.15 533.957C1002.22 533.957 1001.39 534.167 1000.67 534.587C999.969 534.984 999.421 535.555 999.024 536.302C998.627 537.025 998.429 537.889 998.429 538.892V539.732C998.429 540.759 998.651 541.669 999.094 542.462C999.561 543.232 1000.2 543.827 1001.02 544.247C1001.86 544.644 1002.84 544.842 1003.96 544.842C1004.96 544.842 1005.84 544.69 1006.58 544.387C1007.35 544.084 1008.05 543.629 1008.68 543.022L1011.59 546.172C1010.73 547.152 1009.64 547.91 1008.33 548.447C1007.03 548.96 1005.52 549.217 1003.82 549.217ZM995.979 527.692L1000.6 522.652H1005.43L1010.05 527.692H1006.06L1001.23 523.492H1004.8L999.969 527.692H995.979ZM1028 529.827C1029.49 529.827 1030.82 530.13 1031.99 530.737C1033.18 531.32 1034.11 532.23 1034.79 533.467C1035.47 534.68 1035.8 536.244 1035.8 538.157V548.937H1030.34V538.997C1030.34 537.48 1030.01 536.36 1029.33 535.637C1028.68 534.914 1027.74 534.552 1026.53 534.552C1025.67 534.552 1024.88 534.739 1024.18 535.112C1023.51 535.462 1022.97 536.01 1022.57 536.757C1022.2 537.504 1022.01 538.46 1022.01 539.627V548.937H1016.55V530.107H1021.77V535.322L1020.79 533.747C1021.47 532.487 1022.43 531.519 1023.69 530.842C1024.95 530.165 1026.39 529.827 1028 529.827ZM1049.99 549.217C1047.96 549.217 1046.15 548.809 1044.57 547.992C1042.98 547.152 1041.73 545.997 1040.82 544.527C1039.93 543.057 1039.49 541.389 1039.49 539.522C1039.49 537.632 1039.93 535.964 1040.82 534.517C1041.73 533.047 1042.98 531.904 1044.57 531.087C1046.15 530.247 1047.96 529.827 1049.99 529.827C1051.97 529.827 1053.7 530.247 1055.17 531.087C1056.64 531.904 1057.73 533.082 1058.43 534.622L1054.19 536.897C1053.7 536.01 1053.08 535.357 1052.34 534.937C1051.61 534.517 1050.82 534.307 1049.96 534.307C1049.02 534.307 1048.18 534.517 1047.44 534.937C1046.69 535.357 1046.09 535.952 1045.65 536.722C1045.23 537.492 1045.02 538.425 1045.02 539.522C1045.02 540.619 1045.23 541.552 1045.65 542.322C1046.09 543.092 1046.69 543.687 1047.44 544.107C1048.18 544.527 1049.02 544.737 1049.96 544.737C1050.82 544.737 1051.61 544.539 1052.34 544.142C1053.08 543.722 1053.7 543.057 1054.19 542.147L1058.43 544.457C1057.73 545.974 1056.64 547.152 1055.17 547.992C1053.7 548.809 1051.97 549.217 1049.99 549.217ZM1061.47 548.937V530.107H1066.93V548.937H1061.47ZM1064.2 527.482C1063.19 527.482 1062.38 527.19 1061.75 526.607C1061.12 526.024 1060.8 525.3 1060.8 524.437C1060.8 523.574 1061.12 522.85 1061.75 522.267C1062.38 521.684 1063.19 521.392 1064.2 521.392C1065.2 521.392 1066.02 521.672 1066.65 522.232C1067.28 522.769 1067.59 523.469 1067.59 524.332C1067.59 525.242 1067.28 526 1066.65 526.607C1066.04 527.19 1065.22 527.482 1064.2 527.482ZM1083.54 548.937V545.262L1083.19 544.457V537.877C1083.19 536.71 1082.83 535.8 1082.11 535.147C1081.41 534.494 1080.32 534.167 1078.85 534.167C1077.85 534.167 1076.86 534.33 1075.88 534.657C1074.92 534.96 1074.11 535.38 1073.43 535.917L1071.47 532.102C1072.5 531.379 1073.73 530.819 1075.18 530.422C1076.63 530.025 1078.1 529.827 1079.59 529.827C1082.46 529.827 1084.69 530.504 1086.27 531.857C1087.86 533.21 1088.65 535.322 1088.65 538.192V548.937H1083.54ZM1077.8 549.217C1076.33 549.217 1075.07 548.972 1074.02 548.482C1072.97 547.969 1072.17 547.28 1071.61 546.417C1071.05 545.554 1070.77 544.585 1070.77 543.512C1070.77 542.392 1071.04 541.412 1071.57 540.572C1072.13 539.732 1073.01 539.079 1074.2 538.612C1075.39 538.122 1076.94 537.877 1078.85 537.877H1083.86V541.062H1079.45C1078.17 541.062 1077.28 541.272 1076.79 541.692C1076.32 542.112 1076.09 542.637 1076.09 543.267C1076.09 543.967 1076.36 544.527 1076.89 544.947C1077.45 545.344 1078.21 545.542 1079.17 545.542C1080.08 545.542 1080.9 545.332 1081.62 544.912C1082.34 544.469 1082.87 543.827 1083.19 542.987L1084.03 545.507C1083.64 546.72 1082.91 547.642 1081.86 548.272C1080.81 548.902 1079.46 549.217 1077.8 549.217Z" fill="black"/>
<path d="M433.12 583.307H444.915V587.717H433.12V583.307ZM433.54 593.387H446.875V597.937H427.905V573.437H446.42V577.987H433.54V593.387ZM457.234 598.217C455.624 598.217 454.072 598.03 452.579 597.657C451.109 597.26 449.942 596.77 449.079 596.187L450.899 592.267C451.762 592.804 452.777 593.247 453.944 593.597C455.134 593.924 456.301 594.087 457.444 594.087C458.704 594.087 459.591 593.935 460.104 593.632C460.641 593.329 460.909 592.909 460.909 592.372C460.909 591.929 460.699 591.602 460.279 591.392C459.882 591.159 459.346 590.984 458.669 590.867C457.992 590.75 457.246 590.634 456.429 590.517C455.636 590.4 454.831 590.249 454.014 590.062C453.197 589.852 452.451 589.549 451.774 589.152C451.097 588.755 450.549 588.219 450.129 587.542C449.732 586.865 449.534 585.99 449.534 584.917C449.534 583.727 449.872 582.677 450.549 581.767C451.249 580.857 452.252 580.145 453.559 579.632C454.866 579.095 456.429 578.827 458.249 578.827C459.532 578.827 460.839 578.967 462.169 579.247C463.499 579.527 464.607 579.935 465.494 580.472L463.674 584.357C462.764 583.82 461.842 583.459 460.909 583.272C459.999 583.062 459.112 582.957 458.249 582.957C457.036 582.957 456.149 583.12 455.589 583.447C455.029 583.774 454.749 584.194 454.749 584.707C454.749 585.174 454.947 585.524 455.344 585.757C455.764 585.99 456.312 586.177 456.989 586.317C457.666 586.457 458.401 586.585 459.194 586.702C460.011 586.795 460.827 586.947 461.644 587.157C462.461 587.367 463.196 587.67 463.849 588.067C464.526 588.44 465.074 588.965 465.494 589.642C465.914 590.295 466.124 591.159 466.124 592.232C466.124 593.399 465.774 594.437 465.074 595.347C464.374 596.234 463.359 596.934 462.029 597.447C460.722 597.96 459.124 598.217 457.234 598.217ZM477.193 598.217C474.976 598.217 473.249 597.657 472.013 596.537C470.776 595.394 470.158 593.702 470.158 591.462V574.942H475.618V591.392C475.618 592.185 475.828 592.804 476.248 593.247C476.668 593.667 477.239 593.877 477.963 593.877C478.826 593.877 479.561 593.644 480.168 593.177L481.638 597.027C481.078 597.424 480.401 597.727 479.608 597.937C478.838 598.124 478.033 598.217 477.193 598.217ZM467.253 583.727V579.527H480.308V583.727H467.253ZM484.703 597.937V579.107H489.918V584.427L489.183 582.887C489.743 581.557 490.641 580.554 491.878 579.877C493.114 579.177 494.619 578.827 496.393 578.827V583.867C496.159 583.844 495.949 583.832 495.763 583.832C495.576 583.809 495.378 583.797 495.168 583.797C493.674 583.797 492.461 584.229 491.528 585.092C490.618 585.932 490.163 587.25 490.163 589.047V597.937H484.703ZM509.959 597.937V594.262L509.609 593.457V586.877C509.609 585.71 509.247 584.8 508.524 584.147C507.824 583.494 506.739 583.167 505.269 583.167C504.265 583.167 503.274 583.33 502.294 583.657C501.337 583.96 500.52 584.38 499.844 584.917L497.884 581.102C498.91 580.379 500.147 579.819 501.594 579.422C503.04 579.025 504.51 578.827 506.004 578.827C508.874 578.827 511.102 579.504 512.689 580.857C514.275 582.21 515.069 584.322 515.069 587.192V597.937H509.959ZM504.219 598.217C502.749 598.217 501.489 597.972 500.439 597.482C499.389 596.969 498.584 596.28 498.024 595.417C497.464 594.554 497.184 593.585 497.184 592.512C497.184 591.392 497.452 590.412 497.989 589.572C498.549 588.732 499.424 588.079 500.614 587.612C501.804 587.122 503.355 586.877 505.269 586.877H510.274V590.062H505.864C504.58 590.062 503.694 590.272 503.204 590.692C502.737 591.112 502.504 591.637 502.504 592.267C502.504 592.967 502.772 593.527 503.309 593.947C503.869 594.344 504.627 594.542 505.584 594.542C506.494 594.542 507.31 594.332 508.034 593.912C508.757 593.469 509.282 592.827 509.609 591.987L510.449 594.507C510.052 595.72 509.329 596.642 508.279 597.272C507.229 597.902 505.875 598.217 504.219 598.217ZM527.71 598.217C525.494 598.217 523.767 597.657 522.53 596.537C521.294 595.394 520.675 593.702 520.675 591.462V574.942H526.135V591.392C526.135 592.185 526.345 592.804 526.765 593.247C527.185 593.667 527.757 593.877 528.48 593.877C529.344 593.877 530.079 593.644 530.685 593.177L532.155 597.027C531.595 597.424 530.919 597.727 530.125 597.937C529.355 598.124 528.55 598.217 527.71 598.217ZM517.77 583.727V579.527H530.825V583.727H517.77ZM543.984 598.217C541.837 598.217 539.947 597.797 538.314 596.957C536.704 596.117 535.456 594.974 534.569 593.527C533.682 592.057 533.239 590.389 533.239 588.522C533.239 586.632 533.671 584.964 534.534 583.517C535.421 582.047 536.622 580.904 538.139 580.087C539.656 579.247 541.371 578.827 543.284 578.827C545.127 578.827 546.784 579.224 548.254 580.017C549.747 580.787 550.926 581.907 551.789 583.377C552.652 584.824 553.084 586.562 553.084 588.592C553.084 588.802 553.072 589.047 553.049 589.327C553.026 589.584 553.002 589.829 552.979 590.062H537.684V586.877H550.109L548.009 587.822C548.009 586.842 547.811 585.99 547.414 585.267C547.017 584.544 546.469 583.984 545.769 583.587C545.069 583.167 544.252 582.957 543.319 582.957C542.386 582.957 541.557 583.167 540.834 583.587C540.134 583.984 539.586 584.555 539.189 585.302C538.792 586.025 538.594 586.889 538.594 587.892V588.732C538.594 589.759 538.816 590.669 539.259 591.462C539.726 592.232 540.367 592.827 541.184 593.247C542.024 593.644 543.004 593.842 544.124 593.842C545.127 593.842 546.002 593.69 546.749 593.387C547.519 593.084 548.219 592.629 548.849 592.022L551.754 595.172C550.891 596.152 549.806 596.91 548.499 597.447C547.192 597.96 545.687 598.217 543.984 598.217ZM539.994 576.692L544.719 571.652H550.599L544.264 576.692H539.994ZM565.574 605.007C563.801 605.007 562.086 604.785 560.429 604.342C558.796 603.922 557.431 603.28 556.334 602.417L558.504 598.497C559.298 599.15 560.301 599.664 561.514 600.037C562.751 600.434 563.964 600.632 565.154 600.632C567.091 600.632 568.491 600.2 569.354 599.337C570.241 598.474 570.684 597.19 570.684 595.487V592.652L571.034 587.927L570.964 583.167V579.107H576.144V594.787C576.144 598.287 575.234 600.865 573.414 602.522C571.594 604.179 568.981 605.007 565.574 605.007ZM564.734 597.027C562.984 597.027 561.398 596.654 559.974 595.907C558.574 595.137 557.443 594.075 556.579 592.722C555.739 591.345 555.319 589.747 555.319 587.927C555.319 586.084 555.739 584.485 556.579 583.132C557.443 581.755 558.574 580.694 559.974 579.947C561.398 579.2 562.984 578.827 564.734 578.827C566.321 578.827 567.721 579.154 568.934 579.807C570.148 580.437 571.093 581.429 571.769 582.782C572.446 584.112 572.784 585.827 572.784 587.927C572.784 590.004 572.446 591.719 571.769 593.072C571.093 594.402 570.148 595.394 568.934 596.047C567.721 596.7 566.321 597.027 564.734 597.027ZM565.819 592.547C566.776 592.547 567.628 592.36 568.374 591.987C569.121 591.59 569.704 591.042 570.124 590.342C570.544 589.642 570.754 588.837 570.754 587.927C570.754 586.994 570.544 586.189 570.124 585.512C569.704 584.812 569.121 584.275 568.374 583.902C567.628 583.505 566.776 583.307 565.819 583.307C564.863 583.307 564.011 583.505 563.264 583.902C562.518 584.275 561.923 584.812 561.479 585.512C561.059 586.189 560.849 586.994 560.849 587.927C560.849 588.837 561.059 589.642 561.479 590.342C561.923 591.042 562.518 591.59 563.264 591.987C564.011 592.36 564.863 592.547 565.819 592.547ZM581.226 597.937V579.107H586.686V597.937H581.226ZM583.956 576.482C582.953 576.482 582.136 576.19 581.506 575.607C580.876 575.024 580.561 574.3 580.561 573.437C580.561 572.574 580.876 571.85 581.506 571.267C582.136 570.684 582.953 570.392 583.956 570.392C584.959 570.392 585.776 570.672 586.406 571.232C587.036 571.769 587.351 572.469 587.351 573.332C587.351 574.242 587.036 575 586.406 575.607C585.799 576.19 584.983 576.482 583.956 576.482ZM603.303 597.937V594.262L602.953 593.457V586.877C602.953 585.71 602.592 584.8 601.868 584.147C601.168 583.494 600.083 583.167 598.613 583.167C597.61 583.167 596.618 583.33 595.638 583.657C594.682 583.96 593.865 584.38 593.188 584.917L591.228 581.102C592.255 580.379 593.492 579.819 594.938 579.422C596.385 579.025 597.855 578.827 599.348 578.827C602.218 578.827 604.447 579.504 606.033 580.857C607.62 582.21 608.413 584.322 608.413 587.192V597.937H603.303ZM597.563 598.217C596.093 598.217 594.833 597.972 593.783 597.482C592.733 596.969 591.928 596.28 591.368 595.417C590.808 594.554 590.528 593.585 590.528 592.512C590.528 591.392 590.797 590.412 591.333 589.572C591.893 588.732 592.768 588.079 593.958 587.612C595.148 587.122 596.7 586.877 598.613 586.877H603.618V590.062H599.208C597.925 590.062 597.038 590.272 596.548 590.692C596.082 591.112 595.848 591.637 595.848 592.267C595.848 592.967 596.117 593.527 596.653 593.947C597.213 594.344 597.972 594.542 598.928 594.542C599.838 594.542 600.655 594.332 601.378 593.912C602.102 593.469 602.627 592.827 602.953 591.987L603.793 594.507C603.397 595.72 602.673 596.642 601.623 597.272C600.573 597.902 599.22 598.217 597.563 598.217Z" fill="black"/>
<path d="M2.905 627.937V603.437H13.51C15.7033 603.437 17.5933 603.799 19.18 604.522C20.7667 605.222 21.9917 606.237 22.855 607.567C23.7183 608.897 24.15 610.484 24.15 612.327C24.15 614.147 23.7183 615.722 22.855 617.052C21.9917 618.359 20.7667 619.362 19.18 620.062C17.5933 620.762 15.7033 621.112 13.51 621.112H6.055L8.575 618.627V627.937H2.905ZM18.48 627.937L12.355 619.047H18.41L24.605 627.937H18.48ZM8.575 619.257L6.055 616.597H13.195C14.945 616.597 16.2517 616.224 17.115 615.477C17.9783 614.707 18.41 613.657 18.41 612.327C18.41 610.974 17.9783 609.924 17.115 609.177C16.2517 608.43 14.945 608.057 13.195 608.057H6.055L8.575 605.362V619.257ZM37.6023 628.217C35.4556 628.217 33.5656 627.797 31.9323 626.957C30.3223 626.117 29.074 624.974 28.1873 623.527C27.3006 622.057 26.8573 620.389 26.8573 618.522C26.8573 616.632 27.289 614.964 28.1523 613.517C29.039 612.047 30.2406 610.904 31.7573 610.087C33.274 609.247 34.989 608.827 36.9023 608.827C38.7456 608.827 40.4023 609.224 41.8723 610.017C43.3656 610.787 44.544 611.907 45.4073 613.377C46.2706 614.824 46.7023 616.562 46.7023 618.592C46.7023 618.802 46.6906 619.047 46.6673 619.327C46.644 619.584 46.6206 619.829 46.5973 620.062H31.3023V616.877H43.7273L41.6273 617.822C41.6273 616.842 41.429 615.99 41.0323 615.267C40.6356 614.544 40.0873 613.984 39.3873 613.587C38.6873 613.167 37.8706 612.957 36.9373 612.957C36.004 612.957 35.1756 613.167 34.4523 613.587C33.7523 613.984 33.204 614.555 32.8073 615.302C32.4106 616.025 32.2123 616.889 32.2123 617.892V618.732C32.2123 619.759 32.434 620.669 32.8773 621.462C33.344 622.232 33.9856 622.827 34.8023 623.247C35.6423 623.644 36.6223 623.842 37.7423 623.842C38.7456 623.842 39.6206 623.69 40.3673 623.387C41.1373 623.084 41.8373 622.629 42.4673 622.022L45.3723 625.172C44.509 626.152 43.424 626.91 42.1173 627.447C40.8106 627.96 39.3056 628.217 37.6023 628.217ZM56.6724 628.217C55.0624 628.217 53.5107 628.03 52.0174 627.657C50.5474 627.26 49.3807 626.77 48.5174 626.187L50.3374 622.267C51.2007 622.804 52.2157 623.247 53.3824 623.597C54.5724 623.924 55.739 624.087 56.8824 624.087C58.1424 624.087 59.0291 623.935 59.5424 623.632C60.079 623.329 60.3474 622.909 60.3474 622.372C60.3474 621.929 60.1374 621.602 59.7174 621.392C59.3207 621.159 58.784 620.984 58.1074 620.867C57.4307 620.75 56.684 620.634 55.8674 620.517C55.074 620.4 54.269 620.249 53.4524 620.062C52.6357 619.852 51.889 619.549 51.2124 619.152C50.5357 618.755 49.9874 618.219 49.5674 617.542C49.1707 616.865 48.9724 615.99 48.9724 614.917C48.9724 613.727 49.3107 612.677 49.9874 611.767C50.6874 610.857 51.6907 610.145 52.9974 609.632C54.304 609.095 55.8674 608.827 57.6874 608.827C58.9707 608.827 60.2774 608.967 61.6074 609.247C62.9374 609.527 64.0457 609.935 64.9324 610.472L63.1124 614.357C62.2024 613.82 61.2807 613.459 60.3474 613.272C59.4374 613.062 58.5507 612.957 57.6874 612.957C56.474 612.957 55.5874 613.12 55.0274 613.447C54.4674 613.774 54.1874 614.194 54.1874 614.707C54.1874 615.174 54.3857 615.524 54.7824 615.757C55.2024 615.99 55.7507 616.177 56.4274 616.317C57.104 616.457 57.839 616.585 58.6324 616.702C59.449 616.795 60.2657 616.947 61.0824 617.157C61.8991 617.367 62.6341 617.67 63.2874 618.067C63.9641 618.44 64.5124 618.965 64.9324 619.642C65.3524 620.295 65.5624 621.159 65.5624 622.232C65.5624 623.399 65.2124 624.437 64.5124 625.347C63.8124 626.234 62.7974 626.934 61.4674 627.447C60.1607 627.96 58.5624 628.217 56.6724 628.217ZM76.8761 628.217C75.3128 628.217 73.9128 627.914 72.6761 627.307C71.4628 626.7 70.5178 625.779 69.8411 624.542C69.1645 623.282 68.8261 621.684 68.8261 619.747V609.107H74.2861V618.942C74.2861 620.505 74.6128 621.66 75.2661 622.407C75.9428 623.13 76.8878 623.492 78.1011 623.492C78.9411 623.492 79.6878 623.317 80.3411 622.967C80.9945 622.594 81.5078 622.034 81.8811 621.287C82.2545 620.517 82.4411 619.56 82.4411 618.417V609.107H87.9011V627.937H82.7211V622.757L83.6661 624.262C83.0361 625.569 82.1028 626.56 80.8661 627.237C79.6528 627.89 78.3228 628.217 76.8761 628.217ZM92.9595 627.937V601.967H98.4195V627.937H92.9595ZM112.588 628.217C110.371 628.217 108.645 627.657 107.408 626.537C106.171 625.394 105.553 623.702 105.553 621.462V604.942H111.013V621.392C111.013 622.185 111.223 622.804 111.643 623.247C112.063 623.667 112.635 623.877 113.358 623.877C114.221 623.877 114.956 623.644 115.563 623.177L117.033 627.027C116.473 627.424 115.796 627.727 115.003 627.937C114.233 628.124 113.428 628.217 112.588 628.217ZM102.648 613.727V609.527H115.703V613.727H102.648ZM131.648 627.937V624.262L131.298 623.457V616.877C131.298 615.71 130.936 614.8 130.213 614.147C129.513 613.494 128.428 613.167 126.958 613.167C125.955 613.167 124.963 613.33 123.983 613.657C123.026 613.96 122.21 614.38 121.533 614.917L119.573 611.102C120.6 610.379 121.836 609.819 123.283 609.422C124.73 609.025 126.2 608.827 127.693 608.827C130.563 608.827 132.791 609.504 134.378 610.857C135.965 612.21 136.758 614.322 136.758 617.192V627.937H131.648ZM125.908 628.217C124.438 628.217 123.178 627.972 122.128 627.482C121.078 626.969 120.273 626.28 119.713 625.417C119.153 624.554 118.873 623.585 118.873 622.512C118.873 621.392 119.141 620.412 119.678 619.572C120.238 618.732 121.113 618.079 122.303 617.612C123.493 617.122 125.045 616.877 126.958 616.877H131.963V620.062H127.553C126.27 620.062 125.383 620.272 124.893 620.692C124.426 621.112 124.193 621.637 124.193 622.267C124.193 622.967 124.461 623.527 124.998 623.947C125.558 624.344 126.316 624.542 127.273 624.542C128.183 624.542 129 624.332 129.723 623.912C130.446 623.469 130.971 622.827 131.298 621.987L132.138 624.507C131.741 625.72 131.018 626.642 129.968 627.272C128.918 627.902 127.565 628.217 125.908 628.217ZM149.921 628.217C148.148 628.217 146.55 627.82 145.126 627.027C143.703 626.21 142.571 625.079 141.731 623.632C140.915 622.185 140.506 620.482 140.506 618.522C140.506 616.539 140.915 614.824 141.731 613.377C142.571 611.93 143.703 610.81 145.126 610.017C146.55 609.224 148.148 608.827 149.921 608.827C151.508 608.827 152.896 609.177 154.086 609.877C155.276 610.577 156.198 611.639 156.851 613.062C157.505 614.485 157.831 616.305 157.831 618.522C157.831 620.715 157.516 622.535 156.886 623.982C156.256 625.405 155.346 626.467 154.156 627.167C152.99 627.867 151.578 628.217 149.921 628.217ZM150.866 623.737C151.753 623.737 152.558 623.527 153.281 623.107C154.005 622.687 154.576 622.092 154.996 621.322C155.44 620.529 155.661 619.595 155.661 618.522C155.661 617.425 155.44 616.492 154.996 615.722C154.576 614.952 154.005 614.357 153.281 613.937C152.558 613.517 151.753 613.307 150.866 613.307C149.956 613.307 149.14 613.517 148.416 613.937C147.693 614.357 147.11 614.952 146.666 615.722C146.246 616.492 146.036 617.425 146.036 618.522C146.036 619.595 146.246 620.529 146.666 621.322C147.11 622.092 147.693 622.687 148.416 623.107C149.14 623.527 149.956 623.737 150.866 623.737ZM155.801 627.937V624.087L155.906 618.487L155.556 612.922V601.967H161.016V627.937H155.801ZM175.03 628.217C173.023 628.217 171.238 627.797 169.675 626.957C168.135 626.117 166.91 624.974 166 623.527C165.113 622.057 164.67 620.389 164.67 618.522C164.67 616.632 165.113 614.964 166 613.517C166.91 612.047 168.135 610.904 169.675 610.087C171.238 609.247 173.023 608.827 175.03 608.827C177.013 608.827 178.786 609.247 180.35 610.087C181.913 610.904 183.138 612.035 184.025 613.482C184.911 614.929 185.355 616.609 185.355 618.522C185.355 620.389 184.911 622.057 184.025 623.527C183.138 624.974 181.913 626.117 180.35 626.957C178.786 627.797 177.013 628.217 175.03 628.217ZM175.03 623.737C175.94 623.737 176.756 623.527 177.48 623.107C178.203 622.687 178.775 622.092 179.195 621.322C179.615 620.529 179.825 619.595 179.825 618.522C179.825 617.425 179.615 616.492 179.195 615.722C178.775 614.952 178.203 614.357 177.48 613.937C176.756 613.517 175.94 613.307 175.03 613.307C174.12 613.307 173.303 613.517 172.58 613.937C171.856 614.357 171.273 614.952 170.83 615.722C170.41 616.492 170.2 617.425 170.2 618.522C170.2 619.595 170.41 620.529 170.83 621.322C171.273 622.092 171.856 622.687 172.58 623.107C173.303 623.527 174.12 623.737 175.03 623.737Z" fill="black"/>
<path d="M212.593 491.263C212.22 492.592 212.996 493.972 214.326 494.344L235.993 500.411C237.322 500.783 238.702 500.007 239.074 498.678C239.446 497.348 238.67 495.969 237.341 495.596L218.081 490.204L223.474 470.944C223.846 469.615 223.07 468.235 221.741 467.863C220.411 467.491 219.032 468.267 218.659 469.596L212.593 491.263ZM216.226 494.116C217.645 493.318 219.06 492.554 220.47 491.822L218.169 487.383C216.708 488.141 215.243 488.932 213.774 489.758L216.226 494.116ZM229.133 487.709C232.13 486.414 235.108 485.258 238.069 484.226L236.423 479.504C233.35 480.575 230.259 481.776 227.15 483.119L229.133 487.709ZM247.235 481.399C250.366 480.556 253.479 479.839 256.575 479.231L255.613 474.325C252.408 474.953 249.182 475.696 245.935 476.571L247.235 481.399ZM266.068 477.69C269.279 477.272 272.474 476.956 275.652 476.724L275.288 471.737C272.024 471.975 268.735 472.3 265.423 472.731L266.068 477.69ZM285.295 476.255C288.537 476.171 291.763 476.155 294.976 476.187L295.026 471.188C291.764 471.155 288.477 471.171 285.165 471.257L285.295 476.255ZM304.689 476.411C307.951 476.521 311.196 476.659 314.43 476.803L314.653 471.808C311.414 471.664 308.147 471.525 304.858 471.413L304.689 476.411ZM324.204 477.234C327.488 477.369 330.761 477.487 334.019 477.561L334.133 472.562C330.916 472.489 327.677 472.373 324.41 472.238L324.204 477.234ZM343.879 477.627C347.188 477.588 350.487 477.477 353.774 477.267L353.456 472.278C350.268 472.481 347.057 472.589 343.819 472.628L343.879 477.627ZM363.671 476.307C366.959 475.868 370.237 475.302 373.503 474.579L372.424 469.697C369.307 470.386 366.17 470.929 363.01 471.351L363.671 476.307ZM383.168 471.949C384.747 471.434 386.324 470.876 387.897 470.27L386.103 465.604C384.611 466.177 383.116 466.707 381.617 467.196L383.168 471.949Z" fill="black"/>
<path d="M674.232 456.135C673.256 457.111 673.256 458.694 674.232 459.67L690.142 475.58C691.118 476.556 692.701 476.556 693.678 475.58C694.654 474.604 694.654 473.021 693.678 472.044L679.536 457.902L693.678 443.76C694.654 442.784 694.654 441.201 693.678 440.225C692.701 439.248 691.118 439.248 690.142 440.225L674.232 456.135ZM676 460.402C677.64 460.402 679.3 460.391 680.979 460.37L680.914 455.37C679.256 455.392 677.618 455.402 676 455.402L676 460.402ZM690.933 460.12C694.201 460 697.523 459.842 700.886 459.645L700.594 454.654C697.266 454.848 693.981 455.005 690.75 455.123L690.933 460.12ZM710.828 458.961C714.108 458.701 717.415 458.407 720.739 458.077L720.246 453.102C716.955 453.428 713.68 453.72 710.434 453.976L710.828 458.961ZM730.64 456.997C733.928 456.605 737.223 456.18 740.515 455.72L739.823 450.768C736.565 451.223 733.304 451.644 730.048 452.032L730.64 456.997ZM750.365 454.24C753.653 453.71 756.928 453.146 760.181 452.547L759.276 447.63C756.061 448.221 752.822 448.779 749.57 449.303L750.365 454.24ZM769.966 450.626C773.248 449.939 776.495 449.217 779.697 448.457L778.543 443.592C775.387 444.341 772.183 445.054 768.943 445.732L769.966 450.626ZM789.377 446.01C792.647 445.129 795.855 444.207 798.987 443.243L797.518 438.464C794.445 439.409 791.293 440.315 788.076 441.182L789.377 446.01ZM808.494 440.107C811.726 438.962 814.855 437.766 817.863 436.52L815.95 431.901C813.029 433.111 809.982 434.275 806.824 435.394L808.494 440.107ZM827.042 432.368C830.19 430.808 833.16 429.176 835.924 427.473L833.3 423.217C830.683 424.83 827.85 426.387 824.821 427.888L827.042 432.368ZM844.281 421.565C845.646 420.445 846.929 419.295 848.123 418.115L844.608 414.559C843.533 415.622 842.365 416.669 841.109 417.7L844.281 421.565Z" fill="black"/>
<path d="M1128.9 378.576C1128.15 379.735 1128.48 381.283 1129.64 382.034L1148.51 394.281C1149.67 395.033 1151.22 394.703 1151.97 393.545C1152.72 392.386 1152.39 390.838 1151.24 390.087L1134.46 379.201L1145.34 362.423C1146.1 361.265 1145.77 359.716 1144.61 358.965C1143.45 358.213 1141.9 358.543 1141.15 359.701L1128.9 378.576ZM811.287 110.421C812.941 110.23 814.593 110.047 816.241 109.872L815.714 104.9C814.05 105.076 812.383 105.261 810.713 105.454L811.287 110.421ZM826.097 108.918C829.37 108.632 832.631 108.377 835.879 108.153L835.535 103.165C832.256 103.391 828.965 103.648 825.661 103.937L826.097 108.918ZM845.715 107.567C849.026 107.4 852.323 107.266 855.605 107.163L855.448 102.165C852.134 102.269 848.806 102.405 845.464 102.573L845.715 107.567ZM865.411 106.947C868.714 106.905 872.003 106.896 875.276 106.917L875.308 101.917C872.003 101.895 868.683 101.905 865.348 101.948L865.411 106.947ZM885.163 107.075C888.442 107.159 891.706 107.274 894.953 107.419L895.176 102.424C891.898 102.277 888.602 102.161 885.291 102.076L885.163 107.075ZM904.828 107.957C908.127 108.169 911.408 108.413 914.671 108.687L915.089 103.704C911.794 103.428 908.48 103.182 905.149 102.968L904.828 107.957ZM924.405 109.599C927.712 109.941 931 110.315 934.267 110.719L934.881 105.757C931.581 105.349 928.26 104.971 924.92 104.625L924.405 109.599ZM944.024 112.025C947.277 112.494 950.509 112.992 953.719 113.52L954.53 108.586C951.287 108.053 948.023 107.55 944.737 107.077L944.024 112.025ZM963.482 115.228C966.714 115.827 969.923 116.456 973.108 117.114L974.119 112.217C970.901 111.552 967.659 110.917 964.394 110.312L963.482 115.228ZM982.753 119.209C985.978 119.944 989.178 120.71 992.352 121.503L993.565 116.653C990.357 115.851 987.124 115.077 983.864 114.334L982.753 119.209ZM1001.81 123.973C1005.02 124.848 1008.21 125.752 1011.36 126.684L1012.78 121.889C1009.59 120.947 1006.37 120.033 1003.12 119.148L1001.81 123.973ZM1020.74 129.566C1023.89 130.57 1027.01 131.603 1030.1 132.663L1031.73 127.933C1028.6 126.862 1025.45 125.818 1022.26 124.802L1020.74 129.566ZM1039.4 135.968C1042.48 137.101 1045.53 138.262 1048.54 139.448L1050.38 134.795C1047.33 133.595 1044.24 132.422 1041.13 131.275L1039.4 135.968ZM1057.73 143.186C1060.76 144.458 1063.75 145.757 1066.7 147.08L1068.75 142.517C1065.76 141.178 1062.73 139.864 1059.67 138.577L1057.73 143.186ZM1075.69 151.235C1078.67 152.655 1081.6 154.099 1084.5 155.568L1086.76 151.109C1083.83 149.622 1080.86 148.159 1077.84 146.722L1075.69 151.235ZM1093.23 160.133C1096.14 161.704 1099.01 163.299 1101.84 164.917L1104.32 160.578C1101.46 158.939 1098.55 157.323 1095.6 155.732L1093.23 160.133ZM1110.28 169.905C1113.12 171.632 1115.91 173.382 1118.65 175.153L1121.36 170.955C1118.59 169.159 1115.76 167.385 1112.88 165.634L1110.28 169.905ZM1126.78 180.584C1129.52 182.472 1132.21 184.381 1134.84 186.309L1137.79 182.277C1135.13 180.32 1132.4 178.382 1129.62 176.466L1126.78 180.584ZM1142.62 192.212C1145.25 194.265 1147.81 196.337 1150.3 198.425L1153.51 194.593C1150.97 192.469 1148.37 190.362 1145.71 188.275L1142.62 192.212ZM1157.68 204.837C1160.15 207.06 1162.55 209.299 1164.87 211.549L1168.35 207.961C1165.98 205.666 1163.54 203.384 1161.03 201.12L1157.68 204.837ZM1171.77 218.516C1174.04 220.911 1176.23 223.317 1178.34 225.73L1182.11 222.446C1179.96 219.977 1177.72 217.517 1175.39 215.071L1171.77 218.516ZM1184.62 233.303C1186.66 235.884 1188.6 238.47 1190.43 241.057L1194.51 238.167C1192.63 235.507 1190.64 232.852 1188.55 230.204L1184.62 233.303ZM1195.87 249.232C1197.62 252.051 1199.25 254.865 1200.75 257.671L1205.16 255.315C1203.61 252.408 1201.92 249.498 1200.11 246.589L1195.87 249.232ZM1204.98 266.334C1206.32 269.371 1207.51 272.391 1208.53 275.387L1213.26 273.769C1212.19 270.63 1210.95 267.476 1209.55 264.313L1204.98 266.334ZM1211.21 284.686C1211.96 287.875 1212.51 291.028 1212.87 294.137L1217.83 293.565C1217.45 290.256 1216.87 286.915 1216.08 283.549L1211.21 284.686ZM1213.35 303.664C1213.3 306.882 1213.02 310.044 1212.51 313.14L1217.44 313.952C1217.99 310.606 1218.29 307.201 1218.35 303.746L1213.35 303.664ZM1210.23 322.375C1209.24 325.356 1208.01 328.267 1206.54 331.1L1210.97 333.411C1212.57 330.342 1213.9 327.185 1214.98 323.952L1210.23 322.375ZM1201.52 339.138C1199.69 341.632 1197.63 344.054 1195.35 346.395L1198.93 349.886C1201.37 347.384 1203.57 344.785 1205.55 342.097L1201.52 339.138ZM1188.19 352.86C1185.77 354.794 1183.17 356.658 1180.37 358.448L1183.07 362.659C1186 360.779 1188.75 358.813 1191.31 356.765L1188.19 352.86ZM1172.07 363.241C1169.27 364.705 1166.3 366.104 1163.18 367.434L1165.15 372.033C1168.38 370.655 1171.46 369.201 1174.38 367.675L1172.07 363.241ZM1154.21 370.914C1151.23 371.965 1148.12 372.959 1144.89 373.895L1146.28 378.697C1149.6 377.737 1152.79 376.714 1155.87 375.63L1154.21 370.914ZM1135.45 376.374C1133.82 376.761 1132.16 377.133 1130.48 377.492L1131.52 382.382C1133.24 382.016 1134.94 381.635 1136.6 381.239L1135.45 376.374Z" fill="black"/>
<path d="M516.768 105.766C517.744 104.79 517.744 103.207 516.768 102.231L500.858 86.3206C499.882 85.3443 498.299 85.3443 497.322 86.3206C496.346 87.297 496.346 88.8799 497.322 89.8562L511.464 103.998L497.322 118.14C496.346 119.117 496.346 120.7 497.322 121.676C498.299 122.652 499.882 122.652 500.858 121.676L516.768 105.766ZM223 174.437C224.657 174.437 226.387 174.371 228.183 174.244L227.83 169.256C226.136 169.376 224.525 169.437 223 169.437L223 174.437ZM238.316 173.031C241.49 172.52 244.825 171.88 248.309 171.128L247.253 166.241C243.84 166.978 240.593 167.6 237.522 168.094L238.316 173.031ZM258.147 168.812C261.31 168.014 264.574 167.144 267.93 166.212L266.593 161.395C263.268 162.317 260.042 163.177 256.923 163.964L258.147 168.812ZM277.609 163.436C280.747 162.509 283.955 161.54 287.225 160.534L285.756 155.755C282.5 156.756 279.311 157.72 276.193 158.64L277.609 163.436ZM296.816 157.543C299.957 156.551 303.149 155.533 306.386 154.494L304.858 149.734C301.626 150.771 298.442 151.786 295.311 152.775L296.816 157.543ZM315.941 151.413C319.086 150.395 322.27 149.362 325.487 148.319L323.945 143.563C320.727 144.606 317.545 145.639 314.402 146.656L315.941 151.413ZM335.031 145.23C338.186 144.212 341.369 143.187 344.577 142.161L343.053 137.399C339.84 138.427 336.652 139.453 333.495 140.472L335.031 145.23ZM354.13 139.124C357.298 138.125 360.488 137.127 363.695 136.134L362.216 131.358C358.999 132.353 355.802 133.354 352.626 134.356L354.13 139.124ZM373.274 133.202C376.459 132.239 379.659 131.284 382.87 130.34L381.461 125.543C378.236 126.49 375.023 127.449 371.827 128.416L373.274 133.202ZM392.487 127.562C395.693 126.652 398.907 125.757 402.126 124.879L400.812 120.055C397.574 120.937 394.343 121.837 391.122 122.752L392.487 127.562ZM411.791 122.306C415.02 121.467 418.252 120.649 421.484 119.855L420.292 115C417.036 115.799 413.783 116.622 410.533 117.466L411.791 122.306ZM431.208 117.543C434.464 116.795 437.717 116.075 440.965 115.387L439.927 110.495C436.651 111.19 433.371 111.916 430.089 112.67L431.208 117.543ZM450.753 113.404C454.036 112.772 457.31 112.175 460.573 111.617L459.73 106.689C456.431 107.253 453.123 107.856 449.807 108.495L450.753 113.404ZM470.423 110.049C473.733 109.562 477.027 109.12 480.302 108.726L479.705 103.762C476.384 104.161 473.046 104.61 469.696 105.102L470.423 110.049ZM490.206 107.678C493.538 107.375 496.846 107.128 500.128 106.939L499.841 101.947C496.501 102.139 493.138 102.391 489.754 102.698L490.206 107.678ZM510.059 106.549C511.714 106.515 513.361 106.498 515 106.498L515 101.498C513.327 101.498 511.645 101.516 509.957 101.55L510.059 106.549Z" fill="black"/>
<defs>
<clipPath id="clip0_23_301">
<rect width="133" height="133" fill="white" transform="translate(27 109.937)"/>
</clipPath>
<clipPath id="clip1_23_301">
<rect width="174" height="174" fill="white" transform="translate(896 308.937)"/>
</clipPath>
<clipPath id="clip2_23_301">
<rect width="156" height="156" fill="white" transform="translate(15 402.937)"/>
</clipPath>
</defs>
</svg>
