<svg width="398" height="398" viewBox="0 0 398 398" fill="none" xmlns="http://www.w3.org/2000/svg">
<g clip-path="url(#clip0_2_577)">
<path fill-rule="evenodd" clip-rule="evenodd" d="M318.4 159.2C318.4 89.6362 273.89 28.6825 207.656 7.53547C204.161 6.40117 200.426 8.3381 199.312 11.8272C198.197 15.323 200.128 19.0509 203.617 20.1653C264.338 39.5612 305.133 95.4338 305.133 159.2C305.133 239.669 239.669 305.133 159.2 305.133C78.731 305.133 13.2667 239.669 13.2667 159.2C13.2667 95.4338 54.0617 39.5546 114.783 20.1653C118.272 19.0509 120.203 15.323 119.088 11.8339C117.967 8.3381 114.226 6.3879 110.75 7.53547C44.503 28.6825 0 89.6362 0 159.2C0 246.979 71.4211 318.4 159.2 318.4C246.979 318.4 318.4 246.979 318.4 159.2ZM50.7583 94.6776C47.5278 92.9662 43.508 94.2066 41.79 97.437C31.8068 116.322 26.5333 137.681 26.5333 159.2C26.5333 232.352 86.0476 291.867 159.2 291.867C232.352 291.867 291.867 232.352 291.867 159.2C291.867 104.528 258.979 56.1445 208.081 35.946C204.685 34.6061 200.818 36.2644 199.464 39.6607C198.118 43.0702 199.783 46.9242 203.186 48.2774C248.995 66.4594 278.6 110.001 278.6 159.2C278.6 225.036 225.036 278.6 159.2 278.6C93.3642 278.6 39.8 225.036 39.8 159.2C39.8 139.837 44.5428 120.627 53.5244 103.646C55.2358 100.409 53.9953 96.389 50.7583 94.6776ZM245.433 212.267C249.102 212.267 252.067 209.302 252.067 205.633V112.767C252.067 109.098 249.102 106.133 245.433 106.133H205.633C201.972 106.133 199 109.098 199 112.767V245.433C199 249.102 201.972 252.067 205.633 252.067C209.302 252.067 212.267 249.102 212.267 245.433V119.4H238.8V205.633C238.8 209.302 241.765 212.267 245.433 212.267ZM139.3 265.333C142.962 265.333 145.933 262.368 145.933 258.7V13.2667H172.467V258.7C172.467 262.368 175.438 265.333 179.1 265.333C182.762 265.333 185.733 262.368 185.733 258.7V6.63333C185.733 2.9651 182.762 0 179.1 0H139.3C135.638 0 132.667 2.9651 132.667 6.63333V258.7C132.667 262.368 135.638 265.333 139.3 265.333ZM112.767 53.0667H72.9667C69.3051 53.0667 66.3333 56.0318 66.3333 59.7V205.633C66.3333 209.302 69.3051 212.267 72.9667 212.267C76.6283 212.267 79.6 209.302 79.6 205.633V66.3333H106.133V245.433C106.133 249.102 109.105 252.067 112.767 252.067C116.428 252.067 119.4 249.102 119.4 245.433V59.7C119.4 56.0318 116.428 53.0667 112.767 53.0667ZM300.298 262.78C297.711 265.373 297.711 269.572 300.298 272.159L314.374 286.235C315.667 287.535 317.365 288.179 319.063 288.179C320.755 288.179 322.453 287.535 323.753 286.235C326.34 283.648 326.34 279.449 323.753 276.855L309.684 262.78C307.09 260.193 302.891 260.193 300.298 262.78ZM398 364.833C398 373.695 394.544 382.027 388.282 388.282C381.821 394.756 373.317 397.987 364.827 397.987C356.336 397.987 347.845 394.756 341.384 388.289L262.78 309.69C260.193 307.097 260.193 302.898 262.78 300.304C265.373 297.717 269.572 297.717 272.159 300.304L350.764 378.909C358.532 386.664 371.148 386.657 378.903 378.903C382.664 375.148 384.733 370.153 384.733 364.833C384.733 359.52 382.664 354.525 378.903 350.764L337.119 308.981L323.103 323.077C320.516 325.677 316.33 325.697 313.723 323.103C311.123 320.516 311.11 316.324 313.697 313.724L332.403 294.911C333.65 293.664 335.342 292.955 337.099 292.955C338.864 292.955 340.555 293.658 341.796 294.898L388.282 341.385C394.544 347.646 398 355.978 398 364.833Z" fill="#F59620"/>
</g>
<defs>
<clipPath id="clip0_2_577">
<rect width="398" height="398" fill="white"/>
</clipPath>
</defs>
</svg>
