<svg width="185" height="349" viewBox="0 0 185 349" fill="none" xmlns="http://www.w3.org/2000/svg">
<path d="M168 188.569H145.627V0H27.3725V124.647H5V137.431H40.1569V12.7843H132.843V188.569H40.1569V151.814H27.3725V188.569H5V201.353H168V188.569Z" fill="#FFAA03"/>
<path d="M73.7155 41.5491H60.9312V54.3334H73.7155V41.5491Z" fill="#FFAA03"/>
<path d="M112.069 41.5491H99.2847V54.3334H112.069V41.5491Z" fill="#FFAA03"/>
<path d="M73.7155 89.4902H60.9312V102.275H73.7155V89.4902Z" fill="#FFAA03"/>
<path d="M112.069 89.4902H99.2847V102.275H112.069V89.4902Z" fill="#FFAA03"/>
<path d="M73.7155 137.431H60.9312V150.216H73.7155V137.431Z" fill="#FFAA03"/>
<path d="M112.069 137.431H99.2847V150.216H112.069V137.431Z" fill="#FFAA03"/>
<path d="M47.89 293.21L60.89 281.38C74.15 269.42 76.49 261.36 76.49 252.39C76.49 235.1 61.28 223.92 39.7 223.92C20.07 223.92 6.94 232.5 0.31 244.98L23.45 256.55C26.18 251.09 31.38 248.1 36.84 248.1C42.69 248.1 45.68 250.83 45.68 255.25C45.68 258.37 44.77 261.88 38.53 267.73L5.64 298.15V317H78.57V293.21H47.89ZM126.072 319.08C150.122 319.08 167.282 301.66 167.282 271.5C167.282 241.34 150.122 223.92 126.072 223.92C102.022 223.92 84.8618 241.34 84.8618 271.5C84.8618 301.66 102.022 319.08 126.072 319.08ZM126.072 294.51C120.092 294.51 115.672 289.05 115.672 271.5C115.672 253.95 120.092 248.49 126.072 248.49C132.052 248.49 136.472 253.95 136.472 271.5C136.472 289.05 132.052 294.51 126.072 294.51Z" fill="white"/>
<path d="M83.24 332H93L80.76 304H71.48L59.24 332H68.84L70.72 327.12H81.36L83.24 332ZM73.32 320.32L76.04 313.28L78.76 320.32H73.32ZM112.907 304V316.72L102.267 304H94.5066V332H103.707V319.28L114.347 332H122.107V304H112.907ZM141.335 332.64C150.455 332.64 157.135 326.48 157.135 318C157.135 309.52 150.455 303.36 141.335 303.36C132.215 303.36 125.535 309.52 125.535 318C125.535 326.48 132.215 332.64 141.335 332.64ZM141.335 325C137.855 325 135.055 322.36 135.055 318C135.055 313.64 137.855 311 141.335 311C144.815 311 147.615 313.64 147.615 318C147.615 322.36 144.815 325 141.335 325ZM171.001 332.64C179.681 332.64 184.041 328.32 184.041 323.2C184.041 312.88 168.561 315.68 168.561 312.32C168.561 311.36 169.441 310.56 172.201 310.56C174.641 310.56 177.241 311.24 180.001 312.64L182.841 305.8C179.921 304.16 176.041 303.36 172.281 303.36C163.601 303.36 159.241 307.6 159.241 312.8C159.241 323.24 174.721 320.4 174.721 323.92C174.721 324.88 173.761 325.44 171.081 325.44C168.001 325.44 164.481 324.44 161.841 322.88L158.801 329.76C161.601 331.48 166.321 332.64 171.001 332.64Z" fill="#FFAA03"/>
</svg>
