<svg width="379" height="394" viewBox="0 0 379 394" fill="none" xmlns="http://www.w3.org/2000/svg">
<path d="M339.854 110.162C314.995 66.1886 259.186 50.7334 215.224 75.6176C182.611 94.0801 165.778 129.584 169.383 164.616L146.211 177.729L153.113 189.927C128.572 202.827 126.581 219.057 126.581 219.057L108.596 215.122L104.698 231.441L88.6877 226.403L82.3008 244.137L41.9315 252.847L32.0652 272.565L10.5867 270.593L5.79634 299.248L32.8192 309.904L175.343 229.244L182.247 241.421L205.416 228.313C233.596 249.447 272.72 253.284 305.322 234.832C349.285 209.927 364.774 154.123 339.854 110.162ZM297.669 165.577C284.496 173.046 267.736 168.414 260.293 155.229C252.815 142.023 257.457 125.296 270.655 117.837C283.829 110.368 300.564 115.005 308.041 128.196C315.487 141.375 310.855 158.113 297.669 165.577Z" fill="url(#paint0_linear_68_827)"/>
<defs>
<linearGradient id="paint0_linear_68_827" x1="3.11085" y1="296.443" x2="357.478" y2="90.6496" gradientUnits="userSpaceOnUse">
<stop stop-color="#5B00BB"/>
<stop offset="1" stop-color="#FFAA03"/>
</linearGradient>
</defs>
</svg>
