<svg width="66" height="70" viewBox="0 0 66 70" fill="none" xmlns="http://www.w3.org/2000/svg">
<path d="M52.9882 8.56221C53.4693 8.56221 53.9444 8.37578 54.2993 7.9969L56.1455 6.04239C56.8311 5.32073 56.801 4.17809 56.0733 3.49251C55.3517 2.80693 54.209 2.837 53.5235 3.56467L51.6772 5.51919C50.9916 6.24085 51.0217 7.38349 51.7494 8.06907C52.0982 8.39983 52.5432 8.56221 52.9882 8.56221Z" fill="#FFAA03"/>
<path d="M51.8938 23.8014C52.9342 26.6519 53.716 29.5266 54.2272 32.3471C54.3835 33.2191 55.1413 33.8325 56.0012 33.8325C56.1095 33.8325 56.2177 33.8205 56.326 33.8024C57.3063 33.628 57.9558 32.6899 57.7813 31.7096C57.3363 29.2499 56.6928 26.7602 55.875 24.2765L64.0478 21.2996C64.986 20.9568 65.4671 19.9224 65.1243 18.9842C64.7815 18.0461 63.7471 17.565 62.809 17.9078C62.809 17.9078 53.0123 21.474 52.9763 21.486C52.0381 21.8288 51.557 22.8632 51.8938 23.8014Z" fill="#FFAA03"/>
<path d="M44.0635 19.8623C41.8805 18.8459 39.4328 18.7377 37.1656 19.5616C37.0694 19.5977 36.9792 19.6397 36.889 19.6879C36.7927 19.7059 36.6965 19.73 36.6003 19.766C35.6982 20.0968 34.1406 21.0951 33.8459 24.1081C33.6715 25.8761 33.9903 27.987 34.736 30.0438C36.2756 34.2655 38.9878 36.9357 41.5437 36.9357C41.9587 36.9357 42.3736 36.8635 42.7705 36.7192L43.3358 36.5147C45.6031 35.6908 47.4072 34.037 48.4236 31.8479C49.4399 29.6589 49.5482 27.2172 48.7243 24.95C47.9064 22.6888 46.2466 20.8786 44.0635 19.8623Z" fill="#FFAA03"/>
<path d="M64.6371 40.7124L52.9221 36.6591C51.9779 36.3343 50.9555 36.8335 50.6248 37.7716C50.3 38.7158 50.7992 39.7382 51.7373 40.0689L54.8465 41.1454C54.5398 46.5759 52.7717 50.3587 50.0173 51.363C47.4795 52.2831 44.0335 50.8638 40.5515 47.46C36.6846 43.6833 33.2446 37.9941 30.8631 31.451C28.4817 24.9079 27.4593 18.3408 27.9945 12.9644C28.4696 8.12321 30.2016 4.81558 32.7335 3.88944C37.1837 2.27171 43.9794 7.81049 48.8928 17.0538C49.3618 17.9318 50.4564 18.2686 51.3344 17.7995C52.2124 17.3305 52.5492 16.2419 52.0801 15.3579C46.1264 4.15405 37.8573 -1.81773 31.5006 0.491598C28.6621 1.52598 26.5632 4.0458 25.3725 7.74433L2.34534 33.3214C0.060062 35.8532 -0.601465 39.2811 0.565227 42.4805C1.73192 45.6859 4.44418 47.881 7.81797 48.3561L9.70031 48.6207V65.1889C9.70031 67.841 11.8593 70 14.5114 70H26.5392C29.1913 70 31.3503 67.841 31.3503 65.1889V56.4026C31.3503 55.4043 30.5444 54.5985 29.5461 54.5985C28.5478 54.5985 27.7419 55.4043 27.7419 56.4026V65.1889C27.7419 65.8504 27.2007 66.3917 26.5392 66.3917H14.5114C13.8499 66.3917 13.3086 65.8504 13.3086 65.1889V49.1258L41.8926 53.1311C44.1177 54.5323 46.3128 55.254 48.3756 55.254C49.3678 55.254 50.3301 55.0856 51.2562 54.7548C55.2614 53.2995 57.7933 48.8312 58.3766 42.3662L63.4584 44.1283C63.6568 44.1945 63.8553 44.2305 64.0477 44.2305C64.7934 44.2305 65.4971 43.7614 65.7497 43.0157C66.0804 42.0655 65.5813 41.0372 64.6371 40.7124ZM13.3086 45.4814L9.70031 44.9763V39.3292C9.70031 38.3309 10.5062 37.5251 11.5045 37.5251C12.5028 37.5251 13.3086 38.3309 13.3086 39.3292V45.4814Z" fill="#FFAA03"/>
</svg>
