<svg width="269" height="304" viewBox="0 0 269 304" fill="none" xmlns="http://www.w3.org/2000/svg">
<path d="M147.568 156.92V303.148L269 240.293V94.0583L147.568 156.92Z" fill="#5B00BB"/>
<path d="M0 227.895L121.053 303.148V156.06L0 82.501V227.895Z" fill="#FFAA03"/>
<path d="M131.321 0L13.7437 60.397C13.9964 60.0558 134.31 136.389 134.31 136.389L255.749 71.828L131.321 0Z" fill="#FF5A2D"/>
<g clip-path="url(#clip0_104_3)">
<path d="M207.5 170.962C195.487 170.962 182.562 174.584 182.562 182.541V216.384C182.562 224.338 195.487 227.962 207.5 227.962C219.511 227.962 232.438 224.338 232.438 216.384V182.541C232.438 174.584 219.509 170.962 207.5 170.962ZM228.875 216.384C228.875 220.809 219.304 224.4 207.5 224.4C195.694 224.4 186.125 220.809 186.125 216.384V209.73C189.805 213.522 198.683 215.494 207.5 215.494C216.317 215.494 225.195 213.522 228.875 209.73V216.384ZM228.875 205.697H228.868C228.868 205.715 228.875 205.734 228.875 205.752C228.875 210.15 219.304 213.712 207.5 213.712C195.696 213.712 186.125 210.15 186.125 205.752C186.125 205.734 186.132 205.715 186.132 205.697H186.125V199.042C189.805 202.834 198.683 204.806 207.5 204.806C216.317 204.806 225.195 202.834 228.875 199.042V205.697ZM228.875 195.009H228.868C228.868 195.027 228.875 195.047 228.875 195.064C228.875 199.462 219.304 203.025 207.5 203.025C195.696 203.025 186.125 199.462 186.125 195.064C186.125 195.047 186.132 195.027 186.132 195.009H186.125V188.889C190.794 192.446 199.351 194.119 207.5 194.119C215.649 194.119 224.206 192.446 228.875 188.889V195.009ZM207.5 190.556C195.694 190.556 186.125 186.965 186.125 182.541C186.125 178.112 195.694 174.525 207.5 174.525C219.304 174.525 228.875 178.112 228.875 182.541C228.875 186.965 219.304 190.556 207.5 190.556Z" fill="white"/>
<path d="M223.531 219.056C224.515 219.056 225.312 218.259 225.312 217.275C225.312 216.291 224.515 215.494 223.531 215.494C222.547 215.494 221.75 216.291 221.75 217.275C221.75 218.259 222.547 219.056 223.531 219.056Z" fill="white"/>
<path d="M223.531 208.369C224.515 208.369 225.312 207.571 225.312 206.587C225.312 205.604 224.515 204.806 223.531 204.806C222.547 204.806 221.75 205.604 221.75 206.587C221.75 207.571 222.547 208.369 223.531 208.369Z" fill="white"/>
<path d="M223.531 197.681C224.515 197.681 225.312 196.884 225.312 195.9C225.312 194.916 224.515 194.119 223.531 194.119C222.547 194.119 221.75 194.916 221.75 195.9C221.75 196.884 222.547 197.681 223.531 197.681Z" fill="white"/>
</g>
<g clip-path="url(#clip1_104_3)">
<path d="M126.552 50.3246C126.552 49.499 126.389 48.6815 126.073 47.9188C125.757 47.156 125.294 46.463 124.71 45.8792C124.127 45.2954 123.433 44.8323 122.671 44.5164C121.908 44.2005 121.09 44.0378 120.265 44.0378C119.439 44.0378 118.622 44.2005 117.859 44.5164C117.096 44.8323 116.403 45.2954 115.819 45.8792C115.236 46.463 114.773 47.156 114.457 47.9188C114.141 48.6815 113.978 49.499 113.978 50.3246C113.984 51.3043 114.222 52.2686 114.672 53.1391C113.229 53.5725 111.991 54.5108 111.183 55.7823C110.376 57.0539 110.053 58.5736 110.274 60.0636C110.495 61.5536 111.245 62.9142 112.387 63.8964C113.529 64.8787 114.987 65.417 116.493 65.4128" stroke="white" stroke-width="3" stroke-linecap="round" stroke-linejoin="round"/>
<path d="M110.254 62.5681C109.229 63.4157 108.422 64.4969 107.901 65.7209C107.38 66.945 107.161 68.276 107.262 69.6024C107.362 70.9288 107.779 72.2117 108.478 73.3434C109.177 74.4751 110.137 75.4225 111.279 76.1061C112.42 76.7897 113.708 77.1895 115.036 77.272C116.363 77.3544 117.691 77.1171 118.908 76.5799C120.125 76.0427 121.195 75.2214 122.029 74.1849C122.862 73.1484 123.435 71.9269 123.699 70.6232V70.2125" stroke="white" stroke-width="3" stroke-miterlimit="10" stroke-linecap="round"/>
<path d="M116.012 87.2275C114.821 86.6012 113.824 85.6614 113.128 84.5095C112.433 83.3576 112.066 82.0375 112.066 80.692C112.073 79.5415 112.352 78.4091 112.88 77.387" stroke="white" stroke-width="3" stroke-linecap="round" stroke-linejoin="round"/>
<path d="M128.562 55.9624C128.562 57.5371 127.937 59.0474 126.823 60.1608C125.71 61.2743 124.2 61.8999 122.625 61.8999" stroke="white" stroke-width="3" stroke-miterlimit="10" stroke-linecap="round"/>
<path d="M128.563 55.9742H142.219L144.619 53.5754" stroke="white" stroke-width="3" stroke-miterlimit="10" stroke-linecap="round"/>
<path d="M136.282 60.7242H143.407L145.807 58.3254H152.313" stroke="white" stroke-width="3" stroke-miterlimit="10" stroke-linecap="round"/>
<path d="M135.589 74.9504H142.219L144.619 77.3492" stroke="white" stroke-width="3" stroke-miterlimit="10" stroke-linecap="round"/>
<path d="M135.589 70.2004H143.407L145.807 72.5992H152.313" stroke="white" stroke-width="3" stroke-miterlimit="10" stroke-linecap="round"/>
<path d="M152.313 82.0994H143.431L141.626 79.7L135.737 79.7001V86.8869C135.737 88.4617 135.112 89.9719 133.998 91.0854C132.885 92.1989 131.375 92.8244 129.8 92.8244C128.225 92.8244 126.715 92.1989 125.601 91.0854C124.488 89.9719 123.862 88.4617 123.862 86.8869" stroke="white" stroke-width="3" stroke-miterlimit="10" stroke-linecap="round"/>
<path d="M126.237 41.8714C126.505 40.7209 127.187 39.7091 128.152 39.0287C129.118 38.3482 130.3 38.0466 131.473 38.1813C132.647 38.316 133.73 38.8776 134.516 39.7592C135.303 40.6408 135.737 41.7807 135.737 42.9619V51.2243L141.032 51.2244L143.432 48.825H152.313" stroke="white" stroke-width="3" stroke-miterlimit="10" stroke-linecap="round"/>
<path d="M148.75 65.4624H135.737" stroke="white" stroke-width="3" stroke-miterlimit="10" stroke-linecap="round"/>
<path d="M119.063 61.8999C119.718 61.8999 120.25 61.3682 120.25 60.7124C120.25 60.0566 119.718 59.5249 119.063 59.5249C118.407 59.5249 117.875 60.0566 117.875 60.7124C117.875 61.3682 118.407 61.8999 119.063 61.8999Z" fill="white"/>
<path d="M120.003 89.8062C120.659 89.8062 121.19 89.2745 121.19 88.6187C121.19 87.9628 120.659 87.4312 120.003 87.4312C119.347 87.4312 118.815 87.9628 118.815 88.6187C118.815 89.2745 119.347 89.8062 120.003 89.8062Z" fill="white"/>
<path d="M155.257 51.2124C156.569 51.2124 157.632 50.1491 157.632 48.8374C157.632 47.5257 156.569 46.4624 155.257 46.4624C153.945 46.4624 152.882 47.5257 152.882 48.8374C152.882 50.1491 153.945 51.2124 155.257 51.2124Z" stroke="white" stroke-width="2" stroke-miterlimit="10" stroke-linecap="round"/>
<path d="M155.257 60.7124C156.569 60.7124 157.632 59.6491 157.632 58.3374C157.632 57.0257 156.569 55.9624 155.257 55.9624C153.945 55.9624 152.882 57.0257 152.882 58.3374C152.882 59.6491 153.945 60.7124 155.257 60.7124Z" stroke="white" stroke-width="2" stroke-miterlimit="10" stroke-linecap="round"/>
<path d="M155.257 74.9624C156.569 74.9624 157.632 73.8991 157.632 72.5874C157.632 71.2757 156.569 70.2124 155.257 70.2124C153.945 70.2124 152.882 71.2757 152.882 72.5874C152.882 73.8991 153.945 74.9624 155.257 74.9624Z" stroke="white" stroke-width="2" stroke-miterlimit="10" stroke-linecap="round"/>
<path d="M155.257 84.4624C156.569 84.4624 157.632 83.3991 157.632 82.0874C157.632 80.7757 156.569 79.7124 155.257 79.7124C153.945 79.7124 152.882 80.7757 152.882 82.0874C152.882 83.3991 153.945 84.4624 155.257 84.4624Z" stroke="white" stroke-width="2" stroke-miterlimit="10" stroke-linecap="round"/>
</g>
<path d="M90.8923 201.88L87.4454 209.411L78.4088 207.408C76.371 209.919 73.8309 212.023 70.8512 213.436L71.1701 222.691L63.0768 224.453L59.276 216.203C57.8015 216.173 56.0445 216.08 54.3501 215.704C52.6558 215.329 51.3064 214.733 49.957 214.138L42.7444 219.946L36.2158 214.648L40.1328 206.332C38.3118 203.854 36.8983 200.874 36.1122 197.738L27.0756 195.735L27.1337 187.452L36.0742 185.878C36.7627 182.772 38.2984 179.854 40.0538 177.28L35.9706 168.968L42.4933 163.6L49.5241 169.306C52.5038 167.892 55.5781 167.389 58.8722 167.23L62.7266 159.196L70.916 161.011L70.9525 170.204C73.8711 171.739 76.3821 173.777 78.5481 176.035L87.3314 173.834L90.975 181.456L83.825 186.981C84.3287 190.056 84.4874 193.35 83.7989 196.456L90.8923 201.88Z" stroke="white" stroke-width="4" stroke-miterlimit="10" stroke-linecap="round" stroke-linejoin="round"/>
<path d="M57.4797 201.584C62.9383 202.794 68.3442 199.35 69.5541 193.891C70.7639 188.433 67.3195 183.027 61.8609 181.817C56.4022 180.607 50.9963 184.051 49.7864 189.51C48.5766 194.969 52.021 200.375 57.4797 201.584Z" stroke="white" stroke-width="4" stroke-miterlimit="10" stroke-linecap="round" stroke-linejoin="round"/>
<defs>
<clipPath id="clip0_104_3">
<rect width="57" height="57" fill="white" transform="translate(179 170.962)"/>
</clipPath>
<clipPath id="clip1_104_3">
<rect width="57" height="57" fill="white" transform="translate(106 36.9624)"/>
</clipPath>
</defs>
</svg>
