<svg width="235" height="234" viewBox="0 0 235 234" fill="none" xmlns="http://www.w3.org/2000/svg">
<g clip-path="url(#clip0_68_436)">
<path d="M84.7293 54.8555C84.7293 51.4662 84.0588 48.1101 82.7563 44.9788C81.4537 41.8476 79.5445 39.0024 77.1377 36.6059C74.7309 34.2093 71.8736 32.3082 68.729 31.0112C65.5843 29.7142 62.2139 29.0466 58.8101 29.0466C55.4064 29.0466 52.036 29.7142 48.8913 31.0112C45.7467 32.3082 42.8894 34.2093 40.4825 36.6059C38.0757 39.0024 36.1665 41.8476 34.864 44.9788C33.5614 48.1101 32.891 51.4662 32.891 54.8555C32.9168 58.8773 33.8965 62.8362 35.7502 66.4096C29.8026 68.1888 24.6973 72.0408 21.368 77.2608C18.0387 82.4808 16.7081 88.7198 17.6196 94.8366C18.5311 100.953 21.6237 106.539 26.3318 110.571C31.0398 114.604 37.0485 116.814 43.2587 116.797" stroke="url(#paint0_linear_68_436)" stroke-width="10" stroke-linecap="round" stroke-linejoin="round"/>
<path d="M17.5365 105.118C13.3101 108.597 9.98386 113.036 7.83727 118.061C5.69067 123.086 4.78637 128.55 5.20033 133.996C5.61428 139.441 7.33439 144.707 10.2162 149.353C13.098 153.999 17.0573 157.889 21.7617 160.695C26.466 163.501 31.778 165.143 37.2514 165.481C42.7248 165.82 48.1999 164.845 53.2168 162.64C58.2337 160.435 62.6459 157.063 66.0828 152.808C69.5198 148.553 71.8811 143.538 72.9684 138.186V136.5" stroke="url(#paint1_linear_68_436)" stroke-width="10" stroke-miterlimit="10" stroke-linecap="round"/>
<path d="M41.2762 206.352C36.3663 203.781 32.2555 199.922 29.3883 195.193C26.521 190.465 25.0064 185.045 25.0081 179.522C25.0382 174.799 26.1886 170.15 28.3653 165.954" stroke="url(#paint2_linear_68_436)" stroke-width="10" stroke-linecap="round" stroke-linejoin="round"/>
<path d="M93.0209 78C93.0209 84.4647 90.4419 90.6645 85.8511 95.2357C81.2604 99.8069 75.034 102.375 68.5417 102.375" stroke="url(#paint3_linear_68_436)" stroke-width="10" stroke-miterlimit="10" stroke-linecap="round"/>
<path d="M93.021 78.0487H149.323L159.218 68.2012" stroke="url(#paint4_linear_68_436)" stroke-width="10" stroke-miterlimit="10" stroke-linecap="round"/>
<path d="M124.844 97.5487H154.219L164.113 87.7012H190.938" stroke="url(#paint5_linear_68_436)" stroke-width="10" stroke-miterlimit="10" stroke-linecap="round"/>
<path d="M121.99 155.951H149.323L159.217 165.799" stroke="url(#paint6_linear_68_436)" stroke-width="10" stroke-miterlimit="10" stroke-linecap="round"/>
<path d="M121.99 136.451H154.219L164.113 146.299H190.938" stroke="url(#paint7_linear_68_436)" stroke-width="10" stroke-miterlimit="10" stroke-linecap="round"/>
<path d="M190.938 185.299H154.321L146.877 175.449L122.6 175.45V204.953C122.6 211.418 120.021 217.618 115.43 222.189C110.839 226.76 104.613 229.328 98.1208 229.328C91.6285 229.328 85.4021 226.76 80.8114 222.189C76.2206 217.618 73.6416 211.418 73.6416 204.953" stroke="url(#paint8_linear_68_436)" stroke-width="10" stroke-miterlimit="10" stroke-linecap="round"/>
<path d="M83.4333 20.1528C84.5375 15.4298 87.3476 11.276 91.3284 8.48252C95.3093 5.68902 100.183 4.45092 105.021 5.00395C109.859 5.55698 114.324 7.86252 117.566 11.4816C120.808 15.1006 122.599 19.7803 122.6 24.6297V58.5487L144.429 58.5493L154.322 48.6991H190.938" stroke="url(#paint9_linear_68_436)" stroke-width="10" stroke-miterlimit="10" stroke-linecap="round"/>
<path d="M176.25 117H122.6" stroke="url(#paint10_linear_68_436)" stroke-width="10" stroke-miterlimit="10" stroke-linecap="round"/>
<path d="M53.8543 102.375C56.5582 102.375 58.7502 100.192 58.7502 97.5C58.7502 94.8076 56.5582 92.625 53.8543 92.625C51.1504 92.625 48.9585 94.8076 48.9585 97.5C48.9585 100.192 51.1504 102.375 53.8543 102.375Z" fill="url(#paint11_linear_68_436)"/>
<path d="M57.7301 216.938C60.434 216.938 62.6259 214.755 62.6259 212.062C62.6259 209.37 60.434 207.188 57.7301 207.188C55.0262 207.188 52.8342 209.37 52.8342 212.062C52.8342 214.755 55.0262 216.938 57.7301 216.938Z" fill="url(#paint12_linear_68_436)"/>
<path d="M203.075 58.5C208.483 58.5 212.867 54.1348 212.867 48.75C212.867 43.3652 208.483 39 203.075 39C197.668 39 193.284 43.3652 193.284 48.75C193.284 54.1348 197.668 58.5 203.075 58.5Z" stroke="url(#paint13_linear_68_436)" stroke-width="2" stroke-miterlimit="10" stroke-linecap="round"/>
<path d="M203.075 97.5C208.483 97.5 212.867 93.1348 212.867 87.75C212.867 82.3652 208.483 78 203.075 78C197.668 78 193.284 82.3652 193.284 87.75C193.284 93.1348 197.668 97.5 203.075 97.5Z" stroke="url(#paint14_linear_68_436)" stroke-width="2" stroke-miterlimit="10" stroke-linecap="round"/>
<path d="M203.075 156C208.483 156 212.867 151.635 212.867 146.25C212.867 140.865 208.483 136.5 203.075 136.5C197.668 136.5 193.284 140.865 193.284 146.25C193.284 151.635 197.668 156 203.075 156Z" stroke="url(#paint15_linear_68_436)" stroke-width="2" stroke-miterlimit="10" stroke-linecap="round"/>
<path d="M203.075 195C208.483 195 212.867 190.635 212.867 185.25C212.867 179.865 208.483 175.5 203.075 175.5C197.668 175.5 193.284 179.865 193.284 185.25C193.284 190.635 197.668 195 203.075 195Z" stroke="url(#paint16_linear_68_436)" stroke-width="2" stroke-miterlimit="10" stroke-linecap="round"/>
</g>
<defs>
<linearGradient id="paint0_linear_68_436" x1="51.0344" y1="29.0466" x2="51.0344" y2="116.797" gradientUnits="userSpaceOnUse">
<stop stop-color="#FFAA03"/>
<stop offset="1" stop-color="#5B00BB"/>
</linearGradient>
<linearGradient id="paint1_linear_68_436" x1="39.0355" y1="105.118" x2="39.0355" y2="165.547" gradientUnits="userSpaceOnUse">
<stop stop-color="#FFAA03"/>
<stop offset="1" stop-color="#5B00BB"/>
</linearGradient>
<linearGradient id="paint2_linear_68_436" x1="33.1421" y1="165.954" x2="33.1421" y2="206.352" gradientUnits="userSpaceOnUse">
<stop stop-color="#FFAA03"/>
<stop offset="1" stop-color="#5B00BB"/>
</linearGradient>
<linearGradient id="paint3_linear_68_436" x1="80.7813" y1="78" x2="80.7813" y2="102.375" gradientUnits="userSpaceOnUse">
<stop stop-color="#FFAA03"/>
<stop offset="1" stop-color="#5B00BB"/>
</linearGradient>
<linearGradient id="paint4_linear_68_436" x1="126.119" y1="68.2012" x2="126.119" y2="78.0487" gradientUnits="userSpaceOnUse">
<stop stop-color="#FFAA03"/>
<stop offset="1" stop-color="#5B00BB"/>
</linearGradient>
<linearGradient id="paint5_linear_68_436" x1="157.891" y1="87.7012" x2="157.891" y2="97.5487" gradientUnits="userSpaceOnUse">
<stop stop-color="#FFAA03"/>
<stop offset="1" stop-color="#5B00BB"/>
</linearGradient>
<linearGradient id="paint6_linear_68_436" x1="140.603" y1="155.951" x2="140.603" y2="165.799" gradientUnits="userSpaceOnUse">
<stop stop-color="#FFAA03"/>
<stop offset="1" stop-color="#5B00BB"/>
</linearGradient>
<linearGradient id="paint7_linear_68_436" x1="156.464" y1="136.451" x2="156.464" y2="146.299" gradientUnits="userSpaceOnUse">
<stop stop-color="#FFAA03"/>
<stop offset="1" stop-color="#5B00BB"/>
</linearGradient>
<linearGradient id="paint8_linear_68_436" x1="132.29" y1="175.449" x2="132.29" y2="229.328" gradientUnits="userSpaceOnUse">
<stop stop-color="#FFAA03"/>
<stop offset="1" stop-color="#5B00BB"/>
</linearGradient>
<linearGradient id="paint9_linear_68_436" x1="137.186" y1="4.875" x2="137.186" y2="58.5493" gradientUnits="userSpaceOnUse">
<stop stop-color="#FFAA03"/>
<stop offset="1" stop-color="#5B00BB"/>
</linearGradient>
<linearGradient id="paint10_linear_68_436" x1="149.425" y1="117" x2="149.425" y2="118" gradientUnits="userSpaceOnUse">
<stop stop-color="#FFAA03"/>
<stop offset="1" stop-color="#5B00BB"/>
</linearGradient>
<linearGradient id="paint11_linear_68_436" x1="53.8543" y1="92.625" x2="53.8543" y2="102.375" gradientUnits="userSpaceOnUse">
<stop stop-color="#FFAA03"/>
<stop offset="1" stop-color="#5B00BB"/>
</linearGradient>
<linearGradient id="paint12_linear_68_436" x1="57.7301" y1="207.188" x2="57.7301" y2="216.938" gradientUnits="userSpaceOnUse">
<stop stop-color="#FFAA03"/>
<stop offset="1" stop-color="#5B00BB"/>
</linearGradient>
<linearGradient id="paint13_linear_68_436" x1="203.075" y1="39" x2="203.075" y2="58.5" gradientUnits="userSpaceOnUse">
<stop stop-color="#FFAA03"/>
<stop offset="1" stop-color="#5B00BB"/>
</linearGradient>
<linearGradient id="paint14_linear_68_436" x1="203.075" y1="78" x2="203.075" y2="97.5" gradientUnits="userSpaceOnUse">
<stop stop-color="#FFAA03"/>
<stop offset="1" stop-color="#5B00BB"/>
</linearGradient>
<linearGradient id="paint15_linear_68_436" x1="203.075" y1="136.5" x2="203.075" y2="156" gradientUnits="userSpaceOnUse">
<stop stop-color="#FFAA03"/>
<stop offset="1" stop-color="#5B00BB"/>
</linearGradient>
<linearGradient id="paint16_linear_68_436" x1="203.075" y1="175.5" x2="203.075" y2="195" gradientUnits="userSpaceOnUse">
<stop stop-color="#FFAA03"/>
<stop offset="1" stop-color="#5B00BB"/>
</linearGradient>
<clipPath id="clip0_68_436">
<rect width="235" height="234" fill="white"/>
</clipPath>
</defs>
</svg>
