<svg width="73" height="73" viewBox="0 0 73 73" fill="none" xmlns="http://www.w3.org/2000/svg">
<path d="M62.539 46.7414C63.7233 46.1422 64.6744 45.166 65.2425 43.9665C65.8105 42.767 65.9632 41.4126 65.6764 40.1167C65.3896 38.8209 64.6796 37.6574 63.6585 36.8096C62.6373 35.9619 61.363 35.4781 60.0366 35.4346C58.7101 35.3912 57.4069 35.7904 56.3324 36.5694C55.2579 37.3485 54.4733 38.463 54.1022 39.7373C53.7311 41.0115 53.7947 42.373 54.283 43.6072C54.7713 44.8413 55.6564 45.8778 56.7988 46.5532C55.3086 47.1618 54.0725 48.2636 53.2971 49.6743L50.6951 54.4036L46.7214 49.0697C46.6581 48.9847 46.5757 48.9156 46.4809 48.8681C46.386 48.8206 46.2814 48.7959 46.1753 48.796H44.0966V46.0314C44.0945 44.6329 43.6566 43.2699 42.8437 42.1319C42.0308 40.994 40.8834 40.1378 39.5612 39.6824C40.4559 39.0353 41.1227 38.1214 41.4657 37.0718C41.8086 36.0222 41.8102 34.891 41.4702 33.8404C41.1301 32.7898 40.466 31.8741 39.573 31.2245C38.68 30.575 37.6042 30.2251 36.5 30.2251C35.3958 30.2251 34.32 30.575 33.427 31.2245C32.534 31.8741 31.8699 32.7898 31.5298 33.8404C31.1898 34.891 31.1914 36.0222 31.5343 37.0718C31.8773 38.1214 32.5441 39.0353 33.4388 39.6824C32.1165 40.1376 30.969 40.9938 30.1561 42.1318C29.3431 43.2697 28.9053 44.6329 28.9034 46.0314V48.796H26.8246C26.7186 48.7959 26.614 48.8206 26.5191 48.8681C26.4243 48.9156 26.3419 48.9847 26.2786 49.0697L22.3035 54.4036L19.7029 49.6743C18.9272 48.2639 17.6911 47.1622 16.2012 46.5532C17.344 45.8777 18.2295 44.841 18.7181 43.6066C19.2066 42.3722 19.2703 41.0103 18.8992 39.7356C18.5281 38.461 17.7433 37.3461 16.6686 36.5668C15.5938 35.7875 14.2902 35.3881 12.9633 35.4316C11.6365 35.4751 10.3618 35.959 9.34041 36.8071C8.31899 37.6551 7.6089 38.819 7.3221 40.1152C7.0353 41.4114 7.18812 42.7662 7.75645 43.966C8.32478 45.1658 9.2763 46.1422 10.461 46.7414C9.37346 47.2929 8.45987 48.1347 7.82142 49.1736C7.18297 50.2124 6.84458 51.4077 6.84375 52.627V63.9592C6.84375 64.1395 6.9154 64.3125 7.04295 64.4401C7.17049 64.5676 7.34347 64.6393 7.52385 64.6393C7.70422 64.6393 7.87721 64.5676 8.00475 64.4401C8.13229 64.3125 8.20395 64.1395 8.20395 63.9592V52.627C8.20545 51.2381 8.75779 49.9064 9.73979 48.9242C10.7218 47.9419 12.0533 47.3892 13.4423 47.3873H13.5392C14.5556 47.3883 15.553 47.6619 16.4277 48.1795C17.3024 48.6971 18.0223 49.4397 18.5123 50.3301L21.6234 55.9862C21.6234 55.9862 21.6305 55.999 21.6334 56.0062L22.265 57.1539C22.3238 57.2605 22.4101 57.3494 22.5149 57.4113C22.6198 57.4732 22.7392 57.506 22.861 57.5061H29.411C29.827 57.5061 30.2259 57.6713 30.52 57.9654C30.8141 58.2596 30.9794 58.6585 30.9794 59.0744C30.9794 59.4904 30.8141 59.8893 30.52 60.1834C30.2259 60.4776 29.827 60.6428 29.411 60.6428H21.5293C21.1503 60.6438 20.777 60.5503 20.4432 60.3708C20.1094 60.1913 19.8255 59.9315 19.6173 59.6148C19.603 59.5885 19.5868 59.5632 19.5688 59.5392L15.8804 53.551C15.8349 53.4721 15.7741 53.4032 15.7016 53.3483C15.6291 53.2934 15.5463 53.2536 15.4581 53.2313C15.3699 53.2089 15.2781 53.2045 15.1882 53.2183C15.0982 53.232 15.012 53.2637 14.9345 53.3114C14.857 53.3591 14.7899 53.4219 14.7371 53.496C14.6844 53.5701 14.647 53.654 14.6272 53.7428C14.6075 53.8317 14.6057 53.9235 14.6221 54.013C14.6385 54.1025 14.6727 54.1878 14.7226 54.2638L18.2029 59.9199L13.4366 66.2989C13.3788 66.37 13.336 66.4521 13.3108 66.5402C13.2855 66.6283 13.2784 66.7206 13.2897 66.8116C13.301 66.9025 13.3306 66.9903 13.3767 67.0695C13.4228 67.1487 13.4844 67.2178 13.5579 67.2726C13.6314 67.3274 13.7151 67.3668 13.8042 67.3884C13.8933 67.41 13.9858 67.4134 14.0762 67.3984C14.1666 67.3833 14.253 67.3502 14.3303 67.3009C14.4076 67.2516 14.4741 67.1872 14.5259 67.1116L19.057 61.0335C19.7318 61.6525 20.6135 61.9973 21.5293 62.0001H29.4153C30.1806 61.9832 30.9089 61.6674 31.4442 61.1201C31.9795 60.5729 32.2792 59.8378 32.2792 59.0723C32.2792 58.3068 31.9795 57.5717 31.4442 57.0245C30.9089 56.4772 30.1806 56.1613 29.4153 56.1445H23.263L23.0235 55.7167L27.1654 50.1562H45.8346L49.9694 55.7167L49.7298 56.1445H43.589C42.8237 56.1613 42.0954 56.4772 41.5601 57.0245C41.0248 57.5717 40.725 58.3068 40.725 59.0723C40.725 59.8378 41.0248 60.5729 41.5601 61.1201C42.0954 61.6674 42.8237 61.9832 43.589 62.0001H51.4707C52.3848 61.9966 53.2648 61.6524 53.9387 61.0349L58.4699 67.113C58.5805 67.2493 58.7396 67.3375 58.9138 67.3592C59.088 67.381 59.2639 67.3344 59.4046 67.2295C59.5453 67.1245 59.64 66.9691 59.6688 66.796C59.6976 66.6228 59.6583 66.4452 59.5592 66.3003L54.797 59.9099L58.276 54.2553C58.3228 54.1794 58.3542 54.095 58.3684 54.0069C58.3825 53.9188 58.3793 53.8289 58.3587 53.7421C58.3381 53.6553 58.3006 53.5734 58.2484 53.5011C58.1961 53.4288 58.1302 53.3675 58.0542 53.3207C57.9783 53.2739 57.8939 53.2425 57.8059 53.2283C57.7178 53.2141 57.6278 53.2174 57.541 53.238C57.4542 53.2586 57.3724 53.2961 57.3001 53.3483C57.2278 53.4005 57.1665 53.4665 57.1196 53.5424L53.4326 59.5407C53.417 59.5616 53.4027 59.5835 53.3898 59.6062C53.1816 59.925 52.8969 60.1866 52.5617 60.3671C52.2265 60.5477 51.8514 60.6415 51.4707 60.6399H43.589C43.173 60.6399 42.7741 60.4747 42.48 60.1806C42.1859 59.8865 42.0206 59.4875 42.0206 59.0716C42.0206 58.6556 42.1859 58.2567 42.48 57.9626C42.7741 57.6685 43.173 57.5032 43.589 57.5032H50.139C50.2608 57.5031 50.3802 57.4704 50.4851 57.4084C50.5899 57.3465 50.6762 57.2576 50.735 57.1511L51.3623 56.0104C51.3723 55.9933 51.3823 55.9748 51.3909 55.9562L54.4877 50.3301C54.9779 49.4394 55.6983 48.6965 56.5735 48.1792C57.4488 47.6618 58.4469 47.3888 59.4636 47.3887H59.5606C60.9495 47.3906 62.281 47.9433 63.2631 48.9256C64.2451 49.9079 64.7974 51.2395 64.7989 52.6285V63.9606C64.7989 64.141 64.8706 64.3139 64.9981 64.4415C65.1256 64.569 65.2986 64.6407 65.479 64.6407C65.6594 64.6407 65.8324 64.569 65.9599 64.4415C66.0874 64.3139 66.1591 64.141 66.1591 63.9606V52.627C66.158 51.4074 65.8192 50.2119 65.1802 49.173C64.5412 48.1342 63.6271 47.2925 62.539 46.7414V46.7414ZM8.54043 41.4104C8.54043 40.4971 8.81128 39.6042 9.31872 38.8447C9.82616 38.0853 10.5474 37.4934 11.3913 37.1439C12.2351 36.7943 13.1637 36.7029 14.0595 36.8811C14.9553 37.0592 15.7782 37.4991 16.424 38.1449C17.0699 38.7908 17.5097 39.6137 17.6879 40.5095C17.8661 41.4053 17.7746 42.3339 17.4251 43.1777C17.0756 44.0215 16.4837 44.7428 15.7242 45.2502C14.9648 45.7577 14.0719 46.0285 13.1585 46.0285C11.9342 46.027 10.7604 45.54 9.89471 44.6743C9.02897 43.8085 8.54194 42.6348 8.54043 41.4104ZM32.6361 35.4535C32.6361 34.689 32.8629 33.9416 33.2877 33.3059C33.7124 32.6703 34.3162 32.1748 35.0226 31.8823C35.7289 31.5898 36.5062 31.5133 37.256 31.6626C38.0059 31.8119 38.6946 32.1801 39.2351 32.7208C39.7756 33.2616 40.1436 33.9504 40.2926 34.7003C40.4416 35.4502 40.3649 36.2274 40.0721 36.9337C39.7793 37.64 39.2837 38.2435 38.6478 38.6681C38.012 39.0926 37.2645 39.3191 36.5 39.3188C35.4752 39.3177 34.4927 38.9101 33.7681 38.1854C33.0434 37.4608 32.6358 36.4783 32.6347 35.4535H32.6361ZM30.2651 46.0314C30.2666 44.6119 30.8311 43.251 31.8348 42.2473C32.8385 41.2436 34.1994 40.6791 35.6189 40.6776H37.384C38.8034 40.6791 40.1643 41.2436 41.168 42.2473C42.1717 43.251 42.7363 44.6119 42.7378 46.0314V48.796H40.6348V45.9102C40.639 45.8184 40.6245 45.7266 40.5923 45.6405C40.56 45.5544 40.5107 45.4758 40.4472 45.4093C40.3837 45.3428 40.3073 45.2899 40.2228 45.2538C40.1383 45.2176 40.0473 45.199 39.9554 45.199C39.8634 45.199 39.7725 45.2176 39.6879 45.2538C39.6034 45.2899 39.5271 45.3428 39.4636 45.4093C39.4001 45.4758 39.3507 45.5544 39.3185 45.6405C39.2862 45.7266 39.2718 45.8184 39.276 45.9102V48.8031H33.7154V45.9102C33.7197 45.8184 33.7052 45.7266 33.673 45.6405C33.6407 45.5544 33.5914 45.4758 33.5279 45.4093C33.4643 45.3428 33.388 45.2899 33.3035 45.2538C33.219 45.2176 33.128 45.199 33.0361 45.199C32.9441 45.199 32.8532 45.2176 32.7686 45.2538C32.6841 45.2899 32.6078 45.3428 32.5443 45.4093C32.4808 45.4758 32.4314 45.5544 32.3992 45.6405C32.3669 45.7266 32.3525 45.8184 32.3567 45.9102V48.8031H30.2636L30.2651 46.0314ZM55.2248 41.4104C55.2248 40.4971 55.4956 39.6042 56.0031 38.8447C56.5105 38.0853 57.2318 37.4934 58.0756 37.1439C58.9195 36.7943 59.848 36.7029 60.7438 36.8811C61.6397 37.0592 62.4625 37.4991 63.1084 38.1449C63.7542 38.7908 64.1941 39.6137 64.3723 40.5095C64.5505 41.4053 64.459 42.3339 64.1095 43.1777C63.7599 44.0215 63.168 44.7428 62.4086 45.2502C61.6491 45.7577 60.7563 46.0285 59.8429 46.0285C58.6183 46.0274 57.4442 45.5405 56.5781 44.6748C55.7121 43.809 55.2249 42.635 55.2234 41.4104H55.2248Z" fill="#FFAA03"/>
<path d="M23.2133 27.0984C23.2809 27.0983 23.3482 27.0882 23.4129 27.0684L30.0955 25.0167C32.0838 25.7926 34.2004 26.1873 36.3347 26.1802C36.8494 26.1802 37.3584 26.1574 37.8575 26.1146C39.4957 28.1748 42.4385 29.4409 45.6522 29.4409C46.8234 29.4449 47.9885 29.2723 49.1083 28.9291L52.9993 30.3805C53.1178 30.4245 53.2463 30.4346 53.3703 30.4097C53.4943 30.3847 53.6088 30.3256 53.7011 30.2391C53.7934 30.1526 53.8597 30.0421 53.8926 29.92C53.9256 29.7979 53.9238 29.669 53.8875 29.5479L53.0064 26.6179C54.1313 25.4487 54.7473 24.0215 54.7473 22.5587C54.7473 19.9581 52.8153 17.5898 49.787 16.4278C49.7984 16.2539 49.8041 16.0785 49.8041 15.9017C49.8041 10.2314 43.7616 5.61755 36.3347 5.61755C28.9078 5.61755 22.8668 10.2314 22.8668 15.9017C22.8668 18.0646 23.7223 20.112 25.3419 21.8529L22.6415 26.0504C22.5755 26.153 22.5384 26.2715 22.5339 26.3934C22.5294 26.5153 22.5579 26.6362 22.6162 26.7434C22.6745 26.8505 22.7606 26.94 22.8654 27.0025C22.9702 27.0649 23.0898 27.0981 23.2118 27.0984H23.2133ZM53.3885 22.5587C53.3885 23.7834 52.831 24.9469 51.7759 25.9221C51.6823 26.0083 51.6148 26.1192 51.5812 26.242C51.5477 26.3648 51.5494 26.4946 51.5863 26.6165L52.1908 28.6282L49.3621 27.5732C49.2165 27.5177 49.0562 27.5147 48.9087 27.5646C47.8586 27.9138 46.7588 28.0905 45.6522 28.0879C43.1984 28.0879 40.9471 27.2695 39.4957 25.9007C44.6085 24.9583 48.5922 21.7845 49.5717 17.8094C51.9114 18.7918 53.3885 20.6054 53.3885 22.5587ZM26.7777 22.131C26.863 21.9991 26.8999 21.8419 26.8822 21.6859C26.8646 21.5299 26.7934 21.3849 26.6808 21.2755C25.0739 19.7071 24.2256 17.8536 24.2256 15.8989C24.2256 10.9771 29.6578 6.9749 36.3347 6.9749C43.0117 6.9749 48.4453 10.9785 48.4453 15.8974C48.4453 20.8164 43.0131 24.8214 36.3347 24.8214C34.2964 24.8303 32.2763 24.4384 30.3892 23.6679C30.243 23.6071 30.0802 23.599 29.9287 23.6451L24.7959 25.2235L26.7777 22.131Z" fill="#FFAA03"/>
<path d="M29.6791 14.1523H42.9916C43.172 14.1523 43.345 14.0807 43.4725 13.9531C43.6001 13.8256 43.6717 13.6526 43.6717 13.4722C43.6717 13.2918 43.6001 13.1189 43.4725 12.9913C43.345 12.8638 43.172 12.7921 42.9916 12.7921H29.6791C29.4987 12.7921 29.3258 12.8638 29.1982 12.9913C29.0707 13.1189 28.999 13.2918 28.999 13.4722C28.999 13.6526 29.0707 13.8256 29.1982 13.9531C29.3258 14.0807 29.4987 14.1523 29.6791 14.1523Z" fill="#FFAA03"/>
<path d="M43.6716 18.3212C43.6712 18.1411 43.5994 17.9685 43.4719 17.8413C43.3444 17.714 43.1716 17.6426 42.9915 17.6426H29.679C29.5872 17.6384 29.4954 17.6528 29.4093 17.685C29.3232 17.7173 29.2446 17.7667 29.1781 17.8302C29.1116 17.8937 29.0587 17.97 29.0226 18.0545C28.9864 18.139 28.9678 18.23 28.9678 18.3219C28.9678 18.4139 28.9864 18.5049 29.0226 18.5894C29.0587 18.6739 29.1116 18.7502 29.1781 18.8137C29.2446 18.8772 29.3232 18.9266 29.4093 18.9588C29.4954 18.9911 29.5872 19.0055 29.679 19.0013H42.9915C43.0808 19.0013 43.1693 18.9837 43.2518 18.9496C43.3343 18.9154 43.4093 18.8653 43.4724 18.8021C43.5356 18.739 43.5857 18.664 43.6199 18.5815C43.654 18.499 43.6716 18.4105 43.6716 18.3212V18.3212Z" fill="#FFAA03"/>
</svg>
