<svg width="1301" height="411" viewBox="0 0 1301 411" fill="none" xmlns="http://www.w3.org/2000/svg">
<path d="M61.5 0C35.5777 0 7.6875 7.75081 7.6875 24.7812V97.2188C7.6875 114.242 35.5777 122 61.5 122C87.4184 122 115.312 114.242 115.312 97.2188V24.7812C115.312 7.75081 87.4146 0 61.5 0ZM107.625 97.2188C107.625 106.689 86.9725 114.375 61.5 114.375C36.0236 114.375 15.375 106.689 15.375 97.2188V82.9753C23.3162 91.0921 42.4734 95.3125 61.5 95.3125C80.5266 95.3125 99.6838 91.0921 107.625 82.9753V97.2188ZM107.625 74.3438H107.61C107.61 74.3819 107.625 74.4238 107.625 74.4619C107.625 83.875 86.9725 91.5 61.5 91.5C36.0275 91.5 15.375 83.875 15.375 74.4619C15.375 74.4238 15.3904 74.3819 15.3904 74.3438H15.375V60.1003C23.3162 68.2171 42.4734 72.4375 61.5 72.4375C80.5266 72.4375 99.6838 68.2171 107.625 60.1003V74.3438ZM107.625 51.4688H107.61C107.61 51.5069 107.625 51.5488 107.625 51.5869C107.625 61 86.9725 68.625 61.5 68.625C36.0275 68.625 15.375 61 15.375 51.5869C15.375 51.5488 15.3904 51.5069 15.3904 51.4688H15.375V38.369C25.4495 45.9826 43.9148 49.5625 61.5 49.5625C79.0852 49.5625 97.5505 45.9826 107.625 38.369V51.4688ZM61.5 41.9375C36.0236 41.9375 15.375 34.2515 15.375 24.7812C15.375 15.3034 36.0236 7.625 61.5 7.625C86.9725 7.625 107.625 15.3034 107.625 24.7812C107.625 34.2515 86.9725 41.9375 61.5 41.9375Z" fill="#FFAA03"/>
<path d="M96.0938 102.938C98.2166 102.938 99.9375 101.231 99.9375 99.125C99.9375 97.0194 98.2166 95.3125 96.0938 95.3125C93.9709 95.3125 92.25 97.0194 92.25 99.125C92.25 101.231 93.9709 102.938 96.0938 102.938Z" fill="#FFAA03"/>
<path d="M96.0938 80.0625C98.2166 80.0625 99.9375 78.3556 99.9375 76.25C99.9375 74.1444 98.2166 72.4375 96.0938 72.4375C93.9709 72.4375 92.25 74.1444 92.25 76.25C92.25 78.3556 93.9709 80.0625 96.0938 80.0625Z" fill="#FFAA03"/>
<path d="M96.0938 57.1875C98.2166 57.1875 99.9375 55.4806 99.9375 53.375C99.9375 51.2694 98.2166 49.5625 96.0938 49.5625C93.9709 49.5625 92.25 51.2694 92.25 53.375C92.25 55.4806 93.9709 57.1875 96.0938 57.1875Z" fill="#FFAA03"/>
<path d="M292.203 252.832C295.347 252.832 298.232 251.721 300.83 249.503C303.403 247.287 304.986 244.593 305.554 241.449C306.086 238.283 305.423 235.614 303.469 233.395C301.52 231.154 298.971 230.044 295.819 230.044C292.656 230.044 289.777 231.154 287.2 233.395C284.594 235.614 283.011 238.286 282.473 241.449C282.083 244.59 282.836 247.287 284.689 249.503C286.548 251.721 289.062 252.832 292.203 252.832Z" fill="#FFAA03"/>
<path d="M320.106 333.629C320.106 332.669 318.845 331.686 316.391 330.66C316.105 331.075 315.816 331.43 315.529 331.847C313.818 334.025 307.437 341.708 299.132 346.312C299.078 346.334 299.034 346.355 299.001 346.385C298.278 346.77 297.538 347.057 296.796 347.398C294.604 348.178 292.56 348.38 291.903 348.435C290.039 348.189 289.029 346.888 289.029 344.42C289.029 342.382 289.626 338.356 290.838 332.306L292.23 326.201L297.915 298.906C298.84 294.253 299.337 291.677 299.449 291.169L300.688 284.785C301.419 280.831 301.79 278.219 301.79 276.945C301.79 274.505 301.179 272.654 300.21 271.148C300.126 270.929 300.008 270.708 299.847 270.479C299.7 270.304 299.555 270.149 299.4 269.988C299.23 269.808 299.14 269.636 298.911 269.447C296.488 267.466 294.231 266.901 292.67 266.776L292.697 266.732C292.697 266.732 282.438 265.951 267.245 275.965C267.024 276.112 266.89 276.21 266.688 276.35C262.575 278.953 259.286 281.57 257.008 283.666C255.255 285.159 253.91 286.554 252.914 287.85C252.914 287.856 252.865 287.908 252.865 287.908L252.876 287.902C251.576 289.605 250.894 291.158 250.894 292.528C250.894 293.612 251.767 294.695 253.509 295.773C253.509 295.773 260.037 287.351 271.003 281.865C271.832 281.508 273.939 280.637 275.792 280.154C276.655 279.955 278.29 279.802 279.335 280.664C280.083 281.439 280.579 282.528 280.579 284.215C280.579 285.752 280.347 287.607 279.881 289.84L278.77 295.096L277.386 301.665L271.972 327.639C269.201 341.055 267.815 349.082 267.815 351.696C267.815 357.867 271.191 360.954 277.94 360.954C280.997 360.954 284.146 360.4 287.369 359.409C287.391 359.409 287.402 359.42 287.424 359.428C287.645 359.354 287.847 359.267 288.057 359.196C288.592 359.024 289.133 358.82 289.667 358.615C304.891 352.949 314.907 341.538 317.939 337.718C318.206 337.396 318.43 337.09 318.654 336.798C318.823 336.563 318.932 336.402 318.932 336.402H318.921C319.688 335.272 320.106 334.333 320.106 333.629Z" fill="#FFAA03"/>
<g clip-path="url(#clip0_96_11)">
<path d="M549.708 29.0686C549.708 27.2725 549.354 25.4941 548.667 23.8348C547.98 22.1755 546.972 20.6678 545.702 19.3978C544.432 18.1279 542.925 17.1205 541.265 16.4331C539.606 15.7458 537.828 15.3921 536.032 15.3921C534.236 15.3921 532.457 15.7458 530.798 16.4331C529.139 17.1205 527.631 18.1279 526.361 19.3978C525.091 20.6678 524.084 22.1755 523.396 23.8348C522.709 25.4941 522.355 27.2725 522.355 29.0686C522.369 31.1998 522.886 33.2977 523.864 35.1912C520.726 36.1341 518.032 38.1753 516.275 40.9415C514.518 43.7076 513.816 47.0138 514.297 50.2551C514.778 53.4965 516.41 56.4563 518.894 58.5932C521.378 60.7301 524.549 61.9011 527.826 61.8921" stroke="#FFAA03" stroke-width="5" stroke-linecap="round" stroke-linejoin="round"/>
<path d="M514.253 55.7034C512.023 57.5472 510.268 59.8994 509.135 62.5621C508.003 65.2249 507.526 68.1206 507.744 71.006C507.962 73.8915 508.87 76.6824 510.391 79.1443C511.911 81.6062 514 83.6673 516.483 85.1545C518.965 86.6416 521.768 87.5114 524.656 87.6907C527.544 87.8701 530.433 87.3538 533.08 86.1852C535.728 85.0166 538.056 83.2298 539.869 80.9749C541.683 78.72 542.929 76.0629 543.502 73.2267V72.3332" stroke="#FFAA03" stroke-width="5" stroke-miterlimit="10" stroke-linecap="round"/>
<path d="M526.78 109.349C524.189 107.986 522.02 105.942 520.507 103.436C518.994 100.93 518.195 98.0582 518.196 95.131C518.212 92.6283 518.819 90.1648 519.967 87.9412" stroke="#FFAA03" stroke-width="5" stroke-linecap="round" stroke-linejoin="round"/>
<path d="M554.083 41.3333C554.083 44.759 552.723 48.0444 550.3 50.4667C547.878 52.8891 544.592 54.2499 541.167 54.2499" stroke="#FFAA03" stroke-width="5" stroke-miterlimit="10" stroke-linecap="round"/>
<path d="M554.083 41.359H583.792L589.013 36.1406" stroke="#FFAA03" stroke-width="5" stroke-miterlimit="10" stroke-linecap="round"/>
<path d="M570.875 51.6922H586.375L591.596 46.4739H605.75" stroke="#FFAA03" stroke-width="5" stroke-miterlimit="10" stroke-linecap="round"/>
<path d="M569.369 82.6406H583.792L589.013 87.859" stroke="#FFAA03" stroke-width="5" stroke-miterlimit="10" stroke-linecap="round"/>
<path d="M569.369 72.3074H586.375L591.596 77.5257H605.75" stroke="#FFAA03" stroke-width="5" stroke-miterlimit="10" stroke-linecap="round"/>
<path d="M605.75 98.1928H586.429L582.501 92.9729L569.691 92.9732V108.608C569.691 112.033 568.33 115.319 565.908 117.741C563.485 120.164 560.2 121.524 556.774 121.524C553.349 121.524 550.063 120.164 547.641 117.741C545.219 115.319 543.858 112.033 543.858 108.608" stroke="#FFAA03" stroke-width="5" stroke-miterlimit="10" stroke-linecap="round"/>
<path d="M549.024 10.6792C549.607 8.17637 551.09 5.97524 553.19 4.49493C555.291 3.01462 557.862 2.35852 560.415 2.65158C562.968 2.94464 565.324 4.16638 567.035 6.08416C568.745 8.00194 569.691 10.4818 569.691 13.0515V31.0257L581.209 31.0261L586.429 25.8063H605.75" stroke="#FFAA03" stroke-width="5" stroke-miterlimit="10" stroke-linecap="round"/>
<path d="M598 62H569.691" stroke="#FFAA03" stroke-width="5" stroke-miterlimit="10" stroke-linecap="round"/>
<path d="M533.417 54.2499C534.843 54.2499 536 53.0933 536 51.6666C536 50.2398 534.843 49.0833 533.417 49.0833C531.99 49.0833 530.833 50.2398 530.833 51.6666C530.833 53.0933 531.99 54.2499 533.417 54.2499Z" fill="#FFAA03"/>
<path d="M535.462 114.958C536.888 114.958 538.045 113.802 538.045 112.375C538.045 110.948 536.888 109.792 535.462 109.792C534.035 109.792 532.878 110.948 532.878 112.375C532.878 113.802 534.035 114.958 535.462 114.958Z" fill="#FFAA03"/>
<path d="M612.155 30.9998C615.008 30.9998 617.321 28.6866 617.321 25.8332C617.321 22.9797 615.008 20.6665 612.155 20.6665C609.301 20.6665 606.988 22.9797 606.988 25.8332C606.988 28.6866 609.301 30.9998 612.155 30.9998Z" stroke="#FFAA03" stroke-width="2" stroke-miterlimit="10" stroke-linecap="round"/>
<path d="M612.155 51.6666C615.008 51.6666 617.321 49.3534 617.321 46.4999C617.321 43.6464 615.008 41.3333 612.155 41.3333C609.301 41.3333 606.988 43.6464 606.988 46.4999C606.988 49.3534 609.301 51.6666 612.155 51.6666Z" stroke="#FFAA03" stroke-width="2" stroke-miterlimit="10" stroke-linecap="round"/>
<path d="M612.155 82.6666C615.008 82.6666 617.321 80.3534 617.321 77.4999C617.321 74.6464 615.008 72.3333 612.155 72.3333C609.301 72.3333 606.988 74.6464 606.988 77.4999C606.988 80.3534 609.301 82.6666 612.155 82.6666Z" stroke="#FFAA03" stroke-width="2" stroke-miterlimit="10" stroke-linecap="round"/>
<path d="M612.155 103.333C615.008 103.333 617.321 101.02 617.321 98.1667C617.321 95.3132 615.008 93 612.155 93C609.301 93 606.988 95.3132 606.988 98.1667C606.988 101.02 609.301 103.333 612.155 103.333Z" stroke="#FFAA03" stroke-width="2" stroke-miterlimit="10" stroke-linecap="round"/>
</g>
<path d="M851.412 292.025C852.05 292.025 852.687 291.759 853.219 291.281C858.69 285.862 865.862 283.365 875.69 283.365C875.744 283.365 875.85 283.365 875.903 283.365C877.815 283.365 879.834 283.472 881.853 283.525C890.884 283.897 901.084 284.269 909 278.265L912.4 281.506C912.878 281.984 913.515 282.197 914.153 282.197C914.419 282.197 914.631 282.144 914.897 282.09C915.747 281.825 916.437 281.134 916.65 280.231L920.103 265.515C920.315 264.612 920.05 263.709 919.359 263.072C918.669 262.434 917.765 262.222 916.862 262.487L902.412 266.844C901.562 267.109 900.872 267.8 900.659 268.703C900.447 269.606 900.712 270.509 901.403 271.147L905.175 274.706C898.8 279.062 890.3 278.744 882.065 278.425C879.994 278.319 877.922 278.265 875.956 278.265C875.903 278.265 875.797 278.265 875.744 278.265C864.481 278.265 856.194 281.24 849.712 287.669C848.703 288.678 848.703 290.272 849.659 291.281C850.084 291.759 850.775 292.025 851.412 292.025ZM914.1 268.65L912.665 274.759L908.097 270.456L914.1 268.65Z" fill="#FFAA03"/>
<path d="M873.991 265.409C874.309 265.409 874.575 265.356 874.894 265.25L877.603 264.241L878.612 266.95C878.984 267.959 879.994 268.597 881.003 268.597C881.322 268.597 881.587 268.544 881.906 268.437C883.234 267.959 883.925 266.472 883.394 265.144L882.384 262.434L885.094 261.425C886.422 260.947 887.112 259.459 886.581 258.131C886.103 256.803 884.616 256.166 883.287 256.644L880.578 257.653L879.569 254.944C879.091 253.616 877.603 252.978 876.275 253.456C874.947 253.934 874.256 255.422 874.787 256.75L875.797 259.459L873.087 260.469C871.759 260.947 871.069 262.434 871.6 263.762C871.972 264.772 872.928 265.409 873.991 265.409Z" fill="#FFAA03"/>
<path d="M882.756 292.291C878.666 290.431 873.778 292.237 871.919 296.328C871.016 298.294 870.963 300.525 871.706 302.597C872.45 304.669 873.991 306.262 875.956 307.166C877.019 307.644 878.188 307.909 879.356 307.909C880.313 307.909 881.322 307.75 882.225 307.378C884.297 306.634 885.891 305.094 886.794 303.128C887.697 301.162 887.75 298.931 887.006 296.859C886.263 294.841 884.775 293.194 882.756 292.291ZM882.172 301.003C881.853 301.747 881.216 302.331 880.472 302.597C879.728 302.862 878.878 302.862 878.134 302.491C877.391 302.172 876.806 301.534 876.541 300.791C876.275 300.047 876.275 299.197 876.647 298.453C877.178 297.337 878.294 296.647 879.463 296.647C879.888 296.647 880.313 296.753 880.738 296.912C881.481 297.231 882.066 297.869 882.331 298.612C882.544 299.462 882.491 300.259 882.172 301.003Z" fill="#FFAA03"/>
<path d="M916.172 257.706C916.703 258.344 917.394 258.663 918.191 258.663C918.722 258.663 919.306 258.503 919.784 258.131L933.225 247.453C934.341 246.55 934.5 244.956 933.65 243.841C932.8 242.725 931.153 242.566 930.037 243.416L918.562 252.553L914.737 247.825C913.834 246.709 912.241 246.55 911.125 247.453C910.009 248.356 909.85 249.95 910.753 251.066L916.172 257.706Z" fill="#FFAA03"/>
<path d="M954.581 233.322H829.419C827.984 233.322 826.869 234.491 826.869 235.872C826.869 237.253 828.037 238.422 829.419 238.422H835.528V316.091C835.528 317.525 836.697 318.641 838.078 318.641H866.447L855.662 353.331C855.237 354.659 855.981 356.094 857.362 356.519C857.628 356.625 857.894 356.625 858.106 356.625C859.222 356.625 860.231 355.934 860.55 354.819L871.812 318.694H912.187L923.45 354.872C923.769 355.987 924.778 356.678 925.894 356.678C926.159 356.678 926.425 356.625 926.637 356.572C927.966 356.147 928.762 354.712 928.337 353.384L917.553 318.694H945.922C947.356 318.694 948.472 317.525 948.472 316.144V238.475H954.581C956.016 238.475 957.131 237.306 957.131 235.925C957.131 234.544 955.962 233.322 954.581 233.322ZM943.372 313.541H840.628V238.475H943.372V313.541Z" fill="#FFAA03"/>
<path d="M1205 45.9404V120.451H1224.61V45.9404H1205Z" fill="#FFAA03"/>
<path d="M1254.25 29.2544H1234.64V120.451H1254.25V29.2544Z" fill="#FFAA03"/>
<path d="M1195 63.3176H1175.39V120.428H1195V63.3176Z" fill="#FFAA03"/>
<path d="M1145.75 82.7461V120.451H1165.36V82.7461H1145.75Z" fill="#FFAA03"/>
<path d="M12.6453 173V152H22.1853C24.4653 152 26.4753 152.44 28.2153 153.32C29.9553 154.18 31.3153 155.39 32.2953 156.95C33.2753 158.51 33.7653 160.36 33.7653 162.5C33.7653 164.62 33.2753 166.47 32.2953 168.05C31.3153 169.61 29.9553 170.83 28.2153 171.71C26.4753 172.57 24.4653 173 22.1853 173H12.6453ZM17.5053 169.01H21.9453C23.3453 169.01 24.5553 168.75 25.5753 168.23C26.6153 167.69 27.4153 166.93 27.9753 165.95C28.5553 164.97 28.8453 163.82 28.8453 162.5C28.8453 161.16 28.5553 160.01 27.9753 159.05C27.4153 158.07 26.6153 157.32 25.5753 156.8C24.5553 156.26 23.3453 155.99 21.9453 155.99H17.5053V169.01ZM34.3775 173L43.7375 152H48.5375L57.9275 173H52.8275L45.1475 154.46H47.0675L39.3575 173H34.3775ZM39.0575 168.5L40.3475 164.81H51.1475L52.4675 168.5H39.0575ZM60.1062 173V152H69.6462C71.9262 152 73.9362 152.44 75.6762 153.32C77.4162 154.18 78.7762 155.39 79.7562 156.95C80.7362 158.51 81.2262 160.36 81.2262 162.5C81.2262 164.62 80.7362 166.47 79.7562 168.05C78.7762 169.61 77.4162 170.83 75.6762 171.71C73.9362 172.57 71.9262 173 69.6462 173H60.1062ZM64.9662 169.01H69.4062C70.8062 169.01 72.0162 168.75 73.0362 168.23C74.0762 167.69 74.8762 166.93 75.4362 165.95C76.0162 164.97 76.3062 163.82 76.3062 162.5C76.3062 161.16 76.0162 160.01 75.4362 159.05C74.8762 158.07 74.0762 157.32 73.0362 156.8C72.0162 156.26 70.8062 155.99 69.4062 155.99H64.9662V169.01ZM95.0914 173.36C93.4314 173.36 91.8914 173.09 90.4714 172.55C89.0714 172.01 87.8514 171.25 86.8114 170.27C85.7914 169.29 84.9914 168.14 84.4114 166.82C83.8514 165.5 83.5714 164.06 83.5714 162.5C83.5714 160.94 83.8514 159.5 84.4114 158.18C84.9914 156.86 85.8014 155.71 86.8414 154.73C87.8814 153.75 89.1014 152.99 90.5014 152.45C91.9014 151.91 93.4214 151.64 95.0614 151.64C96.7214 151.64 98.2414 151.91 99.6214 152.45C101.021 152.99 102.231 153.75 103.251 154.73C104.291 155.71 105.101 156.86 105.681 158.18C106.261 159.48 106.551 160.92 106.551 162.5C106.551 164.06 106.261 165.51 105.681 166.85C105.101 168.17 104.291 169.32 103.251 170.3C102.231 171.26 101.021 172.01 99.6214 172.55C98.2414 173.09 96.7314 173.36 95.0914 173.36ZM95.0614 169.22C96.0014 169.22 96.8614 169.06 97.6414 168.74C98.4414 168.42 99.1414 167.96 99.7414 167.36C100.341 166.76 100.801 166.05 101.121 165.23C101.461 164.41 101.631 163.5 101.631 162.5C101.631 161.5 101.461 160.59 101.121 159.77C100.801 158.95 100.341 158.24 99.7414 157.64C99.1614 157.04 98.4714 156.58 97.6714 156.26C96.8714 155.94 96.0014 155.78 95.0614 155.78C94.1214 155.78 93.2514 155.94 92.4514 156.26C91.6714 156.58 90.9814 157.04 90.3814 157.64C89.7814 158.24 89.3114 158.95 88.9714 159.77C88.6514 160.59 88.4914 161.5 88.4914 162.5C88.4914 163.48 88.6514 164.39 88.9714 165.23C89.3114 166.05 89.7714 166.76 90.3514 167.36C90.9514 167.96 91.6514 168.42 92.4514 168.74C93.2514 169.06 94.1214 169.22 95.0614 169.22ZM117.104 173.36C115.424 173.36 113.814 173.14 112.274 172.7C110.734 172.24 109.494 171.65 108.554 170.93L110.204 167.27C111.104 167.91 112.164 168.44 113.384 168.86C114.624 169.26 115.874 169.46 117.134 169.46C118.094 169.46 118.864 169.37 119.444 169.19C120.044 168.99 120.484 168.72 120.764 168.38C121.044 168.04 121.184 167.65 121.184 167.21C121.184 166.65 120.964 166.21 120.524 165.89C120.084 165.55 119.504 165.28 118.784 165.08C118.064 164.86 117.264 164.66 116.384 164.48C115.524 164.28 114.654 164.04 113.774 163.76C112.914 163.48 112.124 163.12 111.404 162.68C110.684 162.24 110.094 161.66 109.634 160.94C109.194 160.22 108.974 159.3 108.974 158.18C108.974 156.98 109.294 155.89 109.934 154.91C110.594 153.91 111.574 153.12 112.874 152.54C114.194 151.94 115.844 151.64 117.824 151.64C119.144 151.64 120.444 151.8 121.724 152.12C123.004 152.42 124.134 152.88 125.114 153.5L123.614 157.19C122.634 156.63 121.654 156.22 120.674 155.96C119.694 155.68 118.734 155.54 117.794 155.54C116.854 155.54 116.084 155.65 115.484 155.87C114.884 156.09 114.454 156.38 114.194 156.74C113.934 157.08 113.804 157.48 113.804 157.94C113.804 158.48 114.024 158.92 114.464 159.26C114.904 159.58 115.484 159.84 116.204 160.04C116.924 160.24 117.714 160.44 118.574 160.64C119.454 160.84 120.324 161.07 121.184 161.33C122.064 161.59 122.864 161.94 123.584 162.38C124.304 162.82 124.884 163.4 125.324 164.12C125.784 164.84 126.014 165.75 126.014 166.85C126.014 168.03 125.684 169.11 125.024 170.09C124.364 171.07 123.374 171.86 122.054 172.46C120.754 173.06 119.104 173.36 117.104 173.36Z" fill="#F5F5F5"/>
<path d="M162.602 403.36C160.982 403.36 159.472 403.1 158.072 402.58C156.692 402.04 155.492 401.28 154.472 400.3C153.452 399.32 152.652 398.17 152.072 396.85C151.512 395.53 151.232 394.08 151.232 392.5C151.232 390.92 151.512 389.47 152.072 388.15C152.652 386.83 153.452 385.68 154.472 384.7C155.512 383.72 156.722 382.97 158.102 382.45C159.482 381.91 160.992 381.64 162.632 381.64C164.452 381.64 166.092 381.96 167.552 382.6C169.032 383.22 170.272 384.14 171.272 385.36L168.152 388.24C167.432 387.42 166.632 386.81 165.752 386.41C164.872 385.99 163.912 385.78 162.872 385.78C161.892 385.78 160.992 385.94 160.172 386.26C159.352 386.58 158.642 387.04 158.042 387.64C157.442 388.24 156.972 388.95 156.632 389.77C156.312 390.59 156.152 391.5 156.152 392.5C156.152 393.5 156.312 394.41 156.632 395.23C156.972 396.05 157.442 396.76 158.042 397.36C158.642 397.96 159.352 398.42 160.172 398.74C160.992 399.06 161.892 399.22 162.872 399.22C163.912 399.22 164.872 399.02 165.752 398.62C166.632 398.2 167.432 397.57 168.152 396.73L171.272 399.61C170.272 400.83 169.032 401.76 167.552 402.4C166.092 403.04 164.442 403.36 162.602 403.36ZM184.314 403.36C182.654 403.36 181.114 403.09 179.694 402.55C178.294 402.01 177.074 401.25 176.034 400.27C175.014 399.29 174.214 398.14 173.634 396.82C173.074 395.5 172.794 394.06 172.794 392.5C172.794 390.94 173.074 389.5 173.634 388.18C174.214 386.86 175.024 385.71 176.064 384.73C177.104 383.75 178.324 382.99 179.724 382.45C181.124 381.91 182.644 381.64 184.284 381.64C185.944 381.64 187.464 381.91 188.844 382.45C190.244 382.99 191.454 383.75 192.474 384.73C193.514 385.71 194.324 386.86 194.904 388.18C195.484 389.48 195.774 390.92 195.774 392.5C195.774 394.06 195.484 395.51 194.904 396.85C194.324 398.17 193.514 399.32 192.474 400.3C191.454 401.26 190.244 402.01 188.844 402.55C187.464 403.09 185.954 403.36 184.314 403.36ZM184.284 399.22C185.224 399.22 186.084 399.06 186.864 398.74C187.664 398.42 188.364 397.96 188.964 397.36C189.564 396.76 190.024 396.05 190.344 395.23C190.684 394.41 190.854 393.5 190.854 392.5C190.854 391.5 190.684 390.59 190.344 389.77C190.024 388.95 189.564 388.24 188.964 387.64C188.384 387.04 187.694 386.58 186.894 386.26C186.094 385.94 185.224 385.78 184.284 385.78C183.344 385.78 182.474 385.94 181.674 386.26C180.894 386.58 180.204 387.04 179.604 387.64C179.004 388.24 178.534 388.95 178.194 389.77C177.874 390.59 177.714 391.5 177.714 392.5C177.714 393.48 177.874 394.39 178.194 395.23C178.534 396.05 178.994 396.76 179.574 397.36C180.174 397.96 180.874 398.42 181.674 398.74C182.474 399.06 183.344 399.22 184.284 399.22ZM199.427 403V382H203.447L215.837 397.12H213.887V382H218.687V403H214.697L202.277 387.88H204.227V403H199.427ZM238.055 382H242.915V403H238.055V382ZM228.515 403H223.655V382H228.515V403ZM238.415 394.39H228.155V390.28H238.415V394.39ZM252.354 390.46H262.464V394.24H252.354V390.46ZM252.714 399.1H264.144V403H247.884V382H263.754V385.9H252.714V399.1ZM278.061 403.36C276.441 403.36 274.931 403.1 273.531 402.58C272.151 402.04 270.951 401.28 269.931 400.3C268.911 399.32 268.111 398.17 267.531 396.85C266.971 395.53 266.691 394.08 266.691 392.5C266.691 390.92 266.971 389.47 267.531 388.15C268.111 386.83 268.911 385.68 269.931 384.7C270.971 383.72 272.181 382.97 273.561 382.45C274.941 381.91 276.451 381.64 278.091 381.64C279.911 381.64 281.551 381.96 283.011 382.6C284.491 383.22 285.731 384.14 286.731 385.36L283.611 388.24C282.891 387.42 282.091 386.81 281.211 386.41C280.331 385.99 279.371 385.78 278.331 385.78C277.351 385.78 276.451 385.94 275.631 386.26C274.811 386.58 274.101 387.04 273.501 387.64C272.901 388.24 272.431 388.95 272.091 389.77C271.771 390.59 271.611 391.5 271.611 392.5C271.611 393.5 271.771 394.41 272.091 395.23C272.431 396.05 272.901 396.76 273.501 397.36C274.101 397.96 274.811 398.42 275.631 398.74C276.451 399.06 277.351 399.22 278.331 399.22C279.371 399.22 280.331 399.02 281.211 398.62C282.091 398.2 282.891 397.57 283.611 396.73L286.731 399.61C285.731 400.83 284.491 401.76 283.011 402.4C281.551 403.04 279.901 403.36 278.061 403.36ZM290.012 403V382H294.872V403H290.012ZM299.856 403V382H303.876L312.816 396.82H310.686L319.476 382H323.466L323.526 403H318.966L318.936 388.99H319.776L312.756 400.78H310.566L303.396 388.99H304.416V403H299.856ZM332.979 390.46H343.089V394.24H332.979V390.46ZM333.339 399.1H344.769V403H328.509V382H344.379V385.9H333.339V399.1ZM348.636 403V382H352.656L365.046 397.12H363.096V382H367.896V403H363.906L351.486 387.88H353.436V403H348.636ZM377.214 403V385.96H370.494V382H388.794V385.96H382.074V403H377.214ZM401.316 403.36C399.656 403.36 398.116 403.09 396.696 402.55C395.296 402.01 394.076 401.25 393.036 400.27C392.016 399.29 391.216 398.14 390.636 396.82C390.076 395.5 389.796 394.06 389.796 392.5C389.796 390.94 390.076 389.5 390.636 388.18C391.216 386.86 392.026 385.71 393.066 384.73C394.106 383.75 395.326 382.99 396.726 382.45C398.126 381.91 399.646 381.64 401.286 381.64C402.946 381.64 404.466 381.91 405.846 382.45C407.246 382.99 408.456 383.75 409.476 384.73C410.516 385.71 411.326 386.86 411.906 388.18C412.486 389.48 412.776 390.92 412.776 392.5C412.776 394.06 412.486 395.51 411.906 396.85C411.326 398.17 410.516 399.32 409.476 400.3C408.456 401.26 407.246 402.01 405.846 402.55C404.466 403.09 402.956 403.36 401.316 403.36ZM401.286 399.22C402.226 399.22 403.086 399.06 403.866 398.74C404.666 398.42 405.366 397.96 405.966 397.36C406.566 396.76 407.026 396.05 407.346 395.23C407.686 394.41 407.856 393.5 407.856 392.5C407.856 391.5 407.686 390.59 407.346 389.77C407.026 388.95 406.566 388.24 405.966 387.64C405.386 387.04 404.696 386.58 403.896 386.26C403.096 385.94 402.226 385.78 401.286 385.78C400.346 385.78 399.476 385.94 398.676 386.26C397.896 386.58 397.206 387.04 396.606 387.64C396.006 388.24 395.536 388.95 395.196 389.77C394.876 390.59 394.716 391.5 394.716 392.5C394.716 393.48 394.876 394.39 395.196 395.23C395.536 396.05 395.996 396.76 396.576 397.36C397.176 397.96 397.876 398.42 398.676 398.74C399.476 399.06 400.346 399.22 401.286 399.22Z" fill="#F5F5F5"/>
<path d="M457.986 173V152H462.846V173H457.986ZM467.83 173V152H471.85L484.24 167.12H482.29V152H487.09V173H483.1L470.68 157.88H472.63V173H467.83ZM496.408 173V155.96H489.688V152H507.988V155.96H501.268V173H496.408ZM515.073 160.46H525.183V164.24H515.073V160.46ZM515.433 169.1H526.863V173H510.603V152H526.473V155.9H515.433V169.1ZM530.73 173V152H535.59V169.04H546.12V173H530.73ZM548.836 173V152H553.696V173H548.836ZM568.819 173.36C567.159 173.36 565.629 173.1 564.229 172.58C562.849 172.04 561.639 171.28 560.599 170.3C559.579 169.32 558.779 168.17 558.199 166.85C557.639 165.53 557.359 164.08 557.359 162.5C557.359 160.92 557.639 159.47 558.199 158.15C558.779 156.83 559.589 155.68 560.629 154.7C561.669 153.72 562.889 152.97 564.289 152.45C565.689 151.91 567.229 151.64 568.909 151.64C570.769 151.64 572.439 151.95 573.919 152.57C575.419 153.19 576.679 154.09 577.699 155.27L574.579 158.15C573.819 157.35 572.989 156.76 572.089 156.38C571.189 155.98 570.209 155.78 569.149 155.78C568.129 155.78 567.199 155.94 566.359 156.26C565.519 156.58 564.789 157.04 564.169 157.64C563.569 158.24 563.099 158.95 562.759 159.77C562.439 160.59 562.279 161.5 562.279 162.5C562.279 163.48 562.439 164.38 562.759 165.2C563.099 166.02 563.569 166.74 564.169 167.36C564.789 167.96 565.509 168.42 566.329 168.74C567.169 169.06 568.089 169.22 569.089 169.22C570.049 169.22 570.979 169.07 571.879 168.77C572.799 168.45 573.689 167.92 574.549 167.18L577.309 170.69C576.169 171.55 574.839 172.21 573.319 172.67C571.819 173.13 570.319 173.36 568.819 173.36ZM572.869 170.06V162.17H577.309V170.69L572.869 170.06ZM586.294 160.46H596.404V164.24H586.294V160.46ZM586.654 169.1H598.084V173H581.824V152H597.694V155.9H586.654V169.1ZM583.744 150.29L587.704 145.97H591.844L595.804 150.29H592.384L588.244 146.69H591.304L587.164 150.29H583.744ZM601.951 173V152H605.971L618.361 167.12H616.411V152H621.211V173H617.221L604.801 157.88H606.751V173H601.951ZM636.229 173.36C634.609 173.36 633.099 173.1 631.699 172.58C630.319 172.04 629.119 171.28 628.099 170.3C627.079 169.32 626.279 168.17 625.699 166.85C625.139 165.53 624.859 164.08 624.859 162.5C624.859 160.92 625.139 159.47 625.699 158.15C626.279 156.83 627.079 155.68 628.099 154.7C629.139 153.72 630.349 152.97 631.729 152.45C633.109 151.91 634.619 151.64 636.259 151.64C638.079 151.64 639.719 151.96 641.179 152.6C642.659 153.22 643.899 154.14 644.899 155.36L641.779 158.24C641.059 157.42 640.259 156.81 639.379 156.41C638.499 155.99 637.539 155.78 636.499 155.78C635.519 155.78 634.619 155.94 633.799 156.26C632.979 156.58 632.269 157.04 631.669 157.64C631.069 158.24 630.599 158.95 630.259 159.77C629.939 160.59 629.779 161.5 629.779 162.5C629.779 163.5 629.939 164.41 630.259 165.23C630.599 166.05 631.069 166.76 631.669 167.36C632.269 167.96 632.979 168.42 633.799 168.74C634.619 169.06 635.519 169.22 636.499 169.22C637.539 169.22 638.499 169.02 639.379 168.62C640.259 168.2 641.059 167.57 641.779 166.73L644.899 169.61C643.899 170.83 642.659 171.76 641.179 172.4C639.719 173.04 638.069 173.36 636.229 173.36ZM648.181 173V152H653.041V173H648.181ZM655.265 173L664.625 152H669.425L678.815 173H673.715L666.035 154.46H667.955L660.245 173H655.265ZM659.945 168.5L661.235 164.81H672.035L673.355 168.5H659.945Z" fill="#F5F5F5"/>
<path d="M809.403 390.46H819.513V394.24H809.403V390.46ZM809.763 399.1H821.193V403H804.933V382H820.803V385.9H809.763V399.1ZM831.96 403.36C830.28 403.36 828.67 403.14 827.13 402.7C825.59 402.24 824.35 401.65 823.41 400.93L825.06 397.27C825.96 397.91 827.02 398.44 828.24 398.86C829.48 399.26 830.73 399.46 831.99 399.46C832.95 399.46 833.72 399.37 834.3 399.19C834.9 398.99 835.34 398.72 835.62 398.38C835.9 398.04 836.04 397.65 836.04 397.21C836.04 396.65 835.82 396.21 835.38 395.89C834.94 395.55 834.36 395.28 833.64 395.08C832.92 394.86 832.12 394.66 831.24 394.48C830.38 394.28 829.51 394.04 828.63 393.76C827.77 393.48 826.98 393.12 826.26 392.68C825.54 392.24 824.95 391.66 824.49 390.94C824.05 390.22 823.83 389.3 823.83 388.18C823.83 386.98 824.15 385.89 824.79 384.91C825.45 383.91 826.43 383.12 827.73 382.54C829.05 381.94 830.7 381.64 832.68 381.64C834 381.64 835.3 381.8 836.58 382.12C837.86 382.42 838.99 382.88 839.97 383.5L838.47 387.19C837.49 386.63 836.51 386.22 835.53 385.96C834.55 385.68 833.59 385.54 832.65 385.54C831.71 385.54 830.94 385.65 830.34 385.87C829.74 386.09 829.31 386.38 829.05 386.74C828.79 387.08 828.66 387.48 828.66 387.94C828.66 388.48 828.88 388.92 829.32 389.26C829.76 389.58 830.34 389.84 831.06 390.04C831.78 390.24 832.57 390.44 833.43 390.64C834.31 390.84 835.18 391.07 836.04 391.33C836.92 391.59 837.72 391.94 838.44 392.38C839.16 392.82 839.74 393.4 840.18 394.12C840.64 394.84 840.87 395.75 840.87 396.85C840.87 398.03 840.54 399.11 839.88 400.09C839.22 401.07 838.23 401.86 836.91 402.46C835.61 403.06 833.96 403.36 831.96 403.36ZM848.248 403V385.96H841.528V382H859.828V385.96H853.108V403H848.248ZM862.443 403V382H871.533C873.413 382 875.033 382.31 876.393 382.93C877.753 383.53 878.803 384.4 879.543 385.54C880.283 386.68 880.653 388.04 880.653 389.62C880.653 391.18 880.283 392.53 879.543 393.67C878.803 394.79 877.753 395.65 876.393 396.25C875.033 396.85 873.413 397.15 871.533 397.15H865.143L867.303 395.02V403H862.443ZM875.793 403L870.543 395.38H875.733L881.043 403H875.793ZM867.303 395.56L865.143 393.28H871.263C872.763 393.28 873.883 392.96 874.623 392.32C875.363 391.66 875.733 390.76 875.733 389.62C875.733 388.46 875.363 387.56 874.623 386.92C873.883 386.28 872.763 385.96 871.263 385.96H865.143L867.303 383.65V395.56ZM881.744 403L891.104 382H895.904L905.294 403H900.194L892.514 384.46H894.434L886.724 403H881.744ZM886.424 398.5L887.714 394.81H898.514L899.834 398.5H886.424ZM910.768 403V385.96H904.048V382H922.348V385.96H915.628V403H910.768ZM929.433 390.46H939.543V394.24H929.433V390.46ZM929.793 399.1H941.223V403H924.963V382H940.833V385.9H929.793V399.1ZM930.183 380.29L934.233 375.97H939.273L933.843 380.29H930.183ZM955.23 403.36C953.57 403.36 952.04 403.1 950.64 402.58C949.26 402.04 948.05 401.28 947.01 400.3C945.99 399.32 945.19 398.17 944.61 396.85C944.05 395.53 943.77 394.08 943.77 392.5C943.77 390.92 944.05 389.47 944.61 388.15C945.19 386.83 946 385.68 947.04 384.7C948.08 383.72 949.3 382.97 950.7 382.45C952.1 381.91 953.64 381.64 955.32 381.64C957.18 381.64 958.85 381.95 960.33 382.57C961.83 383.19 963.09 384.09 964.11 385.27L960.99 388.15C960.23 387.35 959.4 386.76 958.5 386.38C957.6 385.98 956.62 385.78 955.56 385.78C954.54 385.78 953.61 385.94 952.77 386.26C951.93 386.58 951.2 387.04 950.58 387.64C949.98 388.24 949.51 388.95 949.17 389.77C948.85 390.59 948.69 391.5 948.69 392.5C948.69 393.48 948.85 394.38 949.17 395.2C949.51 396.02 949.98 396.74 950.58 397.36C951.2 397.96 951.92 398.42 952.74 398.74C953.58 399.06 954.5 399.22 955.5 399.22C956.46 399.22 957.39 399.07 958.29 398.77C959.21 398.45 960.1 397.92 960.96 397.18L963.72 400.69C962.58 401.55 961.25 402.21 959.73 402.67C958.23 403.13 956.73 403.36 955.23 403.36ZM959.28 400.06V392.17H963.72V400.69L959.28 400.06ZM968.234 403V382H973.094V403H968.234ZM975.318 403L984.678 382H989.478L998.868 403H993.768L986.088 384.46H988.008L980.298 403H975.318ZM979.998 398.5L981.288 394.81H992.088L993.408 398.5H979.998Z" fill="#F5F5F5"/>
<path d="M1111.66 162V141H1120.75C1122.63 141 1124.25 141.31 1125.61 141.93C1126.97 142.53 1128.02 143.4 1128.76 144.54C1129.5 145.68 1129.87 147.04 1129.87 148.62C1129.87 150.18 1129.5 151.53 1128.76 152.67C1128.02 153.79 1126.97 154.65 1125.61 155.25C1124.25 155.85 1122.63 156.15 1120.75 156.15H1114.36L1116.52 154.02V162H1111.66ZM1125.01 162L1119.76 154.38H1124.95L1130.26 162H1125.01ZM1116.52 154.56L1114.36 152.28H1120.48C1121.98 152.28 1123.1 151.96 1123.84 151.32C1124.58 150.66 1124.95 149.76 1124.95 148.62C1124.95 147.46 1124.58 146.56 1123.84 145.92C1123.1 145.28 1121.98 144.96 1120.48 144.96H1114.36L1116.52 142.65V154.56ZM1138.19 149.46H1148.3V153.24H1138.19V149.46ZM1138.55 158.1H1149.98V162H1133.72V141H1149.59V144.9H1138.55V158.1ZM1160.75 162.36C1159.07 162.36 1157.46 162.14 1155.92 161.7C1154.38 161.24 1153.14 160.65 1152.2 159.93L1153.85 156.27C1154.75 156.91 1155.81 157.44 1157.03 157.86C1158.27 158.26 1159.52 158.46 1160.78 158.46C1161.74 158.46 1162.51 158.37 1163.09 158.19C1163.69 157.99 1164.13 157.72 1164.41 157.38C1164.69 157.04 1164.83 156.65 1164.83 156.21C1164.83 155.65 1164.61 155.21 1164.17 154.89C1163.73 154.55 1163.15 154.28 1162.43 154.08C1161.71 153.86 1160.91 153.66 1160.03 153.48C1159.17 153.28 1158.3 153.04 1157.42 152.76C1156.56 152.48 1155.77 152.12 1155.05 151.68C1154.33 151.24 1153.74 150.66 1153.28 149.94C1152.84 149.22 1152.62 148.3 1152.62 147.18C1152.62 145.98 1152.94 144.89 1153.58 143.91C1154.24 142.91 1155.22 142.12 1156.52 141.54C1157.84 140.94 1159.49 140.64 1161.47 140.64C1162.79 140.64 1164.09 140.8 1165.37 141.12C1166.65 141.42 1167.78 141.88 1168.76 142.5L1167.26 146.19C1166.28 145.63 1165.3 145.22 1164.32 144.96C1163.34 144.68 1162.38 144.54 1161.44 144.54C1160.5 144.54 1159.73 144.65 1159.13 144.87C1158.53 145.09 1158.1 145.38 1157.84 145.74C1157.58 146.08 1157.45 146.48 1157.45 146.94C1157.45 147.48 1157.67 147.92 1158.11 148.26C1158.55 148.58 1159.13 148.84 1159.85 149.04C1160.57 149.24 1161.36 149.44 1162.22 149.64C1163.1 149.84 1163.97 150.07 1164.83 150.33C1165.71 150.59 1166.51 150.94 1167.23 151.38C1167.95 151.82 1168.53 152.4 1168.97 153.12C1169.43 153.84 1169.66 154.75 1169.66 155.85C1169.66 157.03 1169.33 158.11 1168.67 159.09C1168.01 160.07 1167.02 160.86 1165.7 161.46C1164.4 162.06 1162.75 162.36 1160.75 162.36ZM1182.31 162.36C1179.33 162.36 1177 161.53 1175.32 159.87C1173.64 158.21 1172.8 155.84 1172.8 152.76V141H1177.66V152.58C1177.66 154.58 1178.07 156.02 1178.89 156.9C1179.71 157.78 1180.86 158.22 1182.34 158.22C1183.82 158.22 1184.97 157.78 1185.79 156.9C1186.61 156.02 1187.02 154.58 1187.02 152.58V141H1191.82V152.76C1191.82 155.84 1190.98 158.21 1189.3 159.87C1187.62 161.53 1185.29 162.36 1182.31 162.36ZM1196.62 162V141H1201.48V158.04H1212.01V162H1196.62ZM1217.11 162V144.96H1210.39V141H1228.69V144.96H1221.97V162H1217.11ZM1227.49 162L1236.85 141H1241.65L1251.04 162H1245.94L1238.26 143.46H1240.18L1232.47 162H1227.49ZM1232.17 157.5L1233.46 153.81H1244.26L1245.58 157.5H1232.17ZM1253.22 162V141H1262.76C1265.04 141 1267.05 141.44 1268.79 142.32C1270.53 143.18 1271.89 144.39 1272.87 145.95C1273.85 147.51 1274.34 149.36 1274.34 151.5C1274.34 153.62 1273.85 155.47 1272.87 157.05C1271.89 158.61 1270.53 159.83 1268.79 160.71C1267.05 161.57 1265.04 162 1262.76 162H1253.22ZM1258.08 158.01H1262.52C1263.92 158.01 1265.13 157.75 1266.15 157.23C1267.19 156.69 1267.99 155.93 1268.55 154.95C1269.13 153.97 1269.42 152.82 1269.42 151.5C1269.42 150.16 1269.13 149.01 1268.55 148.05C1267.99 147.07 1267.19 146.32 1266.15 145.8C1265.13 145.26 1263.92 144.99 1262.52 144.99H1258.08V158.01ZM1288.21 162.36C1286.55 162.36 1285.01 162.09 1283.59 161.55C1282.19 161.01 1280.97 160.25 1279.93 159.27C1278.91 158.29 1278.11 157.14 1277.53 155.82C1276.97 154.5 1276.69 153.06 1276.69 151.5C1276.69 149.94 1276.97 148.5 1277.53 147.18C1278.11 145.86 1278.92 144.71 1279.96 143.73C1281 142.75 1282.22 141.99 1283.62 141.45C1285.02 140.91 1286.54 140.64 1288.18 140.64C1289.84 140.64 1291.36 140.91 1292.74 141.45C1294.14 141.99 1295.35 142.75 1296.37 143.73C1297.41 144.71 1298.22 145.86 1298.8 147.18C1299.38 148.48 1299.67 149.92 1299.67 151.5C1299.67 153.06 1299.38 154.51 1298.8 155.85C1298.22 157.17 1297.41 158.32 1296.37 159.3C1295.35 160.26 1294.14 161.01 1292.74 161.55C1291.36 162.09 1289.85 162.36 1288.21 162.36ZM1288.18 158.22C1289.12 158.22 1289.98 158.06 1290.76 157.74C1291.56 157.42 1292.26 156.96 1292.86 156.36C1293.46 155.76 1293.92 155.05 1294.24 154.23C1294.58 153.41 1294.75 152.5 1294.75 151.5C1294.75 150.5 1294.58 149.59 1294.24 148.77C1293.92 147.95 1293.46 147.24 1292.86 146.64C1292.28 146.04 1291.59 145.58 1290.79 145.26C1289.99 144.94 1289.12 144.78 1288.18 144.78C1287.24 144.78 1286.37 144.94 1285.57 145.26C1284.79 145.58 1284.1 146.04 1283.5 146.64C1282.9 147.24 1282.43 147.95 1282.09 148.77C1281.77 149.59 1281.61 150.5 1281.61 151.5C1281.61 152.48 1281.77 153.39 1282.09 154.23C1282.43 155.05 1282.89 155.76 1283.47 156.36C1284.07 156.96 1284.77 157.42 1285.57 157.74C1286.37 158.06 1287.24 158.22 1288.18 158.22Z" fill="#F5F5F5"/>
<path d="M142 63C268 105 82.0001 243 210 311" stroke="white" stroke-width="4" stroke-dasharray="8 8"/>
<path d="M652 65C816 65 650 257 802 281" stroke="white" stroke-width="4" stroke-dasharray="8 8"/>
<path d="M352 301C493 245 306 105 476 71" stroke="white" stroke-width="4" stroke-dasharray="8 8"/>
<path d="M982 281C1120 281 958 83 1108 83" stroke="white" stroke-width="4" stroke-dasharray="8 8"/>
<defs>
<clipPath id="clip0_96_11">
<rect width="124" height="124" fill="white" transform="translate(505)"/>
</clipPath>
</defs>
</svg>
