<svg width="500" height="153" viewBox="0 0 500 153" fill="none" xmlns="http://www.w3.org/2000/svg">
<g clip-path="url(#clip0_3_13)">
<path d="M93.72 10.5326L83.0482 32.0083L81.0644 30.8456C81.2012 30.0933 81.338 29.3409 81.338 28.5886C81.338 26.9472 80.4487 25.4425 78.6017 24.143C75.7285 22.0912 72.5133 20.4497 69.1613 19.3554C63.2781 17.372 57.1213 16.4145 50.8961 16.4829C40.5664 16.4829 32.6994 18.4663 27.2951 22.3648C22.9853 25.4425 20.8646 29.0674 20.8646 33.3078C20.8646 36.7959 22.5065 39.3948 25.7217 41.1731C27.4319 42.0622 30.5787 42.8829 35.2305 43.4985C35.8462 43.5669 39.4034 43.9088 46.0391 44.6612L58.4895 46.029C69.9138 47.1917 78.6017 49.3119 84.4848 52.3213C88.1789 54.1679 91.3257 56.9037 93.5832 60.3233C96.5248 64.7689 98.0982 70.1037 97.9614 75.4384C98.0298 81.799 95.8407 88.0229 91.873 93.084C84.9637 102.18 71.8292 106.694 52.6747 106.694C43.0975 106.694 34.478 105.326 26.7478 102.659C21.5487 100.881 16.5549 98.6239 11.7663 95.8881C8.55106 94.0415 6.49879 93.084 5.67789 93.084C4.85698 93.084 3.62562 93.7679 1.84699 95.0674L-4.57764e-05 93.7679L13.1344 72.7026L15.0499 74.0021C14.9815 74.3441 14.9131 74.686 14.8447 75.028C14.7078 75.712 14.571 76.4643 14.571 77.1482C14.571 78.8581 16.1444 80.9099 19.2228 83.2353C28.1844 89.8695 38.8562 93.1524 51.1697 93.1524C61.2258 93.1524 69.2297 91.4425 75.1812 88.0912C77.7124 86.7234 79.833 84.7399 81.4064 82.2778C82.6378 80.3627 83.2535 78.1741 83.2535 75.9171C83.2535 71.4031 80.9276 67.9835 76.3442 65.5897C74.1551 64.427 71.0083 63.4695 66.9722 62.7855C64.8515 62.4436 60.6786 61.9648 54.4534 61.3493L42.003 60.0498C34.0675 59.229 28.1844 58.2031 24.2167 57.0404C12.382 53.484 6.49879 45.9606 6.49879 34.6073C6.49879 25.7161 9.85082 18.3979 16.6233 12.7212C24.2167 6.22383 35.1621 3.00932 49.5963 3.00932C60.1997 3.00932 70.6663 5.12953 80.4487 9.23316C84.2112 10.8062 86.8107 11.6269 88.3157 11.6269C89.4103 11.6269 90.5732 10.943 91.8046 9.57513L93.72 10.5326Z" fill="white"/>
<path d="M146.737 59.6394V91.9213H207.279C208.92 91.8529 210.015 91.4425 210.699 90.827C211.383 90.2114 211.999 88.9803 212.478 87.2021H214.735V109.567H212.478C212.273 108.267 211.657 106.968 210.768 105.942C210.083 105.326 208.989 104.916 207.347 104.848H126.967V102.591C128.266 102.317 129.429 101.702 130.387 100.744C130.934 100.129 131.276 98.9658 131.413 97.256V12.4477C131.276 10.6694 130.934 9.43833 130.387 8.89118C129.429 8.00206 128.266 7.31812 126.967 7.04455V4.78755H204.474C206.184 4.65076 207.279 4.2404 207.826 3.69325C208.51 3.00931 209.126 1.77822 209.605 -1.52588e-05H211.862V22.4332H209.605C209.331 21.1337 208.715 19.9026 207.826 18.8767C207.21 18.2611 206.116 17.8508 204.474 17.7824H146.805V46.713H184.704C186.414 46.5762 187.509 46.1658 188.124 45.6187C188.808 45.0031 189.424 43.772 189.903 41.9938H192.16V64.3586H189.903C189.424 62.5803 188.877 61.4176 188.124 60.7337C187.577 60.1182 186.414 59.7078 184.704 59.6394H146.737Z" fill="white"/>
<path d="M290.395 17.7824V97.256C290.464 98.9658 290.806 100.129 291.421 100.744C292.379 101.702 293.611 102.317 294.979 102.591V104.916H270.557V102.591C271.857 102.317 273.02 101.702 273.977 100.744C274.525 100.197 274.867 99.0342 275.003 97.256V17.7824H243.535C241.825 17.9192 240.731 18.3295 240.115 18.8767C239.226 19.9026 238.61 21.1337 238.336 22.4332H236.079V-1.52588e-05H238.336C238.747 1.77822 239.294 3.00931 240.046 3.69325C240.799 4.37719 241.825 4.71916 243.535 4.78755H321.863C323.574 4.65076 324.668 4.2404 325.284 3.69325C326.173 2.59895 326.789 1.36786 327.062 -1.52588e-05H329.32V22.4332H327.062C326.857 21.0653 326.242 19.8342 325.284 18.8767C324.737 18.2611 323.574 17.8508 321.863 17.7824H290.395Z" fill="white"/>
<path d="M414.694 78.8581H364.208L357.094 95.8197C356.273 97.7348 355.863 99.0342 355.863 99.7182C355.863 101.154 357.231 102.112 360.036 102.591V104.916H334.998V102.591C336.913 102.317 338.624 101.36 339.787 99.7866C340.607 98.829 341.77 96.6404 343.344 93.0156L377.617 13.8155C378.506 11.8321 378.985 10.5326 378.985 9.91709C378.985 8.61761 377.822 7.66009 375.428 7.04455V4.78755H403.475V7.11294C401.149 7.86527 400.055 8.82279 400.055 10.1223C400.055 10.7378 400.465 11.9689 401.354 13.8839L435.969 90.2114C437.953 94.7254 439.185 97.3244 439.595 98.1451C440.416 99.7866 441.784 101.086 443.494 101.838C444.384 102.18 445.273 102.454 446.162 102.659V104.984H419.346V102.591C422.082 102.249 423.451 101.154 423.451 99.3762C423.451 98.4871 422.972 96.914 421.946 94.8622L414.694 78.8581ZM408.948 65.8632L388.904 21.0653L369.886 65.9316L408.948 65.8632Z" fill="white"/>
<path d="M469.832 4.78755H494.185V7.11294C492.885 7.31812 491.654 7.93367 490.696 8.89118C490.081 9.50673 489.739 10.6694 489.67 12.4477V97.256C489.739 99.0342 490.149 100.197 490.696 100.744C491.654 101.633 492.885 102.317 494.185 102.591V104.916H469.832V102.591C471.131 102.317 472.294 101.702 473.252 100.744C473.868 100.129 474.21 98.9658 474.278 97.256V12.4477C474.21 10.7378 473.799 9.57512 473.252 8.89118C472.294 8.00206 471.131 7.38652 469.832 7.11294V4.78755Z" fill="white"/>
<path d="M25.9953 140.754H29.0737V149.988C26.6794 151.971 23.601 153.065 20.5226 152.997C13.5449 152.997 8.41425 147.936 8.41425 140.96C8.41425 133.983 13.5449 128.922 20.591 128.922C24.1483 128.922 27.2267 130.153 29.2789 132.547L27.2951 134.667C25.5849 132.889 23.1905 131.863 20.7278 131.932C15.4604 131.932 11.6979 135.762 11.6979 141.028C11.5611 145.884 15.3235 149.919 20.1806 150.124C20.3858 150.124 20.5226 150.124 20.7278 150.124C22.6433 150.193 24.4903 149.646 26.0637 148.62V140.754H25.9953Z" fill="white"/>
<path d="M95.1566 152.655L90.2996 145.405C89.8207 145.474 89.3419 145.474 88.863 145.474H83.2535V152.655H80.0383V129.059H88.863C94.7462 129.059 98.3034 132.137 98.3034 137.266C98.3034 140.891 96.5248 143.559 93.3096 144.721L98.7139 152.655H95.1566ZM95.0882 137.266C95.0882 133.915 92.8991 132 88.7946 132H83.3219V142.601H88.7946C92.8991 142.601 95.0882 140.686 95.0882 137.266Z" fill="white"/>
<path d="M148.037 142.464V129.059H151.252V142.328C151.252 147.525 153.578 149.919 157.614 149.919C161.65 149.919 164.044 147.594 164.044 142.328V129.059H167.191V142.464C167.191 149.304 163.634 152.929 157.614 152.929C151.594 152.929 148.037 149.304 148.037 142.464Z" fill="white"/>
<path d="M236.9 137.266C236.9 142.396 233.342 145.474 227.459 145.474H221.85V152.587H218.635V128.991H227.459C233.274 129.059 236.9 132.137 236.9 137.266ZM233.616 137.266C233.616 133.915 231.427 132 227.322 132H221.85V142.601H227.322C231.495 142.601 233.616 140.686 233.616 137.266Z" fill="white"/>
<path d="M284.786 140.891C284.581 134.394 289.711 128.991 296.21 128.786C296.415 128.786 296.621 128.786 296.894 128.786C303.803 128.786 308.934 133.915 308.934 140.823C308.934 147.731 303.803 152.86 296.894 152.86C290.395 153.065 284.991 147.936 284.786 141.438C284.786 141.302 284.786 141.096 284.786 140.891ZM305.651 140.891C305.651 135.693 301.888 131.795 296.894 131.795C291.9 131.795 288.069 135.625 288.069 140.891C288.069 146.158 291.832 149.988 296.894 149.988C301.956 149.988 305.651 146.089 305.651 140.891Z" fill="white"/>
<path d="M427.692 140.754H430.77V149.988C428.376 151.971 425.298 153.065 422.219 152.997C415.241 152.997 410.111 147.936 410.111 140.96C410.111 133.983 415.241 128.922 422.288 128.922C425.913 128.922 428.923 130.153 430.975 132.547L428.992 134.667C425.503 131.043 419.756 130.974 416.131 134.462C412.505 137.95 412.437 143.695 415.926 147.32C417.636 149.03 419.962 150.056 422.356 150.056C424.271 150.124 426.118 149.577 427.692 148.551V140.754Z" fill="white"/>
<path d="M500 137.266C500 142.396 496.443 145.474 490.56 145.474H484.95V152.587H481.735V128.991H490.56C496.443 129.059 500 132.137 500 137.266ZM496.785 137.266C496.785 133.915 494.596 132 490.491 132H485.018V142.601H490.491C494.596 142.601 496.785 140.686 496.785 137.266Z" fill="white"/>
</g>
<defs>
<clipPath id="clip0_3_13">
<rect width="500" height="153" fill="white"/>
</clipPath>
</defs>
</svg>
