<svg width="232" height="431" viewBox="0 0 232 431" fill="none" xmlns="http://www.w3.org/2000/svg">
<path d="M99.2116 16.4574L117.733 0L136.568 39.1251L161.368 57.4456L174.239 78.5608L220.699 99.3654L232 121.46L115.645 130.417L56.4037 134L0 127.909L20.1036 106.818L52.4374 96.5708L57.4601 81.0449L78.8067 41.9198H90.4218L99.2116 16.4574Z" fill="#FFAA03"/>
<path d="M40.0744 241.574L22.5126 228.001L0 127.406L56.4037 133.101L232 121L213.183 172.199L205.656 212.316L189.349 227.398L183.077 250.623L171.16 259.974L168.651 304.012L153.912 322.714L141.682 369.467L127.57 386.66L109.694 431L101.227 416.823L87.742 369.467L57.9497 336.287V289.836L40.0744 241.574Z" fill="#AD60FF"/>
</svg>
