<svg width="65" height="65" viewBox="0 0 65 65" fill="none" xmlns="http://www.w3.org/2000/svg">
<g clip-path="url(#clip0_68_473)">
<path d="M17.4941 64.9873H8.82324C7.55371 64.9873 6.52539 63.9463 6.52539 62.6895V44.9414C6.52539 43.6719 7.56641 42.6436 8.82324 42.6436H17.4941C18.7637 42.6436 19.792 43.6846 19.792 44.9414V62.6895C19.8047 63.959 18.7637 64.9873 17.4941 64.9873Z" fill="#FFAA03"/>
<path d="M36.4229 64.9873H28.5771C27.0918 64.9873 25.8604 63.7686 25.8604 62.2705V36.6641C25.8604 35.1787 27.0791 33.9473 28.5771 33.9473H36.4229C37.9082 33.9473 39.1396 35.166 39.1396 36.6641V62.2705C39.1396 63.7686 37.9209 64.9873 36.4229 64.9873Z" fill="#FFAA03"/>
<path d="M55.415 64.9873H48.2676C46.5791 64.9873 45.208 63.6035 45.208 61.9277V28.4756C45.208 26.7871 46.5918 25.416 48.2676 25.416H55.415C57.1035 25.416 58.4746 26.7998 58.4746 28.4756V61.9277C58.4746 63.6162 57.1035 64.9873 55.415 64.9873Z" fill="#FFAA03"/>
<path d="M56.5067 3.85536e-05C53.7138 0.114296 51.5429 2.47562 51.6571 5.28129L38.7587 17.9639L27.7645 8.34086L7.64248 28.5264C5.05263 28.8565 3.11025 31.0909 3.21181 33.7442C3.32607 36.5371 5.7001 38.708 8.49306 38.5938C11.286 38.4795 13.4569 36.1055 13.3427 33.3125C13.33 33.084 13.2792 32.8682 13.2411 32.6397L28.3866 18.1036L39.0126 27.4092L56.621 10.1182C56.7226 10.1182 56.8241 10.1436 56.9257 10.1309C59.7186 10.0166 61.8895 7.64262 61.7753 4.84965C61.661 2.05668 59.2997 -0.114219 56.5067 3.85536e-05Z" fill="#FFAA03"/>
</g>
<defs>
<clipPath id="clip0_68_473">
<rect width="65" height="65" fill="white"/>
</clipPath>
</defs>
</svg>
