<svg width="208" height="209" viewBox="0 0 208 209" fill="none" xmlns="http://www.w3.org/2000/svg">
<path d="M80.5163 3.85486C71.0925 3.85486 62.9872 9.42054 59.2466 17.4319C58.5119 17.3614 57.7839 17.2742 57.0324 17.2742C44.0626 17.2742 33.5485 27.7883 33.5485 40.7581V42.1738C28.2915 44.4752 24.5072 49.3968 23.7121 55.2812L23.484 55.1503C13.7818 58.0389 6.70982 67.0231 6.70982 77.6613C6.70982 82.1803 8.00814 86.3872 10.2223 89.9702C5.96504 94.7207 3.35498 100.974 3.35498 107.855C3.35498 115.719 6.75008 122.781 12.1413 127.689C10.8061 130.879 10.0647 134.375 10.0647 138.048C10.0647 151.736 20.3103 163.029 33.5485 164.679V164.672V164.887H34.8167C37.212 171.667 43.0595 176.807 50.3194 178.028L50.3697 177.411C50.3596 177.713 50.3227 178.005 50.3227 178.306C50.3227 193.128 62.3398 205.145 77.1614 205.145C91.9831 205.145 104 193.128 104 178.306V27.3387C104 14.3689 93.4861 3.85486 80.5163 3.85486ZM33.5485 124.478V124.629C33.515 124.72 33.5217 124.646 33.5485 124.478Z" fill="#FFAA03"/>
<path d="M127.483 91.0807H114.064V84.3711H127.483C129.332 84.3711 130.838 82.8647 130.838 81.0162V57.5323H137.548V81.0162C137.548 86.5651 133.032 91.0807 127.483 91.0807Z" fill="#FFAA03"/>
<path d="M134.194 50.8226C128.645 50.8226 124.129 46.307 124.129 40.7581C124.129 35.2092 128.645 30.6936 134.194 30.6936C139.743 30.6936 144.258 35.2092 144.258 40.7581C144.258 46.307 139.743 50.8226 134.194 50.8226ZM134.194 37.4033C132.345 37.4033 130.839 38.9096 130.839 40.7581C130.839 42.6066 132.345 44.113 134.194 44.113C136.042 44.113 137.549 42.6066 137.549 40.7581C137.549 38.9096 136.042 37.4033 134.194 37.4033Z" fill="#FFAA03"/>
<path d="M137.548 151.468H130.838V127.984C130.838 126.136 129.332 124.629 127.483 124.629H114.064V117.92H127.483C133.032 117.92 137.548 122.435 137.548 127.984V151.468Z" fill="#FFAA03"/>
<path d="M134.194 178.306C128.645 178.306 124.129 173.791 124.129 168.242C124.129 162.693 128.645 158.177 134.194 158.177C139.743 158.177 144.258 162.693 144.258 168.242C144.258 173.791 139.743 178.306 134.194 178.306ZM134.194 164.887C132.345 164.887 130.839 166.393 130.839 168.242C130.839 170.09 132.345 171.597 134.194 171.597C136.042 171.597 137.549 170.09 137.549 168.242C137.549 166.393 136.042 164.887 134.194 164.887Z" fill="#FFAA03"/>
<path d="M147.612 107.855H114.064V101.145H147.612C153.161 101.145 157.677 96.6294 157.677 91.0805V81.016H164.387V91.0805C164.387 100.33 156.862 107.855 147.612 107.855Z" fill="#FFAA03"/>
<path d="M161.033 74.3063C155.484 74.3063 150.968 69.7907 150.968 64.2418C150.968 58.6929 155.484 54.1772 161.033 54.1772C166.582 54.1772 171.097 58.6929 171.097 64.2418C171.097 69.7907 166.582 74.3063 161.033 74.3063ZM161.033 60.8869C159.184 60.8869 157.678 62.3932 157.678 64.2418C157.678 66.0903 159.184 67.5966 161.033 67.5966C162.881 67.5966 164.388 66.0903 164.388 64.2418C164.388 62.3932 162.881 60.8869 161.033 60.8869Z" fill="#FFAA03"/>
<path d="M164.388 117.92H157.678V151.468H164.388V117.92Z" fill="#FFAA03"/>
<path d="M181.161 70.9517H174.452V124.629H181.161V70.9517Z" fill="#FFAA03"/>
<path d="M181.161 131.339H174.452V138.048H181.161V131.339Z" fill="#FFAA03"/>
<path d="M120.043 1.73123C115.178 0.983097 110.247 2.38206 106.509 5.58258C104.601 7.21639 103.118 9.236 102.118 11.4737C97.2232 4.83445 89.3763 0.5 80.5161 0.5C70.5992 0.5 61.9437 5.91806 57.2973 13.9395C57.2101 13.9361 57.1195 13.9194 57.0323 13.9194C42.4521 13.9194 30.576 25.611 30.2271 40.1072C25.5739 42.7978 22.105 47.2866 20.7597 52.6241C10.447 56.5292 3.35484 66.5165 3.35484 77.6613C3.35484 81.8045 4.32774 85.8874 6.17961 89.6012C2.17729 94.8481 0 101.242 0 107.855C0 115.591 2.98916 122.989 8.25626 128.571C7.26658 131.553 6.70968 134.737 6.70968 138.048C6.70968 152.957 17.6465 165.605 32.2769 167.859C35.0446 174.009 40.3855 178.766 47.0885 180.705C48.3197 196.235 61.3231 208.5 77.1613 208.5C87.1721 208.5 96.0356 203.582 101.531 196.057C102.487 198.882 104.188 201.431 106.506 203.417C109.582 206.051 113.464 207.47 117.453 207.47C118.312 207.47 119.177 207.403 120.039 207.269C171.01 199.378 208 156.154 208 104.5C208 52.8455 171.01 9.62181 120.043 1.73123ZM77.1613 201.79C64.2116 201.79 53.6774 191.256 53.6774 178.306C53.6774 165.357 64.2116 154.823 77.1613 154.823V148.113C62.0914 148.113 49.5979 159.227 47.3603 173.68C41.1471 171.167 36.9032 165.149 36.9032 158.177C36.9032 148.928 44.4281 141.403 53.6774 141.403V134.694C40.7277 134.694 30.1935 145.228 30.1935 158.177C30.1935 158.989 30.2439 159.788 30.3244 160.579C20.4746 157.711 13.4194 148.609 13.4194 138.048C13.4194 125.099 23.9535 114.565 36.9032 114.565V107.855C26.1812 107.855 16.7708 113.491 11.4132 121.935C8.39045 117.903 6.70968 112.971 6.70968 107.855C6.70968 102.091 8.84335 96.5356 12.7215 92.2079L14.3956 90.3392L13.0772 88.2055C11.1079 85.0184 10.0645 81.3717 10.0645 77.6613C10.0645 70.3511 14.1406 63.7119 20.3236 60.1893C21.632 70.0357 30.0627 77.6613 40.2581 77.6613V70.9516C32.8573 70.9516 26.8387 64.933 26.8387 57.5323C26.8387 50.1315 32.8573 44.1129 40.2581 44.1129C47.6588 44.1129 53.6774 50.1315 53.6774 57.5323H60.3871C60.3871 46.4311 51.3592 37.4032 40.2581 37.4032C39.2046 37.4032 38.1781 37.5106 37.1649 37.6649C38.5337 28.8517 45.6225 21.9206 54.5161 20.8035C53.9894 22.9003 53.6774 25.0809 53.6774 27.3387C53.6774 42.1369 65.7179 54.1774 80.5161 54.1774V47.4677C69.415 47.4677 60.3871 38.4399 60.3871 27.3387C60.3871 16.2375 69.415 7.20968 80.5161 7.20968C91.6173 7.20968 100.645 16.2375 100.645 27.3387V178.306C100.645 191.256 90.111 201.79 77.1613 201.79ZM119.013 200.64C116.091 201.103 113.122 200.247 110.874 198.325C108.636 196.406 107.355 193.618 107.355 190.679V18.3209C107.355 15.3787 108.636 12.5908 110.874 10.6752C112.723 9.09174 115.061 8.23961 117.46 8.23961C117.976 8.23961 118.496 8.27987 119.016 8.36039C165.92 15.6236 201.29 56.9552 201.29 104.5C201.29 152.045 165.92 193.376 119.013 200.64Z" fill="white"/>
<path d="M87.2253 23.9838H80.5156V30.6934H87.2253V23.9838Z" fill="white"/>
<path d="M70.4519 101.145H63.7422V107.855H70.4519V101.145Z" fill="white"/>
<path d="M90.5803 174.952H83.8706V181.661H90.5803V174.952Z" fill="white"/>
<path d="M33.5481 124.629H26.8384V131.339H33.5481V124.629Z" fill="white"/>
<path d="M93.9362 77.6613H87.2266V84.3709H93.9362V77.6613Z" fill="white"/>
<path d="M30.1941 84.3708H23.4844V91.0805H30.1941V84.3708Z" fill="white"/>
</svg>
