<svg width="481" height="132" viewBox="0 0 481 132" fill="none" xmlns="http://www.w3.org/2000/svg">
<path d="M6.76262 58V9H26.9226C31.2626 9 34.9726 9.7 38.0526 11.1C41.1793 12.5 43.5826 14.5067 45.2626 17.12C46.9426 19.7333 47.7826 22.8367 47.7826 26.43C47.7826 30.0233 46.9426 33.1267 45.2626 35.74C43.5826 38.3067 41.1793 40.29 38.0526 41.69C34.9726 43.0433 31.2626 43.72 26.9226 43.72H11.8026L15.8626 39.59V58H6.76262ZM38.8226 58L26.4326 40.22H36.1626L48.6226 58H38.8226ZM15.8626 40.57L11.8026 36.23H26.5026C30.516 36.23 33.526 35.3667 35.5326 33.64C37.586 31.9133 38.6126 29.51 38.6126 26.43C38.6126 23.3033 37.586 20.9 35.5326 19.22C33.526 17.54 30.516 16.7 26.5026 16.7H11.8026L15.8626 12.22V40.57ZM66.3638 29.37H90.7238V36.86H66.3638V29.37ZM67.0638 50.37H94.7138V58H57.9638V9H93.7338V16.63H67.0638V50.37ZM97.9283 58L119.978 9H128.938L151.058 58H141.538L122.568 13.83H126.208L107.308 58H97.9283ZM108.078 46.66L110.528 39.52H136.988L139.438 46.66H108.078ZM157.29 58V9H166.39V50.3H192.01V58H157.29ZM226.94 29.37H251.3V36.86H226.94V29.37ZM227.64 50.37H255.29V58H218.54V9H254.31V16.63H227.64V50.37ZM280.624 58.7C276.798 58.7 273.134 58.1633 269.634 57.09C266.134 55.97 263.358 54.5467 261.304 52.82L264.454 45.75C266.414 47.29 268.841 48.5733 271.734 49.6C274.628 50.6267 277.591 51.14 280.624 51.14C283.191 51.14 285.268 50.86 286.854 50.3C288.441 49.74 289.608 48.9933 290.354 48.06C291.101 47.08 291.474 45.9833 291.474 44.77C291.474 43.2767 290.938 42.0867 289.864 41.2C288.791 40.2667 287.391 39.5433 285.664 39.03C283.984 38.47 282.094 37.9567 279.994 37.49C277.941 37.0233 275.864 36.4867 273.764 35.88C271.711 35.2267 269.821 34.41 268.094 33.43C266.414 32.4033 265.038 31.05 263.964 29.37C262.891 27.69 262.354 25.5433 262.354 22.93C262.354 20.27 263.054 17.8433 264.454 15.65C265.901 13.41 268.071 11.6367 270.964 10.33C273.904 8.97666 277.614 8.3 282.094 8.3C285.034 8.3 287.951 8.67333 290.844 9.42C293.738 10.1667 296.258 11.24 298.404 12.64L295.534 19.71C293.341 18.4033 291.078 17.4467 288.744 16.84C286.411 16.1867 284.171 15.86 282.024 15.86C279.504 15.86 277.451 16.1633 275.864 16.77C274.324 17.3767 273.181 18.17 272.434 19.15C271.734 20.13 271.384 21.25 271.384 22.51C271.384 24.0033 271.898 25.2167 272.924 26.15C273.998 27.0367 275.374 27.7367 277.054 28.25C278.781 28.7633 280.694 29.2767 282.794 29.79C284.894 30.2567 286.971 30.7933 289.024 31.4C291.124 32.0067 293.014 32.8 294.694 33.78C296.421 34.76 297.798 36.09 298.824 37.77C299.898 39.45 300.434 41.5733 300.434 44.14C300.434 46.7533 299.711 49.18 298.264 51.42C296.864 53.6133 294.694 55.3867 291.754 56.74C288.814 58.0467 285.104 58.7 280.624 58.7ZM318.714 58V16.7H302.474V9H344.054V16.7H327.814V58H318.714ZM341.493 58L363.543 9H372.503L394.623 58H385.103L366.133 13.83H369.773L350.873 58H341.493ZM351.643 46.66L354.093 39.52H380.553L383.003 46.66H351.643ZM408.333 58V16.7H392.093V9H433.673V16.7H417.433V58H408.333ZM448.903 29.37H473.263V36.86H448.903V29.37ZM449.603 50.37H477.253V58H440.503V9H476.273V16.63H449.603V50.37ZM15.1109 124L37.1609 75H46.1209L68.2409 124H58.7209L39.7509 79.83H43.3909L24.4909 124H15.1109ZM25.2609 112.66L27.7109 105.52H54.1709L56.6209 112.66H25.2609ZM74.4726 124V75H83.5726V124H74.4726ZM116.172 124V75H136.332C140.672 75 144.382 75.7 147.462 77.1C150.588 78.5 152.992 80.5067 154.672 83.12C156.352 85.7333 157.192 88.8367 157.192 92.43C157.192 96.0233 156.352 99.1267 154.672 101.74C152.992 104.353 150.588 106.36 147.462 107.76C144.382 109.16 140.672 109.86 136.332 109.86H121.212L125.272 105.59V124H116.172ZM125.272 106.57L121.212 102.16H135.912C139.925 102.16 142.935 101.32 144.942 99.64C146.995 97.9133 148.022 95.51 148.022 92.43C148.022 89.3033 146.995 86.9 144.942 85.22C142.935 83.54 139.925 82.7 135.912 82.7H121.212L125.272 78.22V106.57ZM166.279 124V75H175.379V116.3H200.999V124H166.279ZM201.322 124L223.372 75H232.332L254.452 124H244.932L225.962 79.83H229.602L210.702 124H201.322ZM211.472 112.66L213.922 105.52H240.382L242.832 112.66H211.472ZM260.684 124V75H268.174L298.904 112.73H295.194V75H304.224V124H296.734L266.004 86.27H269.714V124H260.684ZM317.353 124V75H324.843L355.573 112.73H351.863V75H360.893V124H353.403L322.673 86.27H326.383V124H317.353ZM382.423 95.37H406.783V102.86H382.423V95.37ZM383.123 116.37H410.773V124H374.023V75H409.793V82.63H383.123V116.37ZM420.918 124V75H441.078C445.418 75 449.128 75.7 452.208 77.1C455.335 78.5 457.738 80.5067 459.418 83.12C461.098 85.7333 461.938 88.8367 461.938 92.43C461.938 96.0233 461.098 99.1267 459.418 101.74C457.738 104.307 455.335 106.29 452.208 107.69C449.128 109.043 445.418 109.72 441.078 109.72H425.958L430.018 105.59V124H420.918ZM452.978 124L440.588 106.22H450.318L462.778 124H452.978ZM430.018 106.57L425.958 102.23H440.658C444.671 102.23 447.681 101.367 449.688 99.64C451.741 97.9133 452.768 95.51 452.768 92.43C452.768 89.3033 451.741 86.9 449.688 85.22C447.681 83.54 444.671 82.7 440.658 82.7H425.958L430.018 78.22V106.57Z" fill="white"/>
</svg>
