<svg width="478" height="130" viewBox="0 0 478 130" fill="none" xmlns="http://www.w3.org/2000/svg">
<g clip-path="url(#clip0_1_4)">
<path fill-rule="evenodd" clip-rule="evenodd" d="M475.625 81.25C475.625 82.0379 475.625 82.9242 475.625 83.9091C475.625 84.697 475.526 85.4848 475.328 86.2727C475.328 87.2576 475.229 88.1439 475.031 88.9318C475.031 89.7197 474.932 90.6061 474.734 91.5909H399.917C400.906 94.1515 402.193 96.6136 403.776 98.9773C405.558 101.144 407.537 103.015 409.714 104.591C412.089 106.364 414.564 107.644 417.137 108.432C419.908 109.22 422.679 109.614 425.45 109.614C426.835 109.614 428.32 109.515 429.903 109.318C431.289 109.121 432.674 108.826 434.06 108.432C435.445 107.841 436.732 107.25 437.919 106.659C439.305 106.068 440.591 105.28 441.779 104.295L458.108 118.182C455.733 119.955 453.259 121.53 450.686 122.909C448.113 124.288 445.441 125.371 442.67 126.159C439.899 127.144 437.029 127.833 434.06 128.227C431.289 128.818 428.419 129.015 425.45 128.818C397.542 128.818 375.275 109.318 375.275 81.25C375.275 56.4318 393.088 38.1136 416.246 34.2727L425.153 43.1364L434.357 34.2727C457.811 38.1136 475.625 56.4318 475.625 81.25ZM417.137 54.0682C414.564 54.8561 412.089 56.1364 409.714 57.9091C407.537 59.4848 405.558 61.3561 403.776 63.5227C402.193 65.8864 401.005 68.3485 400.214 70.9091H450.983C450.191 68.3485 448.904 65.8864 447.123 63.5227C445.54 61.3561 443.56 59.4848 441.185 57.9091C438.81 56.1364 436.336 54.8561 433.763 54.0682C430.992 53.2803 428.221 52.8864 425.45 52.8864C422.679 52.8864 419.908 53.2803 417.137 54.0682Z" fill="white"/>
<path fill-rule="evenodd" clip-rule="evenodd" d="M168.339 81.25C168.339 109.318 145.775 128.818 118.164 128.818C90.2559 128.818 67.6919 109.318 67.6919 81.25C67.6919 56.4318 85.5056 38.1136 108.96 34.2727L117.867 43.1364L126.774 34.2727C150.525 38.1136 168.339 56.4318 168.339 81.25ZM145.478 81.25C145.478 64.4091 133.009 52.8864 118.164 52.8864C103.319 52.8864 90.8497 64.4091 90.8497 81.25C90.8497 98.0909 103.319 109.614 118.164 109.614C133.009 109.614 145.478 98.0909 145.478 81.25Z" fill="white"/>
<path d="M209.904 95.1364V0H187.043V98.3864C187.043 124.386 202.779 127.636 215.248 127.636C215.842 127.636 216.436 127.636 217.03 127.636C217.624 127.636 218.217 127.636 218.811 127.636C219.405 127.439 219.999 127.341 220.593 127.341C221.384 127.341 222.077 127.242 222.671 127.045V107.25C222.275 107.25 221.978 107.348 221.78 107.545C221.384 107.545 221.087 107.545 220.889 107.545C220.494 107.545 220.197 107.545 219.999 107.545C219.603 107.545 219.306 107.545 219.108 107.545C213.17 107.545 209.904 104.886 209.904 95.1364Z" fill="white"/>
<path d="M34.7366 90.4091V54.9546H55.5193V36.9318H34.7366V10.9318H12.4696V36.9318H0V54.9546H11.8758V93.3636C11.8758 124.091 37.1118 127.636 49.8783 127.636C50.4721 127.636 51.0658 127.636 51.6596 127.636C52.2534 127.636 52.8472 127.636 53.441 127.636C54.0348 127.439 54.6286 127.341 55.2224 127.341C55.8162 127.341 56.4099 127.242 57.0037 127.045V107.25C56.6079 107.447 56.212 107.545 55.8162 107.545C55.4203 107.545 55.1234 107.545 54.9255 107.545C54.5296 107.545 54.1338 107.644 53.7379 107.841C53.342 107.841 53.0451 107.841 52.8472 107.841C46.6124 107.545 34.7366 105.477 34.7366 90.4091Z" fill="white"/>
<path d="M239 35.75H261.861V126.75H239V35.75Z" fill="white"/>
<path d="M326.287 92.1818C324.506 97.5 323.021 105.773 323.021 105.773H322.724C322.724 105.773 320.943 97.5 319.458 92.1818L300.457 35.75H276.409L309.661 126.75H336.381L369.337 35.75H345.288L326.287 92.1818Z" fill="white"/>
</g>
<defs>
<clipPath id="clip0_1_4">
<rect width="478" height="130" fill="white"/>
</clipPath>
</defs>
</svg>
