<svg width="240" height="240" viewBox="0 0 240 240" fill="none" xmlns="http://www.w3.org/2000/svg">
<path d="M187 70H183C178.582 70 175 73.5817 175 78V97C175 101.418 178.582 105 183 105H187C191.418 105 195 101.418 195 97V78C195 73.5817 191.418 70 187 70Z" fill="#FFAA03" stroke="#5B00BB" stroke-width="10"/>
<path d="M70 150H60V170H70V150Z" fill="#5B00BB"/>
<path d="M110 40H100V60H110V40Z" fill="#5B00BB"/>
<path d="M110 180H100V200H110V180Z" fill="#5B00BB"/>
<path d="M150 60H140V80H150V60Z" fill="#5B00BB"/>
<path d="M150 155H140V175H150V155Z" fill="#5B00BB"/>
<path d="M190 45H180V65H190V45Z" fill="#5B00BB"/>
<path d="M190 110H180V130H190V110Z" fill="#5B00BB"/>
<path d="M70 210H60V230H70V210Z" fill="#5B00BB"/>
<path d="M147 85H143C138.582 85 135 88.5817 135 93V142C135 146.418 138.582 150 143 150H147C151.418 150 155 146.418 155 142V93C155 88.5817 151.418 85 147 85Z" fill="#FFAA03" stroke="#5B00BB" stroke-width="10"/>
<path d="M107 65H103C98.5817 65 95 68.5817 95 73V167C95 171.418 98.5817 175 103 175H107C111.418 175 115 171.418 115 167V73C115 68.5817 111.418 65 107 65Z" fill="#FFAA03" stroke="#5B00BB" stroke-width="10"/>
<path d="M67 173H63C58.5817 173 55 176.582 55 181V197C55 201.418 58.5817 205 63 205H67C71.4183 205 75 201.418 75 197V181C75 176.582 71.4183 173 67 173Z" fill="#FFAA03" stroke="#5B00BB" stroke-width="10"/>
</svg>
