<svg width="518" height="66" viewBox="0 0 518 66" fill="none" xmlns="http://www.w3.org/2000/svg">
<path d="M4.36021 64.8417C3.50119 64.8417 2.62242 64.5894 1.86213 64.0655C-0.112627 62.7071 -0.596444 60.039 0.795763 58.0985L40.8735 1.82451C41.6634 0.708731 42.947 0.0295626 44.3392 0.000455394C45.7314 -0.0189494 47.0447 0.5826 47.8938 1.64987C52.6727 7.67506 57.4615 13.7003 62.2503 19.7255C70.9393 30.6601 79.8948 41.9246 88.722 53.1212L125.077 2.09618C125.867 0.980399 127.151 0.30123 128.543 0.272123C129.906 0.233313 131.248 0.854267 132.098 1.92153L176.076 57.3902C177.557 59.2531 177.221 61.9503 175.315 63.4057C173.41 64.8611 170.675 64.5312 169.194 62.6586L128.849 11.7695L92.4642 62.8139C91.6644 63.9296 90.3808 64.6088 88.9886 64.6379C88.959 64.6379 88.9195 64.6379 88.8899 64.6379C87.5371 64.6379 86.2634 64.0267 85.434 62.9691C75.4615 50.2783 65.252 37.4227 55.3683 25.0036C51.794 20.5016 48.2098 15.9997 44.6355 11.4978L7.93452 63.0079C7.08538 64.2013 5.73267 64.8417 4.36021 64.8417Z" fill="white"/>
<path d="M429.743 64.8417C428.884 64.8417 428.005 64.5894 427.245 64.0655C425.27 62.7072 424.787 60.039 426.179 58.0985L466.079 2.10593C466.869 0.990154 468.162 0.310985 469.545 0.281878C470.907 0.252771 472.25 0.864023 473.099 1.93129L517.077 57.4C518.558 59.2628 518.222 61.9601 516.317 63.4155C514.411 64.8708 511.676 64.5312 510.195 62.6684L469.851 11.7792L433.337 63.0176C432.478 64.2013 431.126 64.8417 429.743 64.8417Z" fill="white"/>
<path d="M197.008 64.8417C196.149 64.8417 195.27 64.5894 194.51 64.0655C192.535 62.7072 192.051 60.039 193.443 58.0985L233.343 2.10593C234.133 0.990154 235.427 0.310985 236.809 0.281878C238.172 0.252771 239.515 0.864023 240.364 1.93129L284.342 57.4C285.823 59.2628 285.487 61.9601 283.581 63.4155C281.676 64.8708 278.941 64.5312 277.46 62.6684L237.115 11.7792L200.602 63.0176C199.733 64.2013 198.38 64.8417 197.008 64.8417Z" fill="white"/>
<path d="M386.437 65.0746C384.028 65.0746 382.073 63.1535 382.073 60.7861V6.18092C382.073 3.81353 384.028 1.89246 386.437 1.89246C388.846 1.89246 390.801 3.81353 390.801 6.18092V60.7861C390.801 63.1535 388.846 65.0746 386.437 65.0746Z" fill="white"/>
<path d="M406.51 8.84911H366.363C364.586 8.84911 363.144 7.01536 363.144 4.7547C363.144 2.49403 364.586 0.660278 366.363 0.660278H406.51C408.287 0.660278 409.729 2.49403 409.729 4.7547C409.729 7.01536 408.287 8.84911 406.51 8.84911Z" fill="white"/>
<path d="M343.13 64.7059C341.827 64.7059 340.543 64.1335 339.684 63.0565L317.004 34.4441C315.523 32.5812 315.859 29.8839 317.765 28.4286C319.66 26.9732 322.405 27.3031 323.886 29.1757L346.566 57.7881C348.048 59.6509 347.712 62.3482 345.806 63.8036C345.016 64.4148 344.068 64.7059 343.13 64.7059Z" fill="white"/>
<path d="M305.264 64.9872C302.855 64.9872 300.9 63.0662 300.9 60.6988V4.32777C300.9 3.19259 301.364 2.09622 302.184 1.29092C303.003 0.485618 304.109 0.0393066 305.264 0.0393066L328.448 0.0587115C337.334 0.0684139 340.514 4.74498 341.866 6.75337C344.276 10.3045 344.276 14.2242 344.276 17.3775C344.276 20.8801 344.276 24.4797 341.866 28.0599C338.085 33.6776 331.43 34.6866 328.734 34.8613C328.636 34.871 328.547 34.871 328.448 34.871H309.619V60.7085C309.628 63.0662 307.673 64.9872 305.264 64.9872ZM309.628 26.294H328.31C329.317 26.2164 332.97 25.7604 334.599 23.3348C335.518 21.9765 335.557 20.3659 335.557 17.3969C335.557 14.981 335.557 12.9047 334.609 11.5076C333.651 10.1007 332.664 8.64534 328.448 8.63564L309.628 8.61624V26.294V26.294Z" fill="white"/>
<path d="M232.396 59.4762C233.442 54.9549 234.509 50.4239 235.555 45.9026C233.808 44.9711 232.613 43.1471 232.613 41.0417C232.613 37.966 235.141 35.4822 238.261 35.4822C241.381 35.4822 243.908 37.966 243.908 41.0417C243.908 43.312 242.526 45.2622 240.532 46.116C241.736 50.5791 242.931 55.0228 244.126 59.4762H232.396Z" fill="white"/>
</svg>
